<mxfile host="app.diagrams.net" modified="2022-11-01T09:21:19.088Z" agent="5.0 (Macintosh; Intel Mac OS X 10_15_7) AppleWebKit/537.36 (KHTML, like Gecko) Chrome/97.0.4692.99 Safari/537.36" etag="NBrl2jaS128Q-gUWCt69" version="20.2.8" type="github">
  <diagram id="xPqd1AJxTfdzKSTH_Yz0" name="第 1 页">
    <mxGraphModel dx="3569" dy="1709" grid="1" gridSize="10" guides="1" tooltips="1" connect="1" arrows="1" fold="1" page="1" pageScale="1" pageWidth="827" pageHeight="1169" math="0" shadow="0">
      <root>
        <mxCell id="0" />
        <mxCell id="1" parent="0" />
        <mxCell id="X3lnQFaPOgWNIHZg0Lux-912" value="" style="rounded=1;whiteSpace=wrap;html=1;dashed=1;strokeColor=#707070;fontSize=16;fontColor=#000000;" vertex="1" parent="1">
          <mxGeometry x="1213.5" y="280" width="896.5" height="472" as="geometry" />
        </mxCell>
        <mxCell id="X3lnQFaPOgWNIHZg0Lux-862" value="" style="rounded=1;whiteSpace=wrap;html=1;strokeColor=#6c8ebf;fontSize=16;fillColor=#CCFFFF;" vertex="1" parent="1">
          <mxGeometry x="1290" y="412" width="370" height="200" as="geometry" />
        </mxCell>
        <mxCell id="X3lnQFaPOgWNIHZg0Lux-818" value="" style="rounded=1;whiteSpace=wrap;html=1;labelBorderColor=default;strokeColor=#67AB9F;fontSize=14;fontColor=#000000;fillColor=none;" vertex="1" parent="1">
          <mxGeometry x="1424" y="632" width="196" height="60" as="geometry" />
        </mxCell>
        <mxCell id="X3lnQFaPOgWNIHZg0Lux-812" value="" style="rounded=1;whiteSpace=wrap;html=1;dashed=1;strokeColor=#707070;fontSize=16;fontColor=#000000;" vertex="1" parent="1">
          <mxGeometry x="458.5" y="462" width="701.5" height="212" as="geometry" />
        </mxCell>
        <mxCell id="X3lnQFaPOgWNIHZg0Lux-417" value="" style="rounded=1;whiteSpace=wrap;html=1;dashed=1;strokeColor=#707070;fontSize=16;fontColor=#000000;" vertex="1" parent="1">
          <mxGeometry x="-150" y="292" width="575" height="440" as="geometry" />
        </mxCell>
        <mxCell id="X3lnQFaPOgWNIHZg0Lux-7" style="edgeStyle=orthogonalEdgeStyle;rounded=0;orthogonalLoop=1;jettySize=auto;html=1;exitX=0.5;exitY=0;exitDx=0;exitDy=0;entryX=0.196;entryY=1.018;entryDx=0;entryDy=0;entryPerimeter=0;" edge="1" parent="1" source="X3lnQFaPOgWNIHZg0Lux-1" target="X3lnQFaPOgWNIHZg0Lux-6">
          <mxGeometry relative="1" as="geometry" />
        </mxCell>
        <mxCell id="X3lnQFaPOgWNIHZg0Lux-1" value="Item Feature" style="rounded=1;whiteSpace=wrap;html=1;fillColor=#fff2cc;strokeColor=#d6b656;" vertex="1" parent="1">
          <mxGeometry x="387" y="902" width="180" height="40" as="geometry" />
        </mxCell>
        <mxCell id="X3lnQFaPOgWNIHZg0Lux-8" style="edgeStyle=orthogonalEdgeStyle;rounded=0;orthogonalLoop=1;jettySize=auto;html=1;exitX=0.5;exitY=0;exitDx=0;exitDy=0;entryX=0.39;entryY=1.036;entryDx=0;entryDy=0;entryPerimeter=0;" edge="1" parent="1" source="X3lnQFaPOgWNIHZg0Lux-2" target="X3lnQFaPOgWNIHZg0Lux-6">
          <mxGeometry relative="1" as="geometry" />
        </mxCell>
        <mxCell id="X3lnQFaPOgWNIHZg0Lux-2" value="Contest Feature" style="rounded=1;whiteSpace=wrap;html=1;fillColor=#dae8fc;strokeColor=#6c8ebf;" vertex="1" parent="1">
          <mxGeometry x="627" y="902" width="180" height="40" as="geometry" />
        </mxCell>
        <mxCell id="X3lnQFaPOgWNIHZg0Lux-9" style="edgeStyle=orthogonalEdgeStyle;rounded=0;orthogonalLoop=1;jettySize=auto;html=1;exitX=0.5;exitY=0;exitDx=0;exitDy=0;entryX=0.585;entryY=1.018;entryDx=0;entryDy=0;entryPerimeter=0;" edge="1" parent="1" source="X3lnQFaPOgWNIHZg0Lux-4" target="X3lnQFaPOgWNIHZg0Lux-6">
          <mxGeometry relative="1" as="geometry" />
        </mxCell>
        <mxCell id="X3lnQFaPOgWNIHZg0Lux-4" value="User Feature" style="rounded=1;whiteSpace=wrap;html=1;fillColor=#d5e8d4;strokeColor=#82b366;" vertex="1" parent="1">
          <mxGeometry x="857" y="902" width="180" height="40" as="geometry" />
        </mxCell>
        <mxCell id="X3lnQFaPOgWNIHZg0Lux-10" style="edgeStyle=orthogonalEdgeStyle;rounded=0;orthogonalLoop=1;jettySize=auto;html=1;exitX=0.5;exitY=0;exitDx=0;exitDy=0;entryX=0.779;entryY=1.036;entryDx=0;entryDy=0;entryPerimeter=0;" edge="1" parent="1" source="X3lnQFaPOgWNIHZg0Lux-5" target="X3lnQFaPOgWNIHZg0Lux-6">
          <mxGeometry relative="1" as="geometry" />
        </mxCell>
        <mxCell id="X3lnQFaPOgWNIHZg0Lux-5" value="Behavior Feature" style="rounded=1;whiteSpace=wrap;html=1;fillColor=#ffe6cc;strokeColor=#d79b00;" vertex="1" parent="1">
          <mxGeometry x="1097" y="902" width="180" height="40" as="geometry" />
        </mxCell>
        <mxCell id="X3lnQFaPOgWNIHZg0Lux-6" value="Embedding Layer" style="rounded=1;whiteSpace=wrap;html=1;fillColor=#f5f5f5;fontColor=#333333;strokeColor=#666666;" vertex="1" parent="1">
          <mxGeometry x="237" y="807" width="1220" height="55" as="geometry" />
        </mxCell>
        <mxCell id="X3lnQFaPOgWNIHZg0Lux-11" value="Mask Attention" style="rounded=1;whiteSpace=wrap;html=1;fillColor=#d5e8d4;strokeColor=#82b366;" vertex="1" parent="1">
          <mxGeometry x="-110" y="462" width="470" height="30" as="geometry" />
        </mxCell>
        <mxCell id="X3lnQFaPOgWNIHZg0Lux-211" value="" style="endArrow=classic;html=1;rounded=0;exitX=0.5;exitY=0;exitDx=0;exitDy=0;" edge="1" parent="1" source="X3lnQFaPOgWNIHZg0Lux-29">
          <mxGeometry width="50" height="50" relative="1" as="geometry">
            <mxPoint x="-70" y="514" as="sourcePoint" />
            <mxPoint x="-65" y="492" as="targetPoint" />
          </mxGeometry>
        </mxCell>
        <mxCell id="X3lnQFaPOgWNIHZg0Lux-212" value="" style="endArrow=classic;html=1;rounded=0;exitX=0.5;exitY=0;exitDx=0;exitDy=0;" edge="1" parent="1">
          <mxGeometry width="50" height="50" relative="1" as="geometry">
            <mxPoint x="125" y="514" as="sourcePoint" />
            <mxPoint x="125" y="492" as="targetPoint" />
          </mxGeometry>
        </mxCell>
        <mxCell id="X3lnQFaPOgWNIHZg0Lux-213" value="" style="endArrow=classic;html=1;rounded=0;exitX=0.5;exitY=0;exitDx=0;exitDy=0;" edge="1" parent="1">
          <mxGeometry width="50" height="50" relative="1" as="geometry">
            <mxPoint x="219" y="514" as="sourcePoint" />
            <mxPoint x="219" y="492" as="targetPoint" />
          </mxGeometry>
        </mxCell>
        <mxCell id="X3lnQFaPOgWNIHZg0Lux-214" value="" style="endArrow=classic;html=1;rounded=0;exitX=0.5;exitY=0;exitDx=0;exitDy=0;" edge="1" parent="1">
          <mxGeometry width="50" height="50" relative="1" as="geometry">
            <mxPoint x="315" y="514" as="sourcePoint" />
            <mxPoint x="315" y="492" as="targetPoint" />
          </mxGeometry>
        </mxCell>
        <mxCell id="X3lnQFaPOgWNIHZg0Lux-215" value="" style="endArrow=classic;html=1;rounded=0;exitX=0.5;exitY=0;exitDx=0;exitDy=0;" edge="1" parent="1">
          <mxGeometry width="50" height="50" relative="1" as="geometry">
            <mxPoint x="30" y="514" as="sourcePoint" />
            <mxPoint x="30" y="492" as="targetPoint" />
          </mxGeometry>
        </mxCell>
        <mxCell id="X3lnQFaPOgWNIHZg0Lux-216" value="&lt;font color=&quot;#707070&quot;&gt;时段&lt;/font&gt;" style="text;html=1;strokeColor=none;fillColor=none;align=center;verticalAlign=middle;whiteSpace=wrap;rounded=0;dashed=1;opacity=1;" vertex="1" parent="1">
          <mxGeometry x="350" y="514" width="60" height="30" as="geometry" />
        </mxCell>
        <mxCell id="X3lnQFaPOgWNIHZg0Lux-217" value="Mask Attention" style="rounded=1;whiteSpace=wrap;html=1;fillColor=#ffcc99;strokeColor=#36393d;" vertex="1" parent="1">
          <mxGeometry x="-110" y="602" width="470" height="30" as="geometry" />
        </mxCell>
        <mxCell id="X3lnQFaPOgWNIHZg0Lux-308" value="" style="endArrow=classic;html=1;rounded=0;exitX=0.5;exitY=0;exitDx=0;exitDy=0;" edge="1" parent="1" source="X3lnQFaPOgWNIHZg0Lux-219">
          <mxGeometry width="50" height="50" relative="1" as="geometry">
            <mxPoint x="-70" y="654" as="sourcePoint" />
            <mxPoint x="-65" y="632" as="targetPoint" />
          </mxGeometry>
        </mxCell>
        <mxCell id="X3lnQFaPOgWNIHZg0Lux-309" value="" style="endArrow=classic;html=1;rounded=0;exitX=0.5;exitY=0;exitDx=0;exitDy=0;" edge="1" parent="1">
          <mxGeometry width="50" height="50" relative="1" as="geometry">
            <mxPoint x="125" y="654" as="sourcePoint" />
            <mxPoint x="125" y="632" as="targetPoint" />
          </mxGeometry>
        </mxCell>
        <mxCell id="X3lnQFaPOgWNIHZg0Lux-310" value="" style="endArrow=classic;html=1;rounded=0;exitX=0.5;exitY=0;exitDx=0;exitDy=0;" edge="1" parent="1">
          <mxGeometry width="50" height="50" relative="1" as="geometry">
            <mxPoint x="219" y="654" as="sourcePoint" />
            <mxPoint x="219" y="632" as="targetPoint" />
          </mxGeometry>
        </mxCell>
        <mxCell id="X3lnQFaPOgWNIHZg0Lux-311" value="" style="endArrow=classic;html=1;rounded=0;exitX=0.5;exitY=0;exitDx=0;exitDy=0;" edge="1" parent="1">
          <mxGeometry width="50" height="50" relative="1" as="geometry">
            <mxPoint x="315" y="654" as="sourcePoint" />
            <mxPoint x="315" y="632" as="targetPoint" />
          </mxGeometry>
        </mxCell>
        <mxCell id="X3lnQFaPOgWNIHZg0Lux-312" value="" style="endArrow=classic;html=1;rounded=0;exitX=0.5;exitY=0;exitDx=0;exitDy=0;" edge="1" parent="1">
          <mxGeometry width="50" height="50" relative="1" as="geometry">
            <mxPoint x="30" y="654" as="sourcePoint" />
            <mxPoint x="30" y="632" as="targetPoint" />
          </mxGeometry>
        </mxCell>
        <mxCell id="X3lnQFaPOgWNIHZg0Lux-313" value="&lt;font color=&quot;#707070&quot;&gt;AOI&lt;/font&gt;" style="text;html=1;strokeColor=none;fillColor=none;align=center;verticalAlign=middle;whiteSpace=wrap;rounded=0;dashed=1;opacity=1;" vertex="1" parent="1">
          <mxGeometry x="350" y="654" width="60" height="30" as="geometry" />
        </mxCell>
        <mxCell id="X3lnQFaPOgWNIHZg0Lux-315" value="" style="endArrow=classic;html=1;rounded=0;exitX=0.5;exitY=0;exitDx=0;exitDy=0;" edge="1" parent="1" source="X3lnQFaPOgWNIHZg0Lux-217">
          <mxGeometry width="50" height="50" relative="1" as="geometry">
            <mxPoint x="125" y="594" as="sourcePoint" />
            <mxPoint x="125" y="572" as="targetPoint" />
          </mxGeometry>
        </mxCell>
        <mxCell id="X3lnQFaPOgWNIHZg0Lux-316" value="Mask Attention" style="rounded=1;whiteSpace=wrap;html=1;fillColor=#cce5ff;strokeColor=#36393d;" vertex="1" parent="1">
          <mxGeometry x="30" y="322" width="190" height="30" as="geometry" />
        </mxCell>
        <mxCell id="X3lnQFaPOgWNIHZg0Lux-407" value="" style="endArrow=classic;html=1;rounded=0;exitX=0.5;exitY=0;exitDx=0;exitDy=0;" edge="1" parent="1" source="X3lnQFaPOgWNIHZg0Lux-318">
          <mxGeometry width="50" height="50" relative="1" as="geometry">
            <mxPoint x="70" y="374" as="sourcePoint" />
            <mxPoint x="75" y="352" as="targetPoint" />
          </mxGeometry>
        </mxCell>
        <mxCell id="X3lnQFaPOgWNIHZg0Lux-411" value="" style="endArrow=classic;html=1;rounded=0;exitX=0.5;exitY=0;exitDx=0;exitDy=0;" edge="1" parent="1">
          <mxGeometry width="50" height="50" relative="1" as="geometry">
            <mxPoint x="170" y="374" as="sourcePoint" />
            <mxPoint x="170" y="352" as="targetPoint" />
          </mxGeometry>
        </mxCell>
        <mxCell id="X3lnQFaPOgWNIHZg0Lux-414" value="" style="endArrow=classic;html=1;rounded=0;exitX=0.5;exitY=0;exitDx=0;exitDy=0;" edge="1" parent="1">
          <mxGeometry width="50" height="50" relative="1" as="geometry">
            <mxPoint x="125" y="462" as="sourcePoint" />
            <mxPoint x="125" y="432" as="targetPoint" />
          </mxGeometry>
        </mxCell>
        <mxCell id="X3lnQFaPOgWNIHZg0Lux-415" value="&lt;font color=&quot;#707070&quot;&gt;日期类型&lt;/font&gt;" style="text;html=1;strokeColor=none;fillColor=none;align=center;verticalAlign=middle;whiteSpace=wrap;rounded=0;dashed=1;opacity=1;" vertex="1" parent="1">
          <mxGeometry x="230" y="362" width="60" height="30" as="geometry" />
        </mxCell>
        <mxCell id="X3lnQFaPOgWNIHZg0Lux-416" value="&lt;font size=&quot;1&quot; color=&quot;#000000&quot;&gt;&lt;b style=&quot;font-size: 16px;&quot;&gt;Deep：时空引擎&lt;/b&gt;&lt;/font&gt;" style="text;html=1;strokeColor=none;fillColor=none;align=center;verticalAlign=middle;whiteSpace=wrap;rounded=0;dashed=1;fontColor=#707070;opacity=1;" vertex="1" parent="1">
          <mxGeometry x="-120" y="344" width="130" height="30" as="geometry" />
        </mxCell>
        <mxCell id="X3lnQFaPOgWNIHZg0Lux-418" value="Mask Attention" style="rounded=1;whiteSpace=wrap;html=1;fillColor=#FFE599;strokeColor=#82b366;" vertex="1" parent="1">
          <mxGeometry x="510" y="532" width="290" height="30" as="geometry" />
        </mxCell>
        <mxCell id="X3lnQFaPOgWNIHZg0Lux-509" value="" style="endArrow=classic;html=1;rounded=0;exitX=0.5;exitY=0;exitDx=0;exitDy=0;" edge="1" parent="1" source="X3lnQFaPOgWNIHZg0Lux-420">
          <mxGeometry width="50" height="50" relative="1" as="geometry">
            <mxPoint x="550" y="584" as="sourcePoint" />
            <mxPoint x="555" y="562" as="targetPoint" />
          </mxGeometry>
        </mxCell>
        <mxCell id="X3lnQFaPOgWNIHZg0Lux-510" value="" style="endArrow=classic;html=1;rounded=0;exitX=0.5;exitY=0;exitDx=0;exitDy=0;" edge="1" parent="1">
          <mxGeometry width="50" height="50" relative="1" as="geometry">
            <mxPoint x="745" y="584" as="sourcePoint" />
            <mxPoint x="745" y="562" as="targetPoint" />
          </mxGeometry>
        </mxCell>
        <mxCell id="X3lnQFaPOgWNIHZg0Lux-513" value="" style="endArrow=classic;html=1;rounded=0;exitX=0.5;exitY=0;exitDx=0;exitDy=0;" edge="1" parent="1">
          <mxGeometry width="50" height="50" relative="1" as="geometry">
            <mxPoint x="650" y="584" as="sourcePoint" />
            <mxPoint x="650" y="562" as="targetPoint" />
          </mxGeometry>
        </mxCell>
        <mxCell id="X3lnQFaPOgWNIHZg0Lux-516" value="" style="group" vertex="1" connectable="0" parent="1">
          <mxGeometry x="125" y="374" width="90" height="58" as="geometry" />
        </mxCell>
        <mxCell id="X3lnQFaPOgWNIHZg0Lux-336" value="" style="rounded=1;whiteSpace=wrap;html=1;dashed=1;strokeColor=#97D077;" vertex="1" parent="X3lnQFaPOgWNIHZg0Lux-516">
          <mxGeometry width="90" height="58" as="geometry" />
        </mxCell>
        <mxCell id="X3lnQFaPOgWNIHZg0Lux-337" value="" style="group" vertex="1" connectable="0" parent="X3lnQFaPOgWNIHZg0Lux-516">
          <mxGeometry x="6.758893280632435" y="2.5" width="78.26086956521739" height="37.5" as="geometry" />
        </mxCell>
        <mxCell id="X3lnQFaPOgWNIHZg0Lux-338" value="" style="ellipse;whiteSpace=wrap;html=1;aspect=fixed;fillColor=#cce5ff;strokeColor=#36393d;" vertex="1" parent="X3lnQFaPOgWNIHZg0Lux-337">
          <mxGeometry width="14.0625" height="14.0625" as="geometry" />
        </mxCell>
        <mxCell id="X3lnQFaPOgWNIHZg0Lux-339" value="" style="ellipse;whiteSpace=wrap;html=1;aspect=fixed;fillColor=#cce5ff;strokeColor=#36393d;" vertex="1" parent="X3lnQFaPOgWNIHZg0Lux-337">
          <mxGeometry x="60.20066889632107" width="14.0625" height="14.0625" as="geometry" />
        </mxCell>
        <mxCell id="X3lnQFaPOgWNIHZg0Lux-340" value="" style="ellipse;whiteSpace=wrap;html=1;aspect=fixed;fillColor=#cce5ff;strokeColor=#36393d;" vertex="1" parent="X3lnQFaPOgWNIHZg0Lux-337">
          <mxGeometry x="30.100334448160535" width="14.0625" height="14.0625" as="geometry" />
        </mxCell>
        <mxCell id="X3lnQFaPOgWNIHZg0Lux-341" value="" style="ellipse;whiteSpace=wrap;html=1;aspect=fixed;fillColor=#cce5ff;strokeColor=#36393d;" vertex="1" parent="X3lnQFaPOgWNIHZg0Lux-337">
          <mxGeometry y="23.4375" width="14.0625" height="14.0625" as="geometry" />
        </mxCell>
        <mxCell id="X3lnQFaPOgWNIHZg0Lux-342" value="" style="ellipse;whiteSpace=wrap;html=1;aspect=fixed;fillColor=#cce5ff;strokeColor=#36393d;" vertex="1" parent="X3lnQFaPOgWNIHZg0Lux-337">
          <mxGeometry x="60.20066889632107" y="23.4375" width="14.0625" height="14.0625" as="geometry" />
        </mxCell>
        <mxCell id="X3lnQFaPOgWNIHZg0Lux-343" value="" style="ellipse;whiteSpace=wrap;html=1;aspect=fixed;fillColor=#cce5ff;strokeColor=#36393d;" vertex="1" parent="X3lnQFaPOgWNIHZg0Lux-337">
          <mxGeometry x="30.100334448160535" y="23.4375" width="14.0625" height="14.0625" as="geometry" />
        </mxCell>
        <mxCell id="X3lnQFaPOgWNIHZg0Lux-344" value="" style="endArrow=none;html=1;rounded=0;entryX=0.5;entryY=0;entryDx=0;entryDy=0;exitX=0.5;exitY=1;exitDx=0;exitDy=0;fillColor=#cce5ff;strokeColor=#36393d;" edge="1" parent="X3lnQFaPOgWNIHZg0Lux-337" source="X3lnQFaPOgWNIHZg0Lux-338" target="X3lnQFaPOgWNIHZg0Lux-341">
          <mxGeometry width="50" height="50" relative="1" as="geometry">
            <mxPoint x="-36.12040133779264" y="65.625" as="sourcePoint" />
            <mxPoint x="-6.0200668896321075" y="42.1875" as="targetPoint" />
          </mxGeometry>
        </mxCell>
        <mxCell id="X3lnQFaPOgWNIHZg0Lux-345" value="" style="endArrow=none;html=1;rounded=0;entryX=0.5;entryY=1;entryDx=0;entryDy=0;exitX=0.5;exitY=0;exitDx=0;exitDy=0;fillColor=#cce5ff;strokeColor=#36393d;" edge="1" parent="X3lnQFaPOgWNIHZg0Lux-337" source="X3lnQFaPOgWNIHZg0Lux-343" target="X3lnQFaPOgWNIHZg0Lux-338">
          <mxGeometry width="50" height="50" relative="1" as="geometry">
            <mxPoint x="6.0200668896321075" y="79.6875" as="sourcePoint" />
            <mxPoint x="36.12040133779264" y="56.25" as="targetPoint" />
          </mxGeometry>
        </mxCell>
        <mxCell id="X3lnQFaPOgWNIHZg0Lux-346" value="" style="endArrow=none;html=1;rounded=0;entryX=0.5;entryY=1;entryDx=0;entryDy=0;exitX=0.5;exitY=0;exitDx=0;exitDy=0;fillColor=#cce5ff;strokeColor=#36393d;" edge="1" parent="X3lnQFaPOgWNIHZg0Lux-337" source="X3lnQFaPOgWNIHZg0Lux-342" target="X3lnQFaPOgWNIHZg0Lux-338">
          <mxGeometry width="50" height="50" relative="1" as="geometry">
            <mxPoint x="6.0200668896321075" y="79.6875" as="sourcePoint" />
            <mxPoint x="36.12040133779264" y="56.25" as="targetPoint" />
          </mxGeometry>
        </mxCell>
        <mxCell id="X3lnQFaPOgWNIHZg0Lux-347" value="" style="endArrow=none;html=1;rounded=0;entryX=0.5;entryY=1;entryDx=0;entryDy=0;fillColor=#cce5ff;strokeColor=#36393d;" edge="1" parent="X3lnQFaPOgWNIHZg0Lux-337" target="X3lnQFaPOgWNIHZg0Lux-340">
          <mxGeometry width="50" height="50" relative="1" as="geometry">
            <mxPoint x="38.41897233201581" y="23.75" as="sourcePoint" />
            <mxPoint x="-6.0200668896321075" y="60.9375" as="targetPoint" />
          </mxGeometry>
        </mxCell>
        <mxCell id="X3lnQFaPOgWNIHZg0Lux-348" value="" style="endArrow=none;html=1;rounded=0;entryX=0.5;entryY=1;entryDx=0;entryDy=0;fillColor=#cce5ff;strokeColor=#36393d;" edge="1" parent="X3lnQFaPOgWNIHZg0Lux-337" target="X3lnQFaPOgWNIHZg0Lux-339">
          <mxGeometry width="50" height="50" relative="1" as="geometry">
            <mxPoint x="69.23076923076923" y="23.4375" as="sourcePoint" />
            <mxPoint x="108.36120401337791" y="56.25" as="targetPoint" />
            <Array as="points">
              <mxPoint x="68.300395256917" y="23.75" />
            </Array>
          </mxGeometry>
        </mxCell>
        <mxCell id="X3lnQFaPOgWNIHZg0Lux-349" value="" style="endArrow=none;html=1;rounded=0;entryX=0.5;entryY=1;entryDx=0;entryDy=0;exitX=0.5;exitY=0;exitDx=0;exitDy=0;fillColor=#cce5ff;strokeColor=#36393d;" edge="1" parent="X3lnQFaPOgWNIHZg0Lux-337" source="X3lnQFaPOgWNIHZg0Lux-341" target="X3lnQFaPOgWNIHZg0Lux-340">
          <mxGeometry width="50" height="50" relative="1" as="geometry">
            <mxPoint x="30.100334448160535" y="75" as="sourcePoint" />
            <mxPoint x="60.20066889632107" y="51.5625" as="targetPoint" />
          </mxGeometry>
        </mxCell>
        <mxCell id="X3lnQFaPOgWNIHZg0Lux-350" value="" style="endArrow=none;html=1;rounded=0;entryX=0.5;entryY=1;entryDx=0;entryDy=0;exitX=0.5;exitY=0;exitDx=0;exitDy=0;fillColor=#cce5ff;strokeColor=#36393d;" edge="1" parent="X3lnQFaPOgWNIHZg0Lux-337" source="X3lnQFaPOgWNIHZg0Lux-341" target="X3lnQFaPOgWNIHZg0Lux-339">
          <mxGeometry width="50" height="50" relative="1" as="geometry">
            <mxPoint x="42.14046822742475" y="84.375" as="sourcePoint" />
            <mxPoint x="72.24080267558529" y="60.9375" as="targetPoint" />
          </mxGeometry>
        </mxCell>
        <mxCell id="X3lnQFaPOgWNIHZg0Lux-351" value="" style="endArrow=none;html=1;rounded=0;entryX=0.5;entryY=1;entryDx=0;entryDy=0;exitX=0.5;exitY=0;exitDx=0;exitDy=0;fillColor=#cce5ff;strokeColor=#36393d;" edge="1" parent="X3lnQFaPOgWNIHZg0Lux-337" source="X3lnQFaPOgWNIHZg0Lux-343" target="X3lnQFaPOgWNIHZg0Lux-339">
          <mxGeometry width="50" height="50" relative="1" as="geometry">
            <mxPoint x="36.12040133779264" y="70.3125" as="sourcePoint" />
            <mxPoint x="66.22073578595318" y="46.875" as="targetPoint" />
          </mxGeometry>
        </mxCell>
        <mxCell id="X3lnQFaPOgWNIHZg0Lux-352" value="周末" style="text;html=1;strokeColor=none;fillColor=none;align=center;verticalAlign=middle;whiteSpace=wrap;rounded=0;" vertex="1" parent="X3lnQFaPOgWNIHZg0Lux-516">
          <mxGeometry x="24.189723320158123" y="45.75" width="39.130434782608695" height="6.25" as="geometry" />
        </mxCell>
        <mxCell id="X3lnQFaPOgWNIHZg0Lux-517" value="" style="group" vertex="1" connectable="0" parent="1">
          <mxGeometry x="30" y="374" width="90" height="58" as="geometry" />
        </mxCell>
        <mxCell id="X3lnQFaPOgWNIHZg0Lux-318" value="" style="rounded=1;whiteSpace=wrap;html=1;dashed=1;strokeColor=#97D077;" vertex="1" parent="X3lnQFaPOgWNIHZg0Lux-517">
          <mxGeometry width="90" height="58" as="geometry" />
        </mxCell>
        <mxCell id="X3lnQFaPOgWNIHZg0Lux-319" value="" style="group" vertex="1" connectable="0" parent="X3lnQFaPOgWNIHZg0Lux-517">
          <mxGeometry x="6.758893280632407" y="2.5" width="78.26086956521739" height="37.5" as="geometry" />
        </mxCell>
        <mxCell id="X3lnQFaPOgWNIHZg0Lux-320" value="" style="ellipse;whiteSpace=wrap;html=1;aspect=fixed;fillColor=#cce5ff;strokeColor=#36393d;" vertex="1" parent="X3lnQFaPOgWNIHZg0Lux-319">
          <mxGeometry width="14.0625" height="14.0625" as="geometry" />
        </mxCell>
        <mxCell id="X3lnQFaPOgWNIHZg0Lux-321" value="" style="ellipse;whiteSpace=wrap;html=1;aspect=fixed;fillColor=#cce5ff;strokeColor=#36393d;" vertex="1" parent="X3lnQFaPOgWNIHZg0Lux-319">
          <mxGeometry x="60.20066889632107" width="14.0625" height="14.0625" as="geometry" />
        </mxCell>
        <mxCell id="X3lnQFaPOgWNIHZg0Lux-322" value="" style="ellipse;whiteSpace=wrap;html=1;aspect=fixed;fillColor=#cce5ff;strokeColor=#36393d;" vertex="1" parent="X3lnQFaPOgWNIHZg0Lux-319">
          <mxGeometry x="30.100334448160535" width="14.0625" height="14.0625" as="geometry" />
        </mxCell>
        <mxCell id="X3lnQFaPOgWNIHZg0Lux-323" value="" style="ellipse;whiteSpace=wrap;html=1;aspect=fixed;fillColor=#cce5ff;strokeColor=#36393d;" vertex="1" parent="X3lnQFaPOgWNIHZg0Lux-319">
          <mxGeometry y="23.4375" width="14.0625" height="14.0625" as="geometry" />
        </mxCell>
        <mxCell id="X3lnQFaPOgWNIHZg0Lux-324" value="" style="ellipse;whiteSpace=wrap;html=1;aspect=fixed;fillColor=#cce5ff;strokeColor=#36393d;" vertex="1" parent="X3lnQFaPOgWNIHZg0Lux-319">
          <mxGeometry x="60.20066889632107" y="23.4375" width="14.0625" height="14.0625" as="geometry" />
        </mxCell>
        <mxCell id="X3lnQFaPOgWNIHZg0Lux-325" value="" style="ellipse;whiteSpace=wrap;html=1;aspect=fixed;fillColor=#cce5ff;strokeColor=#36393d;" vertex="1" parent="X3lnQFaPOgWNIHZg0Lux-319">
          <mxGeometry x="30.100334448160535" y="23.4375" width="14.0625" height="14.0625" as="geometry" />
        </mxCell>
        <mxCell id="X3lnQFaPOgWNIHZg0Lux-326" value="" style="endArrow=none;html=1;rounded=0;entryX=0.5;entryY=0;entryDx=0;entryDy=0;exitX=0.5;exitY=1;exitDx=0;exitDy=0;fillColor=#cce5ff;strokeColor=#36393d;" edge="1" parent="X3lnQFaPOgWNIHZg0Lux-319" source="X3lnQFaPOgWNIHZg0Lux-320" target="X3lnQFaPOgWNIHZg0Lux-323">
          <mxGeometry width="50" height="50" relative="1" as="geometry">
            <mxPoint x="-36.12040133779264" y="65.625" as="sourcePoint" />
            <mxPoint x="-6.0200668896321075" y="42.1875" as="targetPoint" />
          </mxGeometry>
        </mxCell>
        <mxCell id="X3lnQFaPOgWNIHZg0Lux-327" value="" style="endArrow=none;html=1;rounded=0;entryX=0.5;entryY=1;entryDx=0;entryDy=0;exitX=0.5;exitY=0;exitDx=0;exitDy=0;fillColor=#cce5ff;strokeColor=#36393d;" edge="1" parent="X3lnQFaPOgWNIHZg0Lux-319" source="X3lnQFaPOgWNIHZg0Lux-325" target="X3lnQFaPOgWNIHZg0Lux-320">
          <mxGeometry width="50" height="50" relative="1" as="geometry">
            <mxPoint x="6.0200668896321075" y="79.6875" as="sourcePoint" />
            <mxPoint x="36.12040133779264" y="56.25" as="targetPoint" />
          </mxGeometry>
        </mxCell>
        <mxCell id="X3lnQFaPOgWNIHZg0Lux-328" value="" style="endArrow=none;html=1;rounded=0;entryX=0.5;entryY=1;entryDx=0;entryDy=0;exitX=0.5;exitY=0;exitDx=0;exitDy=0;fillColor=#cce5ff;strokeColor=#36393d;" edge="1" parent="X3lnQFaPOgWNIHZg0Lux-319" source="X3lnQFaPOgWNIHZg0Lux-324" target="X3lnQFaPOgWNIHZg0Lux-320">
          <mxGeometry width="50" height="50" relative="1" as="geometry">
            <mxPoint x="6.0200668896321075" y="79.6875" as="sourcePoint" />
            <mxPoint x="36.12040133779264" y="56.25" as="targetPoint" />
          </mxGeometry>
        </mxCell>
        <mxCell id="X3lnQFaPOgWNIHZg0Lux-329" value="" style="endArrow=none;html=1;rounded=0;entryX=0.5;entryY=1;entryDx=0;entryDy=0;fillColor=#cce5ff;strokeColor=#36393d;" edge="1" parent="X3lnQFaPOgWNIHZg0Lux-319" target="X3lnQFaPOgWNIHZg0Lux-322">
          <mxGeometry width="50" height="50" relative="1" as="geometry">
            <mxPoint x="38.41897233201581" y="23.75" as="sourcePoint" />
            <mxPoint x="-6.0200668896321075" y="60.9375" as="targetPoint" />
          </mxGeometry>
        </mxCell>
        <mxCell id="X3lnQFaPOgWNIHZg0Lux-330" value="" style="endArrow=none;html=1;rounded=0;entryX=0.5;entryY=1;entryDx=0;entryDy=0;fillColor=#cce5ff;strokeColor=#36393d;" edge="1" parent="X3lnQFaPOgWNIHZg0Lux-319" target="X3lnQFaPOgWNIHZg0Lux-321">
          <mxGeometry width="50" height="50" relative="1" as="geometry">
            <mxPoint x="69.23076923076923" y="23.4375" as="sourcePoint" />
            <mxPoint x="108.36120401337791" y="56.25" as="targetPoint" />
            <Array as="points">
              <mxPoint x="68.300395256917" y="23.75" />
            </Array>
          </mxGeometry>
        </mxCell>
        <mxCell id="X3lnQFaPOgWNIHZg0Lux-331" value="" style="endArrow=none;html=1;rounded=0;entryX=0.5;entryY=1;entryDx=0;entryDy=0;exitX=0.5;exitY=0;exitDx=0;exitDy=0;fillColor=#cce5ff;strokeColor=#36393d;" edge="1" parent="X3lnQFaPOgWNIHZg0Lux-319" source="X3lnQFaPOgWNIHZg0Lux-323" target="X3lnQFaPOgWNIHZg0Lux-322">
          <mxGeometry width="50" height="50" relative="1" as="geometry">
            <mxPoint x="30.100334448160535" y="75" as="sourcePoint" />
            <mxPoint x="60.20066889632107" y="51.5625" as="targetPoint" />
          </mxGeometry>
        </mxCell>
        <mxCell id="X3lnQFaPOgWNIHZg0Lux-332" value="" style="endArrow=none;html=1;rounded=0;entryX=0.5;entryY=1;entryDx=0;entryDy=0;exitX=0.5;exitY=0;exitDx=0;exitDy=0;fillColor=#cce5ff;strokeColor=#36393d;" edge="1" parent="X3lnQFaPOgWNIHZg0Lux-319" source="X3lnQFaPOgWNIHZg0Lux-323" target="X3lnQFaPOgWNIHZg0Lux-321">
          <mxGeometry width="50" height="50" relative="1" as="geometry">
            <mxPoint x="42.14046822742475" y="84.375" as="sourcePoint" />
            <mxPoint x="72.24080267558529" y="60.9375" as="targetPoint" />
          </mxGeometry>
        </mxCell>
        <mxCell id="X3lnQFaPOgWNIHZg0Lux-333" value="" style="endArrow=none;html=1;rounded=0;entryX=0.5;entryY=1;entryDx=0;entryDy=0;exitX=0.5;exitY=0;exitDx=0;exitDy=0;fillColor=#cce5ff;strokeColor=#36393d;" edge="1" parent="X3lnQFaPOgWNIHZg0Lux-319" source="X3lnQFaPOgWNIHZg0Lux-325" target="X3lnQFaPOgWNIHZg0Lux-321">
          <mxGeometry width="50" height="50" relative="1" as="geometry">
            <mxPoint x="36.12040133779264" y="70.3125" as="sourcePoint" />
            <mxPoint x="66.22073578595318" y="46.875" as="targetPoint" />
          </mxGeometry>
        </mxCell>
        <mxCell id="X3lnQFaPOgWNIHZg0Lux-334" value="&lt;font style=&quot;font-size: 11px;&quot;&gt;工作日&lt;/font&gt;" style="text;html=1;strokeColor=none;fillColor=none;align=center;verticalAlign=middle;whiteSpace=wrap;rounded=0;" vertex="1" parent="X3lnQFaPOgWNIHZg0Lux-517">
          <mxGeometry x="24.189723320158095" y="45.75" width="39.130434782608695" height="6.25" as="geometry" />
        </mxCell>
        <mxCell id="X3lnQFaPOgWNIHZg0Lux-518" value="" style="group" vertex="1" connectable="0" parent="1">
          <mxGeometry x="-110" y="514" width="90" height="58" as="geometry" />
        </mxCell>
        <mxCell id="X3lnQFaPOgWNIHZg0Lux-29" value="" style="rounded=1;whiteSpace=wrap;html=1;dashed=1;strokeColor=#97D077;" vertex="1" parent="X3lnQFaPOgWNIHZg0Lux-518">
          <mxGeometry width="90" height="58" as="geometry" />
        </mxCell>
        <mxCell id="X3lnQFaPOgWNIHZg0Lux-28" value="&lt;font style=&quot;font-size: 11px;&quot;&gt;早餐&lt;/font&gt;" style="text;html=1;strokeColor=none;fillColor=none;align=center;verticalAlign=middle;whiteSpace=wrap;rounded=0;fontSize=8;" vertex="1" parent="X3lnQFaPOgWNIHZg0Lux-518">
          <mxGeometry x="24.189723320158095" y="44.75" width="39.130434782608695" height="6.25" as="geometry" />
        </mxCell>
        <mxCell id="X3lnQFaPOgWNIHZg0Lux-12" value="" style="ellipse;whiteSpace=wrap;html=1;aspect=fixed;fillColor=#d5e8d4;strokeColor=#000000;" vertex="1" parent="X3lnQFaPOgWNIHZg0Lux-518">
          <mxGeometry x="6.758893280632407" y="2.5" width="14.0625" height="14.0625" as="geometry" />
        </mxCell>
        <mxCell id="X3lnQFaPOgWNIHZg0Lux-13" value="" style="ellipse;whiteSpace=wrap;html=1;aspect=fixed;fillColor=#d5e8d4;strokeColor=#000000;" vertex="1" parent="X3lnQFaPOgWNIHZg0Lux-518">
          <mxGeometry x="66.95956217695348" y="2.5" width="14.0625" height="14.0625" as="geometry" />
        </mxCell>
        <mxCell id="X3lnQFaPOgWNIHZg0Lux-14" value="" style="ellipse;whiteSpace=wrap;html=1;aspect=fixed;fillColor=#d5e8d4;strokeColor=#000000;" vertex="1" parent="X3lnQFaPOgWNIHZg0Lux-518">
          <mxGeometry x="36.859227728792945" y="2.5" width="14.0625" height="14.0625" as="geometry" />
        </mxCell>
        <mxCell id="X3lnQFaPOgWNIHZg0Lux-15" value="" style="ellipse;whiteSpace=wrap;html=1;aspect=fixed;fillColor=#d5e8d4;strokeColor=#000000;" vertex="1" parent="X3lnQFaPOgWNIHZg0Lux-518">
          <mxGeometry x="6.758893280632407" y="25.9375" width="14.0625" height="14.0625" as="geometry" />
        </mxCell>
        <mxCell id="X3lnQFaPOgWNIHZg0Lux-16" value="" style="ellipse;whiteSpace=wrap;html=1;aspect=fixed;fillColor=#d5e8d4;strokeColor=#000000;" vertex="1" parent="X3lnQFaPOgWNIHZg0Lux-518">
          <mxGeometry x="66.95956217695348" y="25.9375" width="14.0625" height="14.0625" as="geometry" />
        </mxCell>
        <mxCell id="X3lnQFaPOgWNIHZg0Lux-17" value="" style="ellipse;whiteSpace=wrap;html=1;aspect=fixed;fillColor=#d5e8d4;strokeColor=#000000;" vertex="1" parent="X3lnQFaPOgWNIHZg0Lux-518">
          <mxGeometry x="36.859227728792945" y="25.9375" width="14.0625" height="14.0625" as="geometry" />
        </mxCell>
        <mxCell id="X3lnQFaPOgWNIHZg0Lux-18" value="" style="endArrow=none;html=1;rounded=0;entryX=0.5;entryY=0;entryDx=0;entryDy=0;exitX=0.5;exitY=1;exitDx=0;exitDy=0;fillColor=#d5e8d4;strokeColor=#000000;" edge="1" parent="X3lnQFaPOgWNIHZg0Lux-518" source="X3lnQFaPOgWNIHZg0Lux-12" target="X3lnQFaPOgWNIHZg0Lux-15">
          <mxGeometry width="50" height="50" relative="1" as="geometry">
            <mxPoint x="-29.361508057160236" y="68.125" as="sourcePoint" />
            <mxPoint x="0.7388263910003019" y="44.6875" as="targetPoint" />
          </mxGeometry>
        </mxCell>
        <mxCell id="X3lnQFaPOgWNIHZg0Lux-19" value="" style="endArrow=none;html=1;rounded=0;entryX=0.5;entryY=1;entryDx=0;entryDy=0;exitX=0.5;exitY=0;exitDx=0;exitDy=0;fillColor=#d5e8d4;strokeColor=#000000;" edge="1" parent="X3lnQFaPOgWNIHZg0Lux-518" source="X3lnQFaPOgWNIHZg0Lux-17" target="X3lnQFaPOgWNIHZg0Lux-12">
          <mxGeometry width="50" height="50" relative="1" as="geometry">
            <mxPoint x="12.778960170264511" y="82.1875" as="sourcePoint" />
            <mxPoint x="42.87929461842505" y="58.75" as="targetPoint" />
          </mxGeometry>
        </mxCell>
        <mxCell id="X3lnQFaPOgWNIHZg0Lux-20" value="" style="endArrow=none;html=1;rounded=0;entryX=0.5;entryY=1;entryDx=0;entryDy=0;exitX=0.5;exitY=0;exitDx=0;exitDy=0;fillColor=#d5e8d4;strokeColor=#000000;" edge="1" parent="X3lnQFaPOgWNIHZg0Lux-518" source="X3lnQFaPOgWNIHZg0Lux-16" target="X3lnQFaPOgWNIHZg0Lux-12">
          <mxGeometry width="50" height="50" relative="1" as="geometry">
            <mxPoint x="12.778960170264511" y="82.1875" as="sourcePoint" />
            <mxPoint x="42.87929461842505" y="58.75" as="targetPoint" />
          </mxGeometry>
        </mxCell>
        <mxCell id="X3lnQFaPOgWNIHZg0Lux-21" value="" style="endArrow=none;html=1;rounded=0;entryX=0.5;entryY=1;entryDx=0;entryDy=0;fillColor=#d5e8d4;strokeColor=#000000;" edge="1" parent="X3lnQFaPOgWNIHZg0Lux-518" target="X3lnQFaPOgWNIHZg0Lux-14">
          <mxGeometry width="50" height="50" relative="1" as="geometry">
            <mxPoint x="45.17786561264822" y="26.25" as="sourcePoint" />
            <mxPoint x="0.7388263910003019" y="63.4375" as="targetPoint" />
          </mxGeometry>
        </mxCell>
        <mxCell id="X3lnQFaPOgWNIHZg0Lux-22" value="" style="endArrow=none;html=1;rounded=0;entryX=0.5;entryY=1;entryDx=0;entryDy=0;fillColor=#d5e8d4;strokeColor=#000000;" edge="1" parent="X3lnQFaPOgWNIHZg0Lux-518" target="X3lnQFaPOgWNIHZg0Lux-13">
          <mxGeometry width="50" height="50" relative="1" as="geometry">
            <mxPoint x="75.98966251140163" y="25.9375" as="sourcePoint" />
            <mxPoint x="115.12009729401032" y="58.75" as="targetPoint" />
            <Array as="points">
              <mxPoint x="75.0592885375494" y="26.25" />
            </Array>
          </mxGeometry>
        </mxCell>
        <mxCell id="X3lnQFaPOgWNIHZg0Lux-23" value="" style="endArrow=none;html=1;rounded=0;entryX=0.5;entryY=1;entryDx=0;entryDy=0;exitX=0.5;exitY=0;exitDx=0;exitDy=0;fillColor=#d5e8d4;strokeColor=#000000;" edge="1" parent="X3lnQFaPOgWNIHZg0Lux-518" source="X3lnQFaPOgWNIHZg0Lux-15" target="X3lnQFaPOgWNIHZg0Lux-14">
          <mxGeometry width="50" height="50" relative="1" as="geometry">
            <mxPoint x="36.859227728792945" y="77.5" as="sourcePoint" />
            <mxPoint x="66.95956217695348" y="54.0625" as="targetPoint" />
          </mxGeometry>
        </mxCell>
        <mxCell id="X3lnQFaPOgWNIHZg0Lux-24" value="" style="endArrow=none;html=1;rounded=0;entryX=0.5;entryY=1;entryDx=0;entryDy=0;exitX=0.5;exitY=0;exitDx=0;exitDy=0;fillColor=#d5e8d4;strokeColor=#000000;" edge="1" parent="X3lnQFaPOgWNIHZg0Lux-518" source="X3lnQFaPOgWNIHZg0Lux-15" target="X3lnQFaPOgWNIHZg0Lux-13">
          <mxGeometry width="50" height="50" relative="1" as="geometry">
            <mxPoint x="48.899361508057154" y="86.875" as="sourcePoint" />
            <mxPoint x="78.99969595621769" y="63.4375" as="targetPoint" />
          </mxGeometry>
        </mxCell>
        <mxCell id="X3lnQFaPOgWNIHZg0Lux-26" value="" style="endArrow=none;html=1;rounded=0;entryX=0.5;entryY=1;entryDx=0;entryDy=0;exitX=0.5;exitY=0;exitDx=0;exitDy=0;fillColor=#d5e8d4;strokeColor=#000000;" edge="1" parent="X3lnQFaPOgWNIHZg0Lux-518" source="X3lnQFaPOgWNIHZg0Lux-17" target="X3lnQFaPOgWNIHZg0Lux-13">
          <mxGeometry width="50" height="50" relative="1" as="geometry">
            <mxPoint x="42.87929461842505" y="72.8125" as="sourcePoint" />
            <mxPoint x="72.97962906658557" y="49.375" as="targetPoint" />
          </mxGeometry>
        </mxCell>
        <mxCell id="X3lnQFaPOgWNIHZg0Lux-519" value="" style="group" vertex="1" connectable="0" parent="1">
          <mxGeometry x="-13" y="514" width="90" height="58" as="geometry" />
        </mxCell>
        <mxCell id="X3lnQFaPOgWNIHZg0Lux-520" value="" style="rounded=1;whiteSpace=wrap;html=1;dashed=1;strokeColor=#97D077;" vertex="1" parent="X3lnQFaPOgWNIHZg0Lux-519">
          <mxGeometry width="90" height="58" as="geometry" />
        </mxCell>
        <mxCell id="X3lnQFaPOgWNIHZg0Lux-521" value="&lt;font style=&quot;font-size: 11px;&quot;&gt;午餐&lt;/font&gt;" style="text;html=1;strokeColor=none;fillColor=none;align=center;verticalAlign=middle;whiteSpace=wrap;rounded=0;fontSize=8;" vertex="1" parent="X3lnQFaPOgWNIHZg0Lux-519">
          <mxGeometry x="24.189723320158095" y="44.75" width="39.130434782608695" height="6.25" as="geometry" />
        </mxCell>
        <mxCell id="X3lnQFaPOgWNIHZg0Lux-522" value="" style="ellipse;whiteSpace=wrap;html=1;aspect=fixed;fillColor=#d5e8d4;strokeColor=#000000;" vertex="1" parent="X3lnQFaPOgWNIHZg0Lux-519">
          <mxGeometry x="6.758893280632407" y="2.5" width="14.0625" height="14.0625" as="geometry" />
        </mxCell>
        <mxCell id="X3lnQFaPOgWNIHZg0Lux-523" value="" style="ellipse;whiteSpace=wrap;html=1;aspect=fixed;fillColor=#d5e8d4;strokeColor=#000000;" vertex="1" parent="X3lnQFaPOgWNIHZg0Lux-519">
          <mxGeometry x="66.95956217695348" y="2.5" width="14.0625" height="14.0625" as="geometry" />
        </mxCell>
        <mxCell id="X3lnQFaPOgWNIHZg0Lux-524" value="" style="ellipse;whiteSpace=wrap;html=1;aspect=fixed;fillColor=#d5e8d4;strokeColor=#000000;" vertex="1" parent="X3lnQFaPOgWNIHZg0Lux-519">
          <mxGeometry x="36.859227728792945" y="2.5" width="14.0625" height="14.0625" as="geometry" />
        </mxCell>
        <mxCell id="X3lnQFaPOgWNIHZg0Lux-525" value="" style="ellipse;whiteSpace=wrap;html=1;aspect=fixed;fillColor=#d5e8d4;strokeColor=#000000;" vertex="1" parent="X3lnQFaPOgWNIHZg0Lux-519">
          <mxGeometry x="6.758893280632407" y="25.9375" width="14.0625" height="14.0625" as="geometry" />
        </mxCell>
        <mxCell id="X3lnQFaPOgWNIHZg0Lux-526" value="" style="ellipse;whiteSpace=wrap;html=1;aspect=fixed;fillColor=#d5e8d4;strokeColor=#000000;" vertex="1" parent="X3lnQFaPOgWNIHZg0Lux-519">
          <mxGeometry x="66.95956217695348" y="25.9375" width="14.0625" height="14.0625" as="geometry" />
        </mxCell>
        <mxCell id="X3lnQFaPOgWNIHZg0Lux-527" value="" style="ellipse;whiteSpace=wrap;html=1;aspect=fixed;fillColor=#d5e8d4;strokeColor=#000000;" vertex="1" parent="X3lnQFaPOgWNIHZg0Lux-519">
          <mxGeometry x="36.859227728792945" y="25.9375" width="14.0625" height="14.0625" as="geometry" />
        </mxCell>
        <mxCell id="X3lnQFaPOgWNIHZg0Lux-528" value="" style="endArrow=none;html=1;rounded=0;entryX=0.5;entryY=0;entryDx=0;entryDy=0;exitX=0.5;exitY=1;exitDx=0;exitDy=0;fillColor=#d5e8d4;strokeColor=#000000;" edge="1" parent="X3lnQFaPOgWNIHZg0Lux-519" source="X3lnQFaPOgWNIHZg0Lux-522" target="X3lnQFaPOgWNIHZg0Lux-525">
          <mxGeometry width="50" height="50" relative="1" as="geometry">
            <mxPoint x="-29.361508057160236" y="68.125" as="sourcePoint" />
            <mxPoint x="0.7388263910003019" y="44.6875" as="targetPoint" />
          </mxGeometry>
        </mxCell>
        <mxCell id="X3lnQFaPOgWNIHZg0Lux-529" value="" style="endArrow=none;html=1;rounded=0;entryX=0.5;entryY=1;entryDx=0;entryDy=0;exitX=0.5;exitY=0;exitDx=0;exitDy=0;fillColor=#d5e8d4;strokeColor=#000000;" edge="1" parent="X3lnQFaPOgWNIHZg0Lux-519" source="X3lnQFaPOgWNIHZg0Lux-527" target="X3lnQFaPOgWNIHZg0Lux-522">
          <mxGeometry width="50" height="50" relative="1" as="geometry">
            <mxPoint x="12.778960170264511" y="82.1875" as="sourcePoint" />
            <mxPoint x="42.87929461842505" y="58.75" as="targetPoint" />
          </mxGeometry>
        </mxCell>
        <mxCell id="X3lnQFaPOgWNIHZg0Lux-530" value="" style="endArrow=none;html=1;rounded=0;entryX=0.5;entryY=1;entryDx=0;entryDy=0;exitX=0.5;exitY=0;exitDx=0;exitDy=0;fillColor=#d5e8d4;strokeColor=#000000;" edge="1" parent="X3lnQFaPOgWNIHZg0Lux-519" source="X3lnQFaPOgWNIHZg0Lux-526" target="X3lnQFaPOgWNIHZg0Lux-522">
          <mxGeometry width="50" height="50" relative="1" as="geometry">
            <mxPoint x="12.778960170264511" y="82.1875" as="sourcePoint" />
            <mxPoint x="42.87929461842505" y="58.75" as="targetPoint" />
          </mxGeometry>
        </mxCell>
        <mxCell id="X3lnQFaPOgWNIHZg0Lux-531" value="" style="endArrow=none;html=1;rounded=0;entryX=0.5;entryY=1;entryDx=0;entryDy=0;fillColor=#d5e8d4;strokeColor=#000000;" edge="1" parent="X3lnQFaPOgWNIHZg0Lux-519" target="X3lnQFaPOgWNIHZg0Lux-524">
          <mxGeometry width="50" height="50" relative="1" as="geometry">
            <mxPoint x="45.17786561264822" y="26.25" as="sourcePoint" />
            <mxPoint x="0.7388263910003019" y="63.4375" as="targetPoint" />
          </mxGeometry>
        </mxCell>
        <mxCell id="X3lnQFaPOgWNIHZg0Lux-532" value="" style="endArrow=none;html=1;rounded=0;entryX=0.5;entryY=1;entryDx=0;entryDy=0;fillColor=#d5e8d4;strokeColor=#000000;" edge="1" parent="X3lnQFaPOgWNIHZg0Lux-519" target="X3lnQFaPOgWNIHZg0Lux-523">
          <mxGeometry width="50" height="50" relative="1" as="geometry">
            <mxPoint x="75.98966251140163" y="25.9375" as="sourcePoint" />
            <mxPoint x="115.12009729401032" y="58.75" as="targetPoint" />
            <Array as="points">
              <mxPoint x="75.0592885375494" y="26.25" />
            </Array>
          </mxGeometry>
        </mxCell>
        <mxCell id="X3lnQFaPOgWNIHZg0Lux-533" value="" style="endArrow=none;html=1;rounded=0;entryX=0.5;entryY=1;entryDx=0;entryDy=0;exitX=0.5;exitY=0;exitDx=0;exitDy=0;fillColor=#d5e8d4;strokeColor=#000000;" edge="1" parent="X3lnQFaPOgWNIHZg0Lux-519" source="X3lnQFaPOgWNIHZg0Lux-525" target="X3lnQFaPOgWNIHZg0Lux-524">
          <mxGeometry width="50" height="50" relative="1" as="geometry">
            <mxPoint x="36.859227728792945" y="77.5" as="sourcePoint" />
            <mxPoint x="66.95956217695348" y="54.0625" as="targetPoint" />
          </mxGeometry>
        </mxCell>
        <mxCell id="X3lnQFaPOgWNIHZg0Lux-534" value="" style="endArrow=none;html=1;rounded=0;entryX=0.5;entryY=1;entryDx=0;entryDy=0;exitX=0.5;exitY=0;exitDx=0;exitDy=0;fillColor=#d5e8d4;strokeColor=#000000;" edge="1" parent="X3lnQFaPOgWNIHZg0Lux-519" source="X3lnQFaPOgWNIHZg0Lux-525" target="X3lnQFaPOgWNIHZg0Lux-523">
          <mxGeometry width="50" height="50" relative="1" as="geometry">
            <mxPoint x="48.899361508057154" y="86.875" as="sourcePoint" />
            <mxPoint x="78.99969595621769" y="63.4375" as="targetPoint" />
          </mxGeometry>
        </mxCell>
        <mxCell id="X3lnQFaPOgWNIHZg0Lux-535" value="" style="endArrow=none;html=1;rounded=0;entryX=0.5;entryY=1;entryDx=0;entryDy=0;exitX=0.5;exitY=0;exitDx=0;exitDy=0;fillColor=#d5e8d4;strokeColor=#000000;" edge="1" parent="X3lnQFaPOgWNIHZg0Lux-519" source="X3lnQFaPOgWNIHZg0Lux-527" target="X3lnQFaPOgWNIHZg0Lux-523">
          <mxGeometry width="50" height="50" relative="1" as="geometry">
            <mxPoint x="42.87929461842505" y="72.8125" as="sourcePoint" />
            <mxPoint x="72.97962906658557" y="49.375" as="targetPoint" />
          </mxGeometry>
        </mxCell>
        <mxCell id="X3lnQFaPOgWNIHZg0Lux-536" value="" style="group" vertex="1" connectable="0" parent="1">
          <mxGeometry x="83" y="514" width="90" height="58" as="geometry" />
        </mxCell>
        <mxCell id="X3lnQFaPOgWNIHZg0Lux-537" value="" style="rounded=1;whiteSpace=wrap;html=1;dashed=1;strokeColor=#97D077;" vertex="1" parent="X3lnQFaPOgWNIHZg0Lux-536">
          <mxGeometry width="90" height="58" as="geometry" />
        </mxCell>
        <mxCell id="X3lnQFaPOgWNIHZg0Lux-538" value="&lt;font style=&quot;font-size: 11px;&quot;&gt;下午茶&lt;/font&gt;" style="text;html=1;strokeColor=none;fillColor=none;align=center;verticalAlign=middle;whiteSpace=wrap;rounded=0;fontSize=8;" vertex="1" parent="X3lnQFaPOgWNIHZg0Lux-536">
          <mxGeometry x="24.189723320158095" y="44.75" width="39.130434782608695" height="6.25" as="geometry" />
        </mxCell>
        <mxCell id="X3lnQFaPOgWNIHZg0Lux-539" value="" style="ellipse;whiteSpace=wrap;html=1;aspect=fixed;fillColor=#d5e8d4;strokeColor=#000000;" vertex="1" parent="X3lnQFaPOgWNIHZg0Lux-536">
          <mxGeometry x="6.758893280632407" y="2.5" width="14.0625" height="14.0625" as="geometry" />
        </mxCell>
        <mxCell id="X3lnQFaPOgWNIHZg0Lux-540" value="" style="ellipse;whiteSpace=wrap;html=1;aspect=fixed;fillColor=#d5e8d4;strokeColor=#000000;" vertex="1" parent="X3lnQFaPOgWNIHZg0Lux-536">
          <mxGeometry x="66.95956217695348" y="2.5" width="14.0625" height="14.0625" as="geometry" />
        </mxCell>
        <mxCell id="X3lnQFaPOgWNIHZg0Lux-541" value="" style="ellipse;whiteSpace=wrap;html=1;aspect=fixed;fillColor=#d5e8d4;strokeColor=#000000;" vertex="1" parent="X3lnQFaPOgWNIHZg0Lux-536">
          <mxGeometry x="36.859227728792945" y="2.5" width="14.0625" height="14.0625" as="geometry" />
        </mxCell>
        <mxCell id="X3lnQFaPOgWNIHZg0Lux-542" value="" style="ellipse;whiteSpace=wrap;html=1;aspect=fixed;fillColor=#d5e8d4;strokeColor=#000000;" vertex="1" parent="X3lnQFaPOgWNIHZg0Lux-536">
          <mxGeometry x="6.758893280632407" y="25.9375" width="14.0625" height="14.0625" as="geometry" />
        </mxCell>
        <mxCell id="X3lnQFaPOgWNIHZg0Lux-543" value="" style="ellipse;whiteSpace=wrap;html=1;aspect=fixed;fillColor=#d5e8d4;strokeColor=#000000;" vertex="1" parent="X3lnQFaPOgWNIHZg0Lux-536">
          <mxGeometry x="66.95956217695348" y="25.9375" width="14.0625" height="14.0625" as="geometry" />
        </mxCell>
        <mxCell id="X3lnQFaPOgWNIHZg0Lux-544" value="" style="ellipse;whiteSpace=wrap;html=1;aspect=fixed;fillColor=#d5e8d4;strokeColor=#000000;" vertex="1" parent="X3lnQFaPOgWNIHZg0Lux-536">
          <mxGeometry x="36.859227728792945" y="25.9375" width="14.0625" height="14.0625" as="geometry" />
        </mxCell>
        <mxCell id="X3lnQFaPOgWNIHZg0Lux-545" value="" style="endArrow=none;html=1;rounded=0;entryX=0.5;entryY=0;entryDx=0;entryDy=0;exitX=0.5;exitY=1;exitDx=0;exitDy=0;fillColor=#d5e8d4;strokeColor=#000000;" edge="1" parent="X3lnQFaPOgWNIHZg0Lux-536" source="X3lnQFaPOgWNIHZg0Lux-539" target="X3lnQFaPOgWNIHZg0Lux-542">
          <mxGeometry width="50" height="50" relative="1" as="geometry">
            <mxPoint x="-29.361508057160236" y="68.125" as="sourcePoint" />
            <mxPoint x="0.7388263910003019" y="44.6875" as="targetPoint" />
          </mxGeometry>
        </mxCell>
        <mxCell id="X3lnQFaPOgWNIHZg0Lux-546" value="" style="endArrow=none;html=1;rounded=0;entryX=0.5;entryY=1;entryDx=0;entryDy=0;exitX=0.5;exitY=0;exitDx=0;exitDy=0;fillColor=#d5e8d4;strokeColor=#000000;" edge="1" parent="X3lnQFaPOgWNIHZg0Lux-536" source="X3lnQFaPOgWNIHZg0Lux-544" target="X3lnQFaPOgWNIHZg0Lux-539">
          <mxGeometry width="50" height="50" relative="1" as="geometry">
            <mxPoint x="12.778960170264511" y="82.1875" as="sourcePoint" />
            <mxPoint x="42.87929461842505" y="58.75" as="targetPoint" />
          </mxGeometry>
        </mxCell>
        <mxCell id="X3lnQFaPOgWNIHZg0Lux-547" value="" style="endArrow=none;html=1;rounded=0;entryX=0.5;entryY=1;entryDx=0;entryDy=0;exitX=0.5;exitY=0;exitDx=0;exitDy=0;fillColor=#d5e8d4;strokeColor=#000000;" edge="1" parent="X3lnQFaPOgWNIHZg0Lux-536" source="X3lnQFaPOgWNIHZg0Lux-543" target="X3lnQFaPOgWNIHZg0Lux-539">
          <mxGeometry width="50" height="50" relative="1" as="geometry">
            <mxPoint x="12.778960170264511" y="82.1875" as="sourcePoint" />
            <mxPoint x="42.87929461842505" y="58.75" as="targetPoint" />
          </mxGeometry>
        </mxCell>
        <mxCell id="X3lnQFaPOgWNIHZg0Lux-548" value="" style="endArrow=none;html=1;rounded=0;entryX=0.5;entryY=1;entryDx=0;entryDy=0;fillColor=#d5e8d4;strokeColor=#000000;" edge="1" parent="X3lnQFaPOgWNIHZg0Lux-536" target="X3lnQFaPOgWNIHZg0Lux-541">
          <mxGeometry width="50" height="50" relative="1" as="geometry">
            <mxPoint x="45.17786561264822" y="26.25" as="sourcePoint" />
            <mxPoint x="0.7388263910003019" y="63.4375" as="targetPoint" />
          </mxGeometry>
        </mxCell>
        <mxCell id="X3lnQFaPOgWNIHZg0Lux-549" value="" style="endArrow=none;html=1;rounded=0;entryX=0.5;entryY=1;entryDx=0;entryDy=0;fillColor=#d5e8d4;strokeColor=#000000;" edge="1" parent="X3lnQFaPOgWNIHZg0Lux-536" target="X3lnQFaPOgWNIHZg0Lux-540">
          <mxGeometry width="50" height="50" relative="1" as="geometry">
            <mxPoint x="75.98966251140163" y="25.9375" as="sourcePoint" />
            <mxPoint x="115.12009729401032" y="58.75" as="targetPoint" />
            <Array as="points">
              <mxPoint x="75.0592885375494" y="26.25" />
            </Array>
          </mxGeometry>
        </mxCell>
        <mxCell id="X3lnQFaPOgWNIHZg0Lux-550" value="" style="endArrow=none;html=1;rounded=0;entryX=0.5;entryY=1;entryDx=0;entryDy=0;exitX=0.5;exitY=0;exitDx=0;exitDy=0;fillColor=#d5e8d4;strokeColor=#000000;" edge="1" parent="X3lnQFaPOgWNIHZg0Lux-536" source="X3lnQFaPOgWNIHZg0Lux-542" target="X3lnQFaPOgWNIHZg0Lux-541">
          <mxGeometry width="50" height="50" relative="1" as="geometry">
            <mxPoint x="36.859227728792945" y="77.5" as="sourcePoint" />
            <mxPoint x="66.95956217695348" y="54.0625" as="targetPoint" />
          </mxGeometry>
        </mxCell>
        <mxCell id="X3lnQFaPOgWNIHZg0Lux-551" value="" style="endArrow=none;html=1;rounded=0;entryX=0.5;entryY=1;entryDx=0;entryDy=0;exitX=0.5;exitY=0;exitDx=0;exitDy=0;fillColor=#d5e8d4;strokeColor=#000000;" edge="1" parent="X3lnQFaPOgWNIHZg0Lux-536" source="X3lnQFaPOgWNIHZg0Lux-542" target="X3lnQFaPOgWNIHZg0Lux-540">
          <mxGeometry width="50" height="50" relative="1" as="geometry">
            <mxPoint x="48.899361508057154" y="86.875" as="sourcePoint" />
            <mxPoint x="78.99969595621769" y="63.4375" as="targetPoint" />
          </mxGeometry>
        </mxCell>
        <mxCell id="X3lnQFaPOgWNIHZg0Lux-552" value="" style="endArrow=none;html=1;rounded=0;entryX=0.5;entryY=1;entryDx=0;entryDy=0;exitX=0.5;exitY=0;exitDx=0;exitDy=0;fillColor=#d5e8d4;strokeColor=#000000;" edge="1" parent="X3lnQFaPOgWNIHZg0Lux-536" source="X3lnQFaPOgWNIHZg0Lux-544" target="X3lnQFaPOgWNIHZg0Lux-540">
          <mxGeometry width="50" height="50" relative="1" as="geometry">
            <mxPoint x="42.87929461842505" y="72.8125" as="sourcePoint" />
            <mxPoint x="72.97962906658557" y="49.375" as="targetPoint" />
          </mxGeometry>
        </mxCell>
        <mxCell id="X3lnQFaPOgWNIHZg0Lux-553" value="" style="group" vertex="1" connectable="0" parent="1">
          <mxGeometry x="177" y="514" width="90" height="58" as="geometry" />
        </mxCell>
        <mxCell id="X3lnQFaPOgWNIHZg0Lux-554" value="" style="rounded=1;whiteSpace=wrap;html=1;dashed=1;strokeColor=#97D077;" vertex="1" parent="X3lnQFaPOgWNIHZg0Lux-553">
          <mxGeometry width="90" height="58" as="geometry" />
        </mxCell>
        <mxCell id="X3lnQFaPOgWNIHZg0Lux-555" value="&lt;font style=&quot;font-size: 11px;&quot;&gt;晚餐&lt;/font&gt;" style="text;html=1;strokeColor=none;fillColor=none;align=center;verticalAlign=middle;whiteSpace=wrap;rounded=0;fontSize=8;" vertex="1" parent="X3lnQFaPOgWNIHZg0Lux-553">
          <mxGeometry x="24.189723320158095" y="44.75" width="39.130434782608695" height="6.25" as="geometry" />
        </mxCell>
        <mxCell id="X3lnQFaPOgWNIHZg0Lux-556" value="" style="ellipse;whiteSpace=wrap;html=1;aspect=fixed;fillColor=#d5e8d4;strokeColor=#000000;" vertex="1" parent="X3lnQFaPOgWNIHZg0Lux-553">
          <mxGeometry x="6.758893280632407" y="2.5" width="14.0625" height="14.0625" as="geometry" />
        </mxCell>
        <mxCell id="X3lnQFaPOgWNIHZg0Lux-557" value="" style="ellipse;whiteSpace=wrap;html=1;aspect=fixed;fillColor=#d5e8d4;strokeColor=#000000;" vertex="1" parent="X3lnQFaPOgWNIHZg0Lux-553">
          <mxGeometry x="66.95956217695348" y="2.5" width="14.0625" height="14.0625" as="geometry" />
        </mxCell>
        <mxCell id="X3lnQFaPOgWNIHZg0Lux-558" value="" style="ellipse;whiteSpace=wrap;html=1;aspect=fixed;fillColor=#d5e8d4;strokeColor=#000000;" vertex="1" parent="X3lnQFaPOgWNIHZg0Lux-553">
          <mxGeometry x="36.859227728792945" y="2.5" width="14.0625" height="14.0625" as="geometry" />
        </mxCell>
        <mxCell id="X3lnQFaPOgWNIHZg0Lux-559" value="" style="ellipse;whiteSpace=wrap;html=1;aspect=fixed;fillColor=#d5e8d4;strokeColor=#000000;" vertex="1" parent="X3lnQFaPOgWNIHZg0Lux-553">
          <mxGeometry x="6.758893280632407" y="25.9375" width="14.0625" height="14.0625" as="geometry" />
        </mxCell>
        <mxCell id="X3lnQFaPOgWNIHZg0Lux-560" value="" style="ellipse;whiteSpace=wrap;html=1;aspect=fixed;fillColor=#d5e8d4;strokeColor=#000000;" vertex="1" parent="X3lnQFaPOgWNIHZg0Lux-553">
          <mxGeometry x="66.95956217695348" y="25.9375" width="14.0625" height="14.0625" as="geometry" />
        </mxCell>
        <mxCell id="X3lnQFaPOgWNIHZg0Lux-561" value="" style="ellipse;whiteSpace=wrap;html=1;aspect=fixed;fillColor=#d5e8d4;strokeColor=#000000;" vertex="1" parent="X3lnQFaPOgWNIHZg0Lux-553">
          <mxGeometry x="36.859227728792945" y="25.9375" width="14.0625" height="14.0625" as="geometry" />
        </mxCell>
        <mxCell id="X3lnQFaPOgWNIHZg0Lux-562" value="" style="endArrow=none;html=1;rounded=0;entryX=0.5;entryY=0;entryDx=0;entryDy=0;exitX=0.5;exitY=1;exitDx=0;exitDy=0;fillColor=#d5e8d4;strokeColor=#000000;" edge="1" parent="X3lnQFaPOgWNIHZg0Lux-553" source="X3lnQFaPOgWNIHZg0Lux-556" target="X3lnQFaPOgWNIHZg0Lux-559">
          <mxGeometry width="50" height="50" relative="1" as="geometry">
            <mxPoint x="-29.361508057160236" y="68.125" as="sourcePoint" />
            <mxPoint x="0.7388263910003019" y="44.6875" as="targetPoint" />
          </mxGeometry>
        </mxCell>
        <mxCell id="X3lnQFaPOgWNIHZg0Lux-563" value="" style="endArrow=none;html=1;rounded=0;entryX=0.5;entryY=1;entryDx=0;entryDy=0;exitX=0.5;exitY=0;exitDx=0;exitDy=0;fillColor=#d5e8d4;strokeColor=#000000;" edge="1" parent="X3lnQFaPOgWNIHZg0Lux-553" source="X3lnQFaPOgWNIHZg0Lux-561" target="X3lnQFaPOgWNIHZg0Lux-556">
          <mxGeometry width="50" height="50" relative="1" as="geometry">
            <mxPoint x="12.778960170264511" y="82.1875" as="sourcePoint" />
            <mxPoint x="42.87929461842505" y="58.75" as="targetPoint" />
          </mxGeometry>
        </mxCell>
        <mxCell id="X3lnQFaPOgWNIHZg0Lux-564" value="" style="endArrow=none;html=1;rounded=0;entryX=0.5;entryY=1;entryDx=0;entryDy=0;exitX=0.5;exitY=0;exitDx=0;exitDy=0;fillColor=#d5e8d4;strokeColor=#000000;" edge="1" parent="X3lnQFaPOgWNIHZg0Lux-553" source="X3lnQFaPOgWNIHZg0Lux-560" target="X3lnQFaPOgWNIHZg0Lux-556">
          <mxGeometry width="50" height="50" relative="1" as="geometry">
            <mxPoint x="12.778960170264511" y="82.1875" as="sourcePoint" />
            <mxPoint x="42.87929461842505" y="58.75" as="targetPoint" />
          </mxGeometry>
        </mxCell>
        <mxCell id="X3lnQFaPOgWNIHZg0Lux-565" value="" style="endArrow=none;html=1;rounded=0;entryX=0.5;entryY=1;entryDx=0;entryDy=0;fillColor=#d5e8d4;strokeColor=#000000;" edge="1" parent="X3lnQFaPOgWNIHZg0Lux-553" target="X3lnQFaPOgWNIHZg0Lux-558">
          <mxGeometry width="50" height="50" relative="1" as="geometry">
            <mxPoint x="45.17786561264822" y="26.25" as="sourcePoint" />
            <mxPoint x="0.7388263910003019" y="63.4375" as="targetPoint" />
          </mxGeometry>
        </mxCell>
        <mxCell id="X3lnQFaPOgWNIHZg0Lux-566" value="" style="endArrow=none;html=1;rounded=0;entryX=0.5;entryY=1;entryDx=0;entryDy=0;fillColor=#d5e8d4;strokeColor=#000000;" edge="1" parent="X3lnQFaPOgWNIHZg0Lux-553" target="X3lnQFaPOgWNIHZg0Lux-557">
          <mxGeometry width="50" height="50" relative="1" as="geometry">
            <mxPoint x="75.98966251140163" y="25.9375" as="sourcePoint" />
            <mxPoint x="115.12009729401032" y="58.75" as="targetPoint" />
            <Array as="points">
              <mxPoint x="75.0592885375494" y="26.25" />
            </Array>
          </mxGeometry>
        </mxCell>
        <mxCell id="X3lnQFaPOgWNIHZg0Lux-567" value="" style="endArrow=none;html=1;rounded=0;entryX=0.5;entryY=1;entryDx=0;entryDy=0;exitX=0.5;exitY=0;exitDx=0;exitDy=0;fillColor=#d5e8d4;strokeColor=#000000;" edge="1" parent="X3lnQFaPOgWNIHZg0Lux-553" source="X3lnQFaPOgWNIHZg0Lux-559" target="X3lnQFaPOgWNIHZg0Lux-558">
          <mxGeometry width="50" height="50" relative="1" as="geometry">
            <mxPoint x="36.859227728792945" y="77.5" as="sourcePoint" />
            <mxPoint x="66.95956217695348" y="54.0625" as="targetPoint" />
          </mxGeometry>
        </mxCell>
        <mxCell id="X3lnQFaPOgWNIHZg0Lux-568" value="" style="endArrow=none;html=1;rounded=0;entryX=0.5;entryY=1;entryDx=0;entryDy=0;exitX=0.5;exitY=0;exitDx=0;exitDy=0;fillColor=#d5e8d4;strokeColor=#000000;" edge="1" parent="X3lnQFaPOgWNIHZg0Lux-553" source="X3lnQFaPOgWNIHZg0Lux-559" target="X3lnQFaPOgWNIHZg0Lux-557">
          <mxGeometry width="50" height="50" relative="1" as="geometry">
            <mxPoint x="48.899361508057154" y="86.875" as="sourcePoint" />
            <mxPoint x="78.99969595621769" y="63.4375" as="targetPoint" />
          </mxGeometry>
        </mxCell>
        <mxCell id="X3lnQFaPOgWNIHZg0Lux-569" value="" style="endArrow=none;html=1;rounded=0;entryX=0.5;entryY=1;entryDx=0;entryDy=0;exitX=0.5;exitY=0;exitDx=0;exitDy=0;fillColor=#d5e8d4;strokeColor=#000000;" edge="1" parent="X3lnQFaPOgWNIHZg0Lux-553" source="X3lnQFaPOgWNIHZg0Lux-561" target="X3lnQFaPOgWNIHZg0Lux-557">
          <mxGeometry width="50" height="50" relative="1" as="geometry">
            <mxPoint x="42.87929461842505" y="72.8125" as="sourcePoint" />
            <mxPoint x="72.97962906658557" y="49.375" as="targetPoint" />
          </mxGeometry>
        </mxCell>
        <mxCell id="X3lnQFaPOgWNIHZg0Lux-570" value="" style="group" vertex="1" connectable="0" parent="1">
          <mxGeometry x="273" y="514" width="90" height="58" as="geometry" />
        </mxCell>
        <mxCell id="X3lnQFaPOgWNIHZg0Lux-571" value="" style="rounded=1;whiteSpace=wrap;html=1;dashed=1;strokeColor=#97D077;" vertex="1" parent="X3lnQFaPOgWNIHZg0Lux-570">
          <mxGeometry width="90" height="58" as="geometry" />
        </mxCell>
        <mxCell id="X3lnQFaPOgWNIHZg0Lux-572" value="&lt;font style=&quot;font-size: 11px;&quot;&gt;夜宵&lt;/font&gt;" style="text;html=1;strokeColor=none;fillColor=none;align=center;verticalAlign=middle;whiteSpace=wrap;rounded=0;fontSize=8;" vertex="1" parent="X3lnQFaPOgWNIHZg0Lux-570">
          <mxGeometry x="24.189723320158095" y="44.75" width="39.130434782608695" height="6.25" as="geometry" />
        </mxCell>
        <mxCell id="X3lnQFaPOgWNIHZg0Lux-573" value="" style="ellipse;whiteSpace=wrap;html=1;aspect=fixed;fillColor=#d5e8d4;strokeColor=#000000;" vertex="1" parent="X3lnQFaPOgWNIHZg0Lux-570">
          <mxGeometry x="6.758893280632407" y="2.5" width="14.0625" height="14.0625" as="geometry" />
        </mxCell>
        <mxCell id="X3lnQFaPOgWNIHZg0Lux-574" value="" style="ellipse;whiteSpace=wrap;html=1;aspect=fixed;fillColor=#d5e8d4;strokeColor=#000000;" vertex="1" parent="X3lnQFaPOgWNIHZg0Lux-570">
          <mxGeometry x="66.95956217695348" y="2.5" width="14.0625" height="14.0625" as="geometry" />
        </mxCell>
        <mxCell id="X3lnQFaPOgWNIHZg0Lux-575" value="" style="ellipse;whiteSpace=wrap;html=1;aspect=fixed;fillColor=#d5e8d4;strokeColor=#000000;" vertex="1" parent="X3lnQFaPOgWNIHZg0Lux-570">
          <mxGeometry x="36.859227728792945" y="2.5" width="14.0625" height="14.0625" as="geometry" />
        </mxCell>
        <mxCell id="X3lnQFaPOgWNIHZg0Lux-576" value="" style="ellipse;whiteSpace=wrap;html=1;aspect=fixed;fillColor=#d5e8d4;strokeColor=#000000;" vertex="1" parent="X3lnQFaPOgWNIHZg0Lux-570">
          <mxGeometry x="6.758893280632407" y="25.9375" width="14.0625" height="14.0625" as="geometry" />
        </mxCell>
        <mxCell id="X3lnQFaPOgWNIHZg0Lux-577" value="" style="ellipse;whiteSpace=wrap;html=1;aspect=fixed;fillColor=#d5e8d4;strokeColor=#000000;" vertex="1" parent="X3lnQFaPOgWNIHZg0Lux-570">
          <mxGeometry x="66.95956217695348" y="25.9375" width="14.0625" height="14.0625" as="geometry" />
        </mxCell>
        <mxCell id="X3lnQFaPOgWNIHZg0Lux-578" value="" style="ellipse;whiteSpace=wrap;html=1;aspect=fixed;fillColor=#d5e8d4;strokeColor=#000000;" vertex="1" parent="X3lnQFaPOgWNIHZg0Lux-570">
          <mxGeometry x="36.859227728792945" y="25.9375" width="14.0625" height="14.0625" as="geometry" />
        </mxCell>
        <mxCell id="X3lnQFaPOgWNIHZg0Lux-579" value="" style="endArrow=none;html=1;rounded=0;entryX=0.5;entryY=0;entryDx=0;entryDy=0;exitX=0.5;exitY=1;exitDx=0;exitDy=0;fillColor=#d5e8d4;strokeColor=#000000;" edge="1" parent="X3lnQFaPOgWNIHZg0Lux-570" source="X3lnQFaPOgWNIHZg0Lux-573" target="X3lnQFaPOgWNIHZg0Lux-576">
          <mxGeometry width="50" height="50" relative="1" as="geometry">
            <mxPoint x="-29.361508057160236" y="68.125" as="sourcePoint" />
            <mxPoint x="0.7388263910003019" y="44.6875" as="targetPoint" />
          </mxGeometry>
        </mxCell>
        <mxCell id="X3lnQFaPOgWNIHZg0Lux-580" value="" style="endArrow=none;html=1;rounded=0;entryX=0.5;entryY=1;entryDx=0;entryDy=0;exitX=0.5;exitY=0;exitDx=0;exitDy=0;fillColor=#d5e8d4;strokeColor=#000000;" edge="1" parent="X3lnQFaPOgWNIHZg0Lux-570" source="X3lnQFaPOgWNIHZg0Lux-578" target="X3lnQFaPOgWNIHZg0Lux-573">
          <mxGeometry width="50" height="50" relative="1" as="geometry">
            <mxPoint x="12.778960170264511" y="82.1875" as="sourcePoint" />
            <mxPoint x="42.87929461842505" y="58.75" as="targetPoint" />
          </mxGeometry>
        </mxCell>
        <mxCell id="X3lnQFaPOgWNIHZg0Lux-581" value="" style="endArrow=none;html=1;rounded=0;entryX=0.5;entryY=1;entryDx=0;entryDy=0;exitX=0.5;exitY=0;exitDx=0;exitDy=0;fillColor=#d5e8d4;strokeColor=#000000;" edge="1" parent="X3lnQFaPOgWNIHZg0Lux-570" source="X3lnQFaPOgWNIHZg0Lux-577" target="X3lnQFaPOgWNIHZg0Lux-573">
          <mxGeometry width="50" height="50" relative="1" as="geometry">
            <mxPoint x="12.778960170264511" y="82.1875" as="sourcePoint" />
            <mxPoint x="42.87929461842505" y="58.75" as="targetPoint" />
          </mxGeometry>
        </mxCell>
        <mxCell id="X3lnQFaPOgWNIHZg0Lux-582" value="" style="endArrow=none;html=1;rounded=0;entryX=0.5;entryY=1;entryDx=0;entryDy=0;fillColor=#d5e8d4;strokeColor=#000000;" edge="1" parent="X3lnQFaPOgWNIHZg0Lux-570" target="X3lnQFaPOgWNIHZg0Lux-575">
          <mxGeometry width="50" height="50" relative="1" as="geometry">
            <mxPoint x="45.17786561264822" y="26.25" as="sourcePoint" />
            <mxPoint x="0.7388263910003019" y="63.4375" as="targetPoint" />
          </mxGeometry>
        </mxCell>
        <mxCell id="X3lnQFaPOgWNIHZg0Lux-583" value="" style="endArrow=none;html=1;rounded=0;entryX=0.5;entryY=1;entryDx=0;entryDy=0;fillColor=#d5e8d4;strokeColor=#000000;" edge="1" parent="X3lnQFaPOgWNIHZg0Lux-570" target="X3lnQFaPOgWNIHZg0Lux-574">
          <mxGeometry width="50" height="50" relative="1" as="geometry">
            <mxPoint x="75.98966251140163" y="25.9375" as="sourcePoint" />
            <mxPoint x="115.12009729401032" y="58.75" as="targetPoint" />
            <Array as="points">
              <mxPoint x="75.0592885375494" y="26.25" />
            </Array>
          </mxGeometry>
        </mxCell>
        <mxCell id="X3lnQFaPOgWNIHZg0Lux-584" value="" style="endArrow=none;html=1;rounded=0;entryX=0.5;entryY=1;entryDx=0;entryDy=0;exitX=0.5;exitY=0;exitDx=0;exitDy=0;fillColor=#d5e8d4;strokeColor=#000000;" edge="1" parent="X3lnQFaPOgWNIHZg0Lux-570" source="X3lnQFaPOgWNIHZg0Lux-576" target="X3lnQFaPOgWNIHZg0Lux-575">
          <mxGeometry width="50" height="50" relative="1" as="geometry">
            <mxPoint x="36.859227728792945" y="77.5" as="sourcePoint" />
            <mxPoint x="66.95956217695348" y="54.0625" as="targetPoint" />
          </mxGeometry>
        </mxCell>
        <mxCell id="X3lnQFaPOgWNIHZg0Lux-585" value="" style="endArrow=none;html=1;rounded=0;entryX=0.5;entryY=1;entryDx=0;entryDy=0;exitX=0.5;exitY=0;exitDx=0;exitDy=0;fillColor=#d5e8d4;strokeColor=#000000;" edge="1" parent="X3lnQFaPOgWNIHZg0Lux-570" source="X3lnQFaPOgWNIHZg0Lux-576" target="X3lnQFaPOgWNIHZg0Lux-574">
          <mxGeometry width="50" height="50" relative="1" as="geometry">
            <mxPoint x="48.899361508057154" y="86.875" as="sourcePoint" />
            <mxPoint x="78.99969595621769" y="63.4375" as="targetPoint" />
          </mxGeometry>
        </mxCell>
        <mxCell id="X3lnQFaPOgWNIHZg0Lux-586" value="" style="endArrow=none;html=1;rounded=0;entryX=0.5;entryY=1;entryDx=0;entryDy=0;exitX=0.5;exitY=0;exitDx=0;exitDy=0;fillColor=#d5e8d4;strokeColor=#000000;" edge="1" parent="X3lnQFaPOgWNIHZg0Lux-570" source="X3lnQFaPOgWNIHZg0Lux-578" target="X3lnQFaPOgWNIHZg0Lux-574">
          <mxGeometry width="50" height="50" relative="1" as="geometry">
            <mxPoint x="42.87929461842505" y="72.8125" as="sourcePoint" />
            <mxPoint x="72.97962906658557" y="49.375" as="targetPoint" />
          </mxGeometry>
        </mxCell>
        <mxCell id="X3lnQFaPOgWNIHZg0Lux-587" value="" style="group" vertex="1" connectable="0" parent="1">
          <mxGeometry x="-110" y="654" width="90" height="58" as="geometry" />
        </mxCell>
        <mxCell id="X3lnQFaPOgWNIHZg0Lux-219" value="" style="rounded=1;whiteSpace=wrap;html=1;dashed=1;strokeColor=#97D077;" vertex="1" parent="X3lnQFaPOgWNIHZg0Lux-587">
          <mxGeometry width="90" height="58" as="geometry" />
        </mxCell>
        <mxCell id="X3lnQFaPOgWNIHZg0Lux-220" value="" style="group" vertex="1" connectable="0" parent="X3lnQFaPOgWNIHZg0Lux-587">
          <mxGeometry x="6.758893280632407" y="2.5" width="78.26086956521739" height="37.5" as="geometry" />
        </mxCell>
        <mxCell id="X3lnQFaPOgWNIHZg0Lux-221" value="" style="ellipse;whiteSpace=wrap;html=1;aspect=fixed;fillColor=#ffcc99;strokeColor=#36393d;" vertex="1" parent="X3lnQFaPOgWNIHZg0Lux-220">
          <mxGeometry width="14.0625" height="14.0625" as="geometry" />
        </mxCell>
        <mxCell id="X3lnQFaPOgWNIHZg0Lux-222" value="" style="ellipse;whiteSpace=wrap;html=1;aspect=fixed;fillColor=#ffcc99;strokeColor=#36393d;" vertex="1" parent="X3lnQFaPOgWNIHZg0Lux-220">
          <mxGeometry x="60.20066889632107" width="14.0625" height="14.0625" as="geometry" />
        </mxCell>
        <mxCell id="X3lnQFaPOgWNIHZg0Lux-223" value="" style="ellipse;whiteSpace=wrap;html=1;aspect=fixed;fillColor=#ffcc99;strokeColor=#36393d;" vertex="1" parent="X3lnQFaPOgWNIHZg0Lux-220">
          <mxGeometry x="30.100334448160535" width="14.0625" height="14.0625" as="geometry" />
        </mxCell>
        <mxCell id="X3lnQFaPOgWNIHZg0Lux-224" value="" style="ellipse;whiteSpace=wrap;html=1;aspect=fixed;fillColor=#ffcc99;strokeColor=#36393d;" vertex="1" parent="X3lnQFaPOgWNIHZg0Lux-220">
          <mxGeometry y="23.4375" width="14.0625" height="14.0625" as="geometry" />
        </mxCell>
        <mxCell id="X3lnQFaPOgWNIHZg0Lux-225" value="" style="ellipse;whiteSpace=wrap;html=1;aspect=fixed;fillColor=#ffcc99;strokeColor=#36393d;" vertex="1" parent="X3lnQFaPOgWNIHZg0Lux-220">
          <mxGeometry x="60.20066889632107" y="23.4375" width="14.0625" height="14.0625" as="geometry" />
        </mxCell>
        <mxCell id="X3lnQFaPOgWNIHZg0Lux-226" value="" style="ellipse;whiteSpace=wrap;html=1;aspect=fixed;fillColor=#ffcc99;strokeColor=#36393d;" vertex="1" parent="X3lnQFaPOgWNIHZg0Lux-220">
          <mxGeometry x="30.100334448160535" y="23.4375" width="14.0625" height="14.0625" as="geometry" />
        </mxCell>
        <mxCell id="X3lnQFaPOgWNIHZg0Lux-227" value="" style="endArrow=none;html=1;rounded=0;entryX=0.5;entryY=0;entryDx=0;entryDy=0;exitX=0.5;exitY=1;exitDx=0;exitDy=0;fillColor=#ffcc99;strokeColor=#36393d;" edge="1" parent="X3lnQFaPOgWNIHZg0Lux-220" source="X3lnQFaPOgWNIHZg0Lux-221" target="X3lnQFaPOgWNIHZg0Lux-224">
          <mxGeometry width="50" height="50" relative="1" as="geometry">
            <mxPoint x="-36.12040133779264" y="65.625" as="sourcePoint" />
            <mxPoint x="-6.0200668896321075" y="42.1875" as="targetPoint" />
          </mxGeometry>
        </mxCell>
        <mxCell id="X3lnQFaPOgWNIHZg0Lux-228" value="" style="endArrow=none;html=1;rounded=0;entryX=0.5;entryY=1;entryDx=0;entryDy=0;exitX=0.5;exitY=0;exitDx=0;exitDy=0;fillColor=#ffcc99;strokeColor=#36393d;" edge="1" parent="X3lnQFaPOgWNIHZg0Lux-220" source="X3lnQFaPOgWNIHZg0Lux-226" target="X3lnQFaPOgWNIHZg0Lux-221">
          <mxGeometry width="50" height="50" relative="1" as="geometry">
            <mxPoint x="6.0200668896321075" y="79.6875" as="sourcePoint" />
            <mxPoint x="36.12040133779264" y="56.25" as="targetPoint" />
          </mxGeometry>
        </mxCell>
        <mxCell id="X3lnQFaPOgWNIHZg0Lux-229" value="" style="endArrow=none;html=1;rounded=0;entryX=0.5;entryY=1;entryDx=0;entryDy=0;exitX=0.5;exitY=0;exitDx=0;exitDy=0;fillColor=#ffcc99;strokeColor=#36393d;" edge="1" parent="X3lnQFaPOgWNIHZg0Lux-220" source="X3lnQFaPOgWNIHZg0Lux-225" target="X3lnQFaPOgWNIHZg0Lux-221">
          <mxGeometry width="50" height="50" relative="1" as="geometry">
            <mxPoint x="6.0200668896321075" y="79.6875" as="sourcePoint" />
            <mxPoint x="36.12040133779264" y="56.25" as="targetPoint" />
          </mxGeometry>
        </mxCell>
        <mxCell id="X3lnQFaPOgWNIHZg0Lux-230" value="" style="endArrow=none;html=1;rounded=0;entryX=0.5;entryY=1;entryDx=0;entryDy=0;fillColor=#ffcc99;strokeColor=#36393d;" edge="1" parent="X3lnQFaPOgWNIHZg0Lux-220" target="X3lnQFaPOgWNIHZg0Lux-223">
          <mxGeometry width="50" height="50" relative="1" as="geometry">
            <mxPoint x="38.41897233201581" y="23.75" as="sourcePoint" />
            <mxPoint x="-6.0200668896321075" y="60.9375" as="targetPoint" />
          </mxGeometry>
        </mxCell>
        <mxCell id="X3lnQFaPOgWNIHZg0Lux-231" value="" style="endArrow=none;html=1;rounded=0;entryX=0.5;entryY=1;entryDx=0;entryDy=0;fillColor=#ffcc99;strokeColor=#36393d;" edge="1" parent="X3lnQFaPOgWNIHZg0Lux-220" target="X3lnQFaPOgWNIHZg0Lux-222">
          <mxGeometry width="50" height="50" relative="1" as="geometry">
            <mxPoint x="69.23076923076923" y="23.4375" as="sourcePoint" />
            <mxPoint x="108.36120401337791" y="56.25" as="targetPoint" />
            <Array as="points">
              <mxPoint x="68.300395256917" y="23.75" />
            </Array>
          </mxGeometry>
        </mxCell>
        <mxCell id="X3lnQFaPOgWNIHZg0Lux-232" value="" style="endArrow=none;html=1;rounded=0;entryX=0.5;entryY=1;entryDx=0;entryDy=0;exitX=0.5;exitY=0;exitDx=0;exitDy=0;fillColor=#ffcc99;strokeColor=#36393d;" edge="1" parent="X3lnQFaPOgWNIHZg0Lux-220" source="X3lnQFaPOgWNIHZg0Lux-224" target="X3lnQFaPOgWNIHZg0Lux-223">
          <mxGeometry width="50" height="50" relative="1" as="geometry">
            <mxPoint x="30.100334448160535" y="75" as="sourcePoint" />
            <mxPoint x="60.20066889632107" y="51.5625" as="targetPoint" />
          </mxGeometry>
        </mxCell>
        <mxCell id="X3lnQFaPOgWNIHZg0Lux-233" value="" style="endArrow=none;html=1;rounded=0;entryX=0.5;entryY=1;entryDx=0;entryDy=0;exitX=0.5;exitY=0;exitDx=0;exitDy=0;fillColor=#ffcc99;strokeColor=#36393d;" edge="1" parent="X3lnQFaPOgWNIHZg0Lux-220" source="X3lnQFaPOgWNIHZg0Lux-224" target="X3lnQFaPOgWNIHZg0Lux-222">
          <mxGeometry width="50" height="50" relative="1" as="geometry">
            <mxPoint x="42.14046822742475" y="84.375" as="sourcePoint" />
            <mxPoint x="72.24080267558529" y="60.9375" as="targetPoint" />
          </mxGeometry>
        </mxCell>
        <mxCell id="X3lnQFaPOgWNIHZg0Lux-234" value="" style="endArrow=none;html=1;rounded=0;entryX=0.5;entryY=1;entryDx=0;entryDy=0;exitX=0.5;exitY=0;exitDx=0;exitDy=0;fillColor=#ffcc99;strokeColor=#36393d;" edge="1" parent="X3lnQFaPOgWNIHZg0Lux-220" source="X3lnQFaPOgWNIHZg0Lux-226" target="X3lnQFaPOgWNIHZg0Lux-222">
          <mxGeometry width="50" height="50" relative="1" as="geometry">
            <mxPoint x="36.12040133779264" y="70.3125" as="sourcePoint" />
            <mxPoint x="66.22073578595318" y="46.875" as="targetPoint" />
          </mxGeometry>
        </mxCell>
        <mxCell id="X3lnQFaPOgWNIHZg0Lux-235" value="住宿区" style="text;html=1;strokeColor=none;fillColor=none;align=center;verticalAlign=middle;whiteSpace=wrap;rounded=0;" vertex="1" parent="X3lnQFaPOgWNIHZg0Lux-587">
          <mxGeometry x="24.189723320158095" y="45.75" width="39.130434782608695" height="6.25" as="geometry" />
        </mxCell>
        <mxCell id="X3lnQFaPOgWNIHZg0Lux-606" value="" style="group" vertex="1" connectable="0" parent="1">
          <mxGeometry x="-15" y="654" width="90" height="58" as="geometry" />
        </mxCell>
        <mxCell id="X3lnQFaPOgWNIHZg0Lux-607" value="" style="rounded=1;whiteSpace=wrap;html=1;dashed=1;strokeColor=#97D077;" vertex="1" parent="X3lnQFaPOgWNIHZg0Lux-606">
          <mxGeometry width="90" height="58" as="geometry" />
        </mxCell>
        <mxCell id="X3lnQFaPOgWNIHZg0Lux-608" value="" style="group" vertex="1" connectable="0" parent="X3lnQFaPOgWNIHZg0Lux-606">
          <mxGeometry x="6.758893280632407" y="2.5" width="78.26086956521739" height="37.5" as="geometry" />
        </mxCell>
        <mxCell id="X3lnQFaPOgWNIHZg0Lux-609" value="" style="ellipse;whiteSpace=wrap;html=1;aspect=fixed;fillColor=#ffcc99;strokeColor=#36393d;" vertex="1" parent="X3lnQFaPOgWNIHZg0Lux-608">
          <mxGeometry width="14.0625" height="14.0625" as="geometry" />
        </mxCell>
        <mxCell id="X3lnQFaPOgWNIHZg0Lux-610" value="" style="ellipse;whiteSpace=wrap;html=1;aspect=fixed;fillColor=#ffcc99;strokeColor=#36393d;" vertex="1" parent="X3lnQFaPOgWNIHZg0Lux-608">
          <mxGeometry x="60.20066889632107" width="14.0625" height="14.0625" as="geometry" />
        </mxCell>
        <mxCell id="X3lnQFaPOgWNIHZg0Lux-611" value="" style="ellipse;whiteSpace=wrap;html=1;aspect=fixed;fillColor=#ffcc99;strokeColor=#36393d;" vertex="1" parent="X3lnQFaPOgWNIHZg0Lux-608">
          <mxGeometry x="30.100334448160535" width="14.0625" height="14.0625" as="geometry" />
        </mxCell>
        <mxCell id="X3lnQFaPOgWNIHZg0Lux-612" value="" style="ellipse;whiteSpace=wrap;html=1;aspect=fixed;fillColor=#ffcc99;strokeColor=#36393d;" vertex="1" parent="X3lnQFaPOgWNIHZg0Lux-608">
          <mxGeometry y="23.4375" width="14.0625" height="14.0625" as="geometry" />
        </mxCell>
        <mxCell id="X3lnQFaPOgWNIHZg0Lux-613" value="" style="ellipse;whiteSpace=wrap;html=1;aspect=fixed;fillColor=#ffcc99;strokeColor=#36393d;" vertex="1" parent="X3lnQFaPOgWNIHZg0Lux-608">
          <mxGeometry x="60.20066889632107" y="23.4375" width="14.0625" height="14.0625" as="geometry" />
        </mxCell>
        <mxCell id="X3lnQFaPOgWNIHZg0Lux-614" value="" style="ellipse;whiteSpace=wrap;html=1;aspect=fixed;fillColor=#ffcc99;strokeColor=#36393d;" vertex="1" parent="X3lnQFaPOgWNIHZg0Lux-608">
          <mxGeometry x="30.100334448160535" y="23.4375" width="14.0625" height="14.0625" as="geometry" />
        </mxCell>
        <mxCell id="X3lnQFaPOgWNIHZg0Lux-615" value="" style="endArrow=none;html=1;rounded=0;entryX=0.5;entryY=0;entryDx=0;entryDy=0;exitX=0.5;exitY=1;exitDx=0;exitDy=0;fillColor=#ffcc99;strokeColor=#36393d;" edge="1" parent="X3lnQFaPOgWNIHZg0Lux-608" source="X3lnQFaPOgWNIHZg0Lux-609" target="X3lnQFaPOgWNIHZg0Lux-612">
          <mxGeometry width="50" height="50" relative="1" as="geometry">
            <mxPoint x="-36.12040133779264" y="65.625" as="sourcePoint" />
            <mxPoint x="-6.0200668896321075" y="42.1875" as="targetPoint" />
          </mxGeometry>
        </mxCell>
        <mxCell id="X3lnQFaPOgWNIHZg0Lux-616" value="" style="endArrow=none;html=1;rounded=0;entryX=0.5;entryY=1;entryDx=0;entryDy=0;exitX=0.5;exitY=0;exitDx=0;exitDy=0;fillColor=#ffcc99;strokeColor=#36393d;" edge="1" parent="X3lnQFaPOgWNIHZg0Lux-608" source="X3lnQFaPOgWNIHZg0Lux-614" target="X3lnQFaPOgWNIHZg0Lux-609">
          <mxGeometry width="50" height="50" relative="1" as="geometry">
            <mxPoint x="6.0200668896321075" y="79.6875" as="sourcePoint" />
            <mxPoint x="36.12040133779264" y="56.25" as="targetPoint" />
          </mxGeometry>
        </mxCell>
        <mxCell id="X3lnQFaPOgWNIHZg0Lux-617" value="" style="endArrow=none;html=1;rounded=0;entryX=0.5;entryY=1;entryDx=0;entryDy=0;exitX=0.5;exitY=0;exitDx=0;exitDy=0;fillColor=#ffcc99;strokeColor=#36393d;" edge="1" parent="X3lnQFaPOgWNIHZg0Lux-608" source="X3lnQFaPOgWNIHZg0Lux-613" target="X3lnQFaPOgWNIHZg0Lux-609">
          <mxGeometry width="50" height="50" relative="1" as="geometry">
            <mxPoint x="6.0200668896321075" y="79.6875" as="sourcePoint" />
            <mxPoint x="36.12040133779264" y="56.25" as="targetPoint" />
          </mxGeometry>
        </mxCell>
        <mxCell id="X3lnQFaPOgWNIHZg0Lux-618" value="" style="endArrow=none;html=1;rounded=0;entryX=0.5;entryY=1;entryDx=0;entryDy=0;fillColor=#ffcc99;strokeColor=#36393d;" edge="1" parent="X3lnQFaPOgWNIHZg0Lux-608" target="X3lnQFaPOgWNIHZg0Lux-611">
          <mxGeometry width="50" height="50" relative="1" as="geometry">
            <mxPoint x="38.41897233201581" y="23.75" as="sourcePoint" />
            <mxPoint x="-6.0200668896321075" y="60.9375" as="targetPoint" />
          </mxGeometry>
        </mxCell>
        <mxCell id="X3lnQFaPOgWNIHZg0Lux-619" value="" style="endArrow=none;html=1;rounded=0;entryX=0.5;entryY=1;entryDx=0;entryDy=0;fillColor=#ffcc99;strokeColor=#36393d;" edge="1" parent="X3lnQFaPOgWNIHZg0Lux-608" target="X3lnQFaPOgWNIHZg0Lux-610">
          <mxGeometry width="50" height="50" relative="1" as="geometry">
            <mxPoint x="69.23076923076923" y="23.4375" as="sourcePoint" />
            <mxPoint x="108.36120401337791" y="56.25" as="targetPoint" />
            <Array as="points">
              <mxPoint x="68.300395256917" y="23.75" />
            </Array>
          </mxGeometry>
        </mxCell>
        <mxCell id="X3lnQFaPOgWNIHZg0Lux-620" value="" style="endArrow=none;html=1;rounded=0;entryX=0.5;entryY=1;entryDx=0;entryDy=0;exitX=0.5;exitY=0;exitDx=0;exitDy=0;fillColor=#ffcc99;strokeColor=#36393d;" edge="1" parent="X3lnQFaPOgWNIHZg0Lux-608" source="X3lnQFaPOgWNIHZg0Lux-612" target="X3lnQFaPOgWNIHZg0Lux-611">
          <mxGeometry width="50" height="50" relative="1" as="geometry">
            <mxPoint x="30.100334448160535" y="75" as="sourcePoint" />
            <mxPoint x="60.20066889632107" y="51.5625" as="targetPoint" />
          </mxGeometry>
        </mxCell>
        <mxCell id="X3lnQFaPOgWNIHZg0Lux-621" value="" style="endArrow=none;html=1;rounded=0;entryX=0.5;entryY=1;entryDx=0;entryDy=0;exitX=0.5;exitY=0;exitDx=0;exitDy=0;fillColor=#ffcc99;strokeColor=#36393d;" edge="1" parent="X3lnQFaPOgWNIHZg0Lux-608" source="X3lnQFaPOgWNIHZg0Lux-612" target="X3lnQFaPOgWNIHZg0Lux-610">
          <mxGeometry width="50" height="50" relative="1" as="geometry">
            <mxPoint x="42.14046822742475" y="84.375" as="sourcePoint" />
            <mxPoint x="72.24080267558529" y="60.9375" as="targetPoint" />
          </mxGeometry>
        </mxCell>
        <mxCell id="X3lnQFaPOgWNIHZg0Lux-622" value="" style="endArrow=none;html=1;rounded=0;entryX=0.5;entryY=1;entryDx=0;entryDy=0;exitX=0.5;exitY=0;exitDx=0;exitDy=0;fillColor=#ffcc99;strokeColor=#36393d;" edge="1" parent="X3lnQFaPOgWNIHZg0Lux-608" source="X3lnQFaPOgWNIHZg0Lux-614" target="X3lnQFaPOgWNIHZg0Lux-610">
          <mxGeometry width="50" height="50" relative="1" as="geometry">
            <mxPoint x="36.12040133779264" y="70.3125" as="sourcePoint" />
            <mxPoint x="66.22073578595318" y="46.875" as="targetPoint" />
          </mxGeometry>
        </mxCell>
        <mxCell id="X3lnQFaPOgWNIHZg0Lux-623" value="高校" style="text;html=1;strokeColor=none;fillColor=none;align=center;verticalAlign=middle;whiteSpace=wrap;rounded=0;" vertex="1" parent="X3lnQFaPOgWNIHZg0Lux-606">
          <mxGeometry x="24.189723320158095" y="45.75" width="39.130434782608695" height="6.25" as="geometry" />
        </mxCell>
        <mxCell id="X3lnQFaPOgWNIHZg0Lux-624" value="" style="group" vertex="1" connectable="0" parent="1">
          <mxGeometry x="82" y="654" width="90" height="58" as="geometry" />
        </mxCell>
        <mxCell id="X3lnQFaPOgWNIHZg0Lux-625" value="" style="rounded=1;whiteSpace=wrap;html=1;dashed=1;strokeColor=#97D077;" vertex="1" parent="X3lnQFaPOgWNIHZg0Lux-624">
          <mxGeometry width="90" height="58" as="geometry" />
        </mxCell>
        <mxCell id="X3lnQFaPOgWNIHZg0Lux-626" value="" style="group" vertex="1" connectable="0" parent="X3lnQFaPOgWNIHZg0Lux-624">
          <mxGeometry x="6.758893280632407" y="2.5" width="78.26086956521739" height="37.5" as="geometry" />
        </mxCell>
        <mxCell id="X3lnQFaPOgWNIHZg0Lux-627" value="" style="ellipse;whiteSpace=wrap;html=1;aspect=fixed;fillColor=#ffcc99;strokeColor=#36393d;" vertex="1" parent="X3lnQFaPOgWNIHZg0Lux-626">
          <mxGeometry width="14.0625" height="14.0625" as="geometry" />
        </mxCell>
        <mxCell id="X3lnQFaPOgWNIHZg0Lux-628" value="" style="ellipse;whiteSpace=wrap;html=1;aspect=fixed;fillColor=#ffcc99;strokeColor=#36393d;" vertex="1" parent="X3lnQFaPOgWNIHZg0Lux-626">
          <mxGeometry x="60.20066889632107" width="14.0625" height="14.0625" as="geometry" />
        </mxCell>
        <mxCell id="X3lnQFaPOgWNIHZg0Lux-629" value="" style="ellipse;whiteSpace=wrap;html=1;aspect=fixed;fillColor=#ffcc99;strokeColor=#36393d;" vertex="1" parent="X3lnQFaPOgWNIHZg0Lux-626">
          <mxGeometry x="30.100334448160535" width="14.0625" height="14.0625" as="geometry" />
        </mxCell>
        <mxCell id="X3lnQFaPOgWNIHZg0Lux-630" value="" style="ellipse;whiteSpace=wrap;html=1;aspect=fixed;fillColor=#ffcc99;strokeColor=#36393d;" vertex="1" parent="X3lnQFaPOgWNIHZg0Lux-626">
          <mxGeometry y="23.4375" width="14.0625" height="14.0625" as="geometry" />
        </mxCell>
        <mxCell id="X3lnQFaPOgWNIHZg0Lux-631" value="" style="ellipse;whiteSpace=wrap;html=1;aspect=fixed;fillColor=#ffcc99;strokeColor=#36393d;" vertex="1" parent="X3lnQFaPOgWNIHZg0Lux-626">
          <mxGeometry x="60.20066889632107" y="23.4375" width="14.0625" height="14.0625" as="geometry" />
        </mxCell>
        <mxCell id="X3lnQFaPOgWNIHZg0Lux-632" value="" style="ellipse;whiteSpace=wrap;html=1;aspect=fixed;fillColor=#ffcc99;strokeColor=#36393d;" vertex="1" parent="X3lnQFaPOgWNIHZg0Lux-626">
          <mxGeometry x="30.100334448160535" y="23.4375" width="14.0625" height="14.0625" as="geometry" />
        </mxCell>
        <mxCell id="X3lnQFaPOgWNIHZg0Lux-633" value="" style="endArrow=none;html=1;rounded=0;entryX=0.5;entryY=0;entryDx=0;entryDy=0;exitX=0.5;exitY=1;exitDx=0;exitDy=0;fillColor=#ffcc99;strokeColor=#36393d;" edge="1" parent="X3lnQFaPOgWNIHZg0Lux-626" source="X3lnQFaPOgWNIHZg0Lux-627" target="X3lnQFaPOgWNIHZg0Lux-630">
          <mxGeometry width="50" height="50" relative="1" as="geometry">
            <mxPoint x="-36.12040133779264" y="65.625" as="sourcePoint" />
            <mxPoint x="-6.0200668896321075" y="42.1875" as="targetPoint" />
          </mxGeometry>
        </mxCell>
        <mxCell id="X3lnQFaPOgWNIHZg0Lux-634" value="" style="endArrow=none;html=1;rounded=0;entryX=0.5;entryY=1;entryDx=0;entryDy=0;exitX=0.5;exitY=0;exitDx=0;exitDy=0;fillColor=#ffcc99;strokeColor=#36393d;" edge="1" parent="X3lnQFaPOgWNIHZg0Lux-626" source="X3lnQFaPOgWNIHZg0Lux-632" target="X3lnQFaPOgWNIHZg0Lux-627">
          <mxGeometry width="50" height="50" relative="1" as="geometry">
            <mxPoint x="6.0200668896321075" y="79.6875" as="sourcePoint" />
            <mxPoint x="36.12040133779264" y="56.25" as="targetPoint" />
          </mxGeometry>
        </mxCell>
        <mxCell id="X3lnQFaPOgWNIHZg0Lux-635" value="" style="endArrow=none;html=1;rounded=0;entryX=0.5;entryY=1;entryDx=0;entryDy=0;exitX=0.5;exitY=0;exitDx=0;exitDy=0;fillColor=#ffcc99;strokeColor=#36393d;" edge="1" parent="X3lnQFaPOgWNIHZg0Lux-626" source="X3lnQFaPOgWNIHZg0Lux-631" target="X3lnQFaPOgWNIHZg0Lux-627">
          <mxGeometry width="50" height="50" relative="1" as="geometry">
            <mxPoint x="6.0200668896321075" y="79.6875" as="sourcePoint" />
            <mxPoint x="36.12040133779264" y="56.25" as="targetPoint" />
          </mxGeometry>
        </mxCell>
        <mxCell id="X3lnQFaPOgWNIHZg0Lux-636" value="" style="endArrow=none;html=1;rounded=0;entryX=0.5;entryY=1;entryDx=0;entryDy=0;fillColor=#ffcc99;strokeColor=#36393d;" edge="1" parent="X3lnQFaPOgWNIHZg0Lux-626" target="X3lnQFaPOgWNIHZg0Lux-629">
          <mxGeometry width="50" height="50" relative="1" as="geometry">
            <mxPoint x="38.41897233201581" y="23.75" as="sourcePoint" />
            <mxPoint x="-6.0200668896321075" y="60.9375" as="targetPoint" />
          </mxGeometry>
        </mxCell>
        <mxCell id="X3lnQFaPOgWNIHZg0Lux-637" value="" style="endArrow=none;html=1;rounded=0;entryX=0.5;entryY=1;entryDx=0;entryDy=0;fillColor=#ffcc99;strokeColor=#36393d;" edge="1" parent="X3lnQFaPOgWNIHZg0Lux-626" target="X3lnQFaPOgWNIHZg0Lux-628">
          <mxGeometry width="50" height="50" relative="1" as="geometry">
            <mxPoint x="69.23076923076923" y="23.4375" as="sourcePoint" />
            <mxPoint x="108.36120401337791" y="56.25" as="targetPoint" />
            <Array as="points">
              <mxPoint x="68.300395256917" y="23.75" />
            </Array>
          </mxGeometry>
        </mxCell>
        <mxCell id="X3lnQFaPOgWNIHZg0Lux-638" value="" style="endArrow=none;html=1;rounded=0;entryX=0.5;entryY=1;entryDx=0;entryDy=0;exitX=0.5;exitY=0;exitDx=0;exitDy=0;fillColor=#ffcc99;strokeColor=#36393d;" edge="1" parent="X3lnQFaPOgWNIHZg0Lux-626" source="X3lnQFaPOgWNIHZg0Lux-630" target="X3lnQFaPOgWNIHZg0Lux-629">
          <mxGeometry width="50" height="50" relative="1" as="geometry">
            <mxPoint x="30.100334448160535" y="75" as="sourcePoint" />
            <mxPoint x="60.20066889632107" y="51.5625" as="targetPoint" />
          </mxGeometry>
        </mxCell>
        <mxCell id="X3lnQFaPOgWNIHZg0Lux-639" value="" style="endArrow=none;html=1;rounded=0;entryX=0.5;entryY=1;entryDx=0;entryDy=0;exitX=0.5;exitY=0;exitDx=0;exitDy=0;fillColor=#ffcc99;strokeColor=#36393d;" edge="1" parent="X3lnQFaPOgWNIHZg0Lux-626" source="X3lnQFaPOgWNIHZg0Lux-630" target="X3lnQFaPOgWNIHZg0Lux-628">
          <mxGeometry width="50" height="50" relative="1" as="geometry">
            <mxPoint x="42.14046822742475" y="84.375" as="sourcePoint" />
            <mxPoint x="72.24080267558529" y="60.9375" as="targetPoint" />
          </mxGeometry>
        </mxCell>
        <mxCell id="X3lnQFaPOgWNIHZg0Lux-640" value="" style="endArrow=none;html=1;rounded=0;entryX=0.5;entryY=1;entryDx=0;entryDy=0;exitX=0.5;exitY=0;exitDx=0;exitDy=0;fillColor=#ffcc99;strokeColor=#36393d;" edge="1" parent="X3lnQFaPOgWNIHZg0Lux-626" source="X3lnQFaPOgWNIHZg0Lux-632" target="X3lnQFaPOgWNIHZg0Lux-628">
          <mxGeometry width="50" height="50" relative="1" as="geometry">
            <mxPoint x="36.12040133779264" y="70.3125" as="sourcePoint" />
            <mxPoint x="66.22073578595318" y="46.875" as="targetPoint" />
          </mxGeometry>
        </mxCell>
        <mxCell id="X3lnQFaPOgWNIHZg0Lux-641" value="办公区" style="text;html=1;strokeColor=none;fillColor=none;align=center;verticalAlign=middle;whiteSpace=wrap;rounded=0;" vertex="1" parent="X3lnQFaPOgWNIHZg0Lux-624">
          <mxGeometry x="24.189723320158095" y="45.75" width="39.130434782608695" height="6.25" as="geometry" />
        </mxCell>
        <mxCell id="X3lnQFaPOgWNIHZg0Lux-642" value="" style="group" vertex="1" connectable="0" parent="1">
          <mxGeometry x="175" y="654" width="90" height="58" as="geometry" />
        </mxCell>
        <mxCell id="X3lnQFaPOgWNIHZg0Lux-643" value="" style="rounded=1;whiteSpace=wrap;html=1;dashed=1;strokeColor=#97D077;" vertex="1" parent="X3lnQFaPOgWNIHZg0Lux-642">
          <mxGeometry width="90" height="58" as="geometry" />
        </mxCell>
        <mxCell id="X3lnQFaPOgWNIHZg0Lux-644" value="" style="group" vertex="1" connectable="0" parent="X3lnQFaPOgWNIHZg0Lux-642">
          <mxGeometry x="6.758893280632407" y="2.5" width="78.26086956521739" height="37.5" as="geometry" />
        </mxCell>
        <mxCell id="X3lnQFaPOgWNIHZg0Lux-645" value="" style="ellipse;whiteSpace=wrap;html=1;aspect=fixed;fillColor=#ffcc99;strokeColor=#36393d;" vertex="1" parent="X3lnQFaPOgWNIHZg0Lux-644">
          <mxGeometry width="14.0625" height="14.0625" as="geometry" />
        </mxCell>
        <mxCell id="X3lnQFaPOgWNIHZg0Lux-646" value="" style="ellipse;whiteSpace=wrap;html=1;aspect=fixed;fillColor=#ffcc99;strokeColor=#36393d;" vertex="1" parent="X3lnQFaPOgWNIHZg0Lux-644">
          <mxGeometry x="60.20066889632107" width="14.0625" height="14.0625" as="geometry" />
        </mxCell>
        <mxCell id="X3lnQFaPOgWNIHZg0Lux-647" value="" style="ellipse;whiteSpace=wrap;html=1;aspect=fixed;fillColor=#ffcc99;strokeColor=#36393d;" vertex="1" parent="X3lnQFaPOgWNIHZg0Lux-644">
          <mxGeometry x="30.100334448160535" width="14.0625" height="14.0625" as="geometry" />
        </mxCell>
        <mxCell id="X3lnQFaPOgWNIHZg0Lux-648" value="" style="ellipse;whiteSpace=wrap;html=1;aspect=fixed;fillColor=#ffcc99;strokeColor=#36393d;" vertex="1" parent="X3lnQFaPOgWNIHZg0Lux-644">
          <mxGeometry y="23.4375" width="14.0625" height="14.0625" as="geometry" />
        </mxCell>
        <mxCell id="X3lnQFaPOgWNIHZg0Lux-649" value="" style="ellipse;whiteSpace=wrap;html=1;aspect=fixed;fillColor=#ffcc99;strokeColor=#36393d;" vertex="1" parent="X3lnQFaPOgWNIHZg0Lux-644">
          <mxGeometry x="60.20066889632107" y="23.4375" width="14.0625" height="14.0625" as="geometry" />
        </mxCell>
        <mxCell id="X3lnQFaPOgWNIHZg0Lux-650" value="" style="ellipse;whiteSpace=wrap;html=1;aspect=fixed;fillColor=#ffcc99;strokeColor=#36393d;" vertex="1" parent="X3lnQFaPOgWNIHZg0Lux-644">
          <mxGeometry x="30.100334448160535" y="23.4375" width="14.0625" height="14.0625" as="geometry" />
        </mxCell>
        <mxCell id="X3lnQFaPOgWNIHZg0Lux-651" value="" style="endArrow=none;html=1;rounded=0;entryX=0.5;entryY=0;entryDx=0;entryDy=0;exitX=0.5;exitY=1;exitDx=0;exitDy=0;fillColor=#ffcc99;strokeColor=#36393d;" edge="1" parent="X3lnQFaPOgWNIHZg0Lux-644" source="X3lnQFaPOgWNIHZg0Lux-645" target="X3lnQFaPOgWNIHZg0Lux-648">
          <mxGeometry width="50" height="50" relative="1" as="geometry">
            <mxPoint x="-36.12040133779264" y="65.625" as="sourcePoint" />
            <mxPoint x="-6.0200668896321075" y="42.1875" as="targetPoint" />
          </mxGeometry>
        </mxCell>
        <mxCell id="X3lnQFaPOgWNIHZg0Lux-652" value="" style="endArrow=none;html=1;rounded=0;entryX=0.5;entryY=1;entryDx=0;entryDy=0;exitX=0.5;exitY=0;exitDx=0;exitDy=0;fillColor=#ffcc99;strokeColor=#36393d;" edge="1" parent="X3lnQFaPOgWNIHZg0Lux-644" source="X3lnQFaPOgWNIHZg0Lux-650" target="X3lnQFaPOgWNIHZg0Lux-645">
          <mxGeometry width="50" height="50" relative="1" as="geometry">
            <mxPoint x="6.0200668896321075" y="79.6875" as="sourcePoint" />
            <mxPoint x="36.12040133779264" y="56.25" as="targetPoint" />
          </mxGeometry>
        </mxCell>
        <mxCell id="X3lnQFaPOgWNIHZg0Lux-653" value="" style="endArrow=none;html=1;rounded=0;entryX=0.5;entryY=1;entryDx=0;entryDy=0;exitX=0.5;exitY=0;exitDx=0;exitDy=0;fillColor=#ffcc99;strokeColor=#36393d;" edge="1" parent="X3lnQFaPOgWNIHZg0Lux-644" source="X3lnQFaPOgWNIHZg0Lux-649" target="X3lnQFaPOgWNIHZg0Lux-645">
          <mxGeometry width="50" height="50" relative="1" as="geometry">
            <mxPoint x="6.0200668896321075" y="79.6875" as="sourcePoint" />
            <mxPoint x="36.12040133779264" y="56.25" as="targetPoint" />
          </mxGeometry>
        </mxCell>
        <mxCell id="X3lnQFaPOgWNIHZg0Lux-654" value="" style="endArrow=none;html=1;rounded=0;entryX=0.5;entryY=1;entryDx=0;entryDy=0;fillColor=#ffcc99;strokeColor=#36393d;" edge="1" parent="X3lnQFaPOgWNIHZg0Lux-644" target="X3lnQFaPOgWNIHZg0Lux-647">
          <mxGeometry width="50" height="50" relative="1" as="geometry">
            <mxPoint x="38.41897233201581" y="23.75" as="sourcePoint" />
            <mxPoint x="-6.0200668896321075" y="60.9375" as="targetPoint" />
          </mxGeometry>
        </mxCell>
        <mxCell id="X3lnQFaPOgWNIHZg0Lux-655" value="" style="endArrow=none;html=1;rounded=0;entryX=0.5;entryY=1;entryDx=0;entryDy=0;fillColor=#ffcc99;strokeColor=#36393d;" edge="1" parent="X3lnQFaPOgWNIHZg0Lux-644" target="X3lnQFaPOgWNIHZg0Lux-646">
          <mxGeometry width="50" height="50" relative="1" as="geometry">
            <mxPoint x="69.23076923076923" y="23.4375" as="sourcePoint" />
            <mxPoint x="108.36120401337791" y="56.25" as="targetPoint" />
            <Array as="points">
              <mxPoint x="68.300395256917" y="23.75" />
            </Array>
          </mxGeometry>
        </mxCell>
        <mxCell id="X3lnQFaPOgWNIHZg0Lux-656" value="" style="endArrow=none;html=1;rounded=0;entryX=0.5;entryY=1;entryDx=0;entryDy=0;exitX=0.5;exitY=0;exitDx=0;exitDy=0;fillColor=#ffcc99;strokeColor=#36393d;" edge="1" parent="X3lnQFaPOgWNIHZg0Lux-644" source="X3lnQFaPOgWNIHZg0Lux-648" target="X3lnQFaPOgWNIHZg0Lux-647">
          <mxGeometry width="50" height="50" relative="1" as="geometry">
            <mxPoint x="30.100334448160535" y="75" as="sourcePoint" />
            <mxPoint x="60.20066889632107" y="51.5625" as="targetPoint" />
          </mxGeometry>
        </mxCell>
        <mxCell id="X3lnQFaPOgWNIHZg0Lux-657" value="" style="endArrow=none;html=1;rounded=0;entryX=0.5;entryY=1;entryDx=0;entryDy=0;exitX=0.5;exitY=0;exitDx=0;exitDy=0;fillColor=#ffcc99;strokeColor=#36393d;" edge="1" parent="X3lnQFaPOgWNIHZg0Lux-644" source="X3lnQFaPOgWNIHZg0Lux-648" target="X3lnQFaPOgWNIHZg0Lux-646">
          <mxGeometry width="50" height="50" relative="1" as="geometry">
            <mxPoint x="42.14046822742475" y="84.375" as="sourcePoint" />
            <mxPoint x="72.24080267558529" y="60.9375" as="targetPoint" />
          </mxGeometry>
        </mxCell>
        <mxCell id="X3lnQFaPOgWNIHZg0Lux-658" value="" style="endArrow=none;html=1;rounded=0;entryX=0.5;entryY=1;entryDx=0;entryDy=0;exitX=0.5;exitY=0;exitDx=0;exitDy=0;fillColor=#ffcc99;strokeColor=#36393d;" edge="1" parent="X3lnQFaPOgWNIHZg0Lux-644" source="X3lnQFaPOgWNIHZg0Lux-650" target="X3lnQFaPOgWNIHZg0Lux-646">
          <mxGeometry width="50" height="50" relative="1" as="geometry">
            <mxPoint x="36.12040133779264" y="70.3125" as="sourcePoint" />
            <mxPoint x="66.22073578595318" y="46.875" as="targetPoint" />
          </mxGeometry>
        </mxCell>
        <mxCell id="X3lnQFaPOgWNIHZg0Lux-659" value="生活服务" style="text;html=1;strokeColor=none;fillColor=none;align=center;verticalAlign=middle;whiteSpace=wrap;rounded=0;" vertex="1" parent="X3lnQFaPOgWNIHZg0Lux-642">
          <mxGeometry x="24.19" y="45.75" width="55.81" height="6.25" as="geometry" />
        </mxCell>
        <mxCell id="X3lnQFaPOgWNIHZg0Lux-660" value="" style="group" vertex="1" connectable="0" parent="1">
          <mxGeometry x="272" y="654" width="90" height="58" as="geometry" />
        </mxCell>
        <mxCell id="X3lnQFaPOgWNIHZg0Lux-661" value="" style="rounded=1;whiteSpace=wrap;html=1;dashed=1;strokeColor=#97D077;" vertex="1" parent="X3lnQFaPOgWNIHZg0Lux-660">
          <mxGeometry width="90" height="58" as="geometry" />
        </mxCell>
        <mxCell id="X3lnQFaPOgWNIHZg0Lux-662" value="" style="group" vertex="1" connectable="0" parent="X3lnQFaPOgWNIHZg0Lux-660">
          <mxGeometry x="6.758893280632407" y="2.5" width="78.26086956521739" height="37.5" as="geometry" />
        </mxCell>
        <mxCell id="X3lnQFaPOgWNIHZg0Lux-663" value="" style="ellipse;whiteSpace=wrap;html=1;aspect=fixed;fillColor=#ffcc99;strokeColor=#36393d;" vertex="1" parent="X3lnQFaPOgWNIHZg0Lux-662">
          <mxGeometry width="14.0625" height="14.0625" as="geometry" />
        </mxCell>
        <mxCell id="X3lnQFaPOgWNIHZg0Lux-664" value="" style="ellipse;whiteSpace=wrap;html=1;aspect=fixed;fillColor=#ffcc99;strokeColor=#36393d;" vertex="1" parent="X3lnQFaPOgWNIHZg0Lux-662">
          <mxGeometry x="60.20066889632107" width="14.0625" height="14.0625" as="geometry" />
        </mxCell>
        <mxCell id="X3lnQFaPOgWNIHZg0Lux-665" value="" style="ellipse;whiteSpace=wrap;html=1;aspect=fixed;fillColor=#ffcc99;strokeColor=#36393d;" vertex="1" parent="X3lnQFaPOgWNIHZg0Lux-662">
          <mxGeometry x="30.100334448160535" width="14.0625" height="14.0625" as="geometry" />
        </mxCell>
        <mxCell id="X3lnQFaPOgWNIHZg0Lux-666" value="" style="ellipse;whiteSpace=wrap;html=1;aspect=fixed;fillColor=#ffcc99;strokeColor=#36393d;" vertex="1" parent="X3lnQFaPOgWNIHZg0Lux-662">
          <mxGeometry y="23.4375" width="14.0625" height="14.0625" as="geometry" />
        </mxCell>
        <mxCell id="X3lnQFaPOgWNIHZg0Lux-667" value="" style="ellipse;whiteSpace=wrap;html=1;aspect=fixed;fillColor=#ffcc99;strokeColor=#36393d;" vertex="1" parent="X3lnQFaPOgWNIHZg0Lux-662">
          <mxGeometry x="60.20066889632107" y="23.4375" width="14.0625" height="14.0625" as="geometry" />
        </mxCell>
        <mxCell id="X3lnQFaPOgWNIHZg0Lux-668" value="" style="ellipse;whiteSpace=wrap;html=1;aspect=fixed;fillColor=#ffcc99;strokeColor=#36393d;" vertex="1" parent="X3lnQFaPOgWNIHZg0Lux-662">
          <mxGeometry x="30.100334448160535" y="23.4375" width="14.0625" height="14.0625" as="geometry" />
        </mxCell>
        <mxCell id="X3lnQFaPOgWNIHZg0Lux-669" value="" style="endArrow=none;html=1;rounded=0;entryX=0.5;entryY=0;entryDx=0;entryDy=0;exitX=0.5;exitY=1;exitDx=0;exitDy=0;fillColor=#ffcc99;strokeColor=#36393d;" edge="1" parent="X3lnQFaPOgWNIHZg0Lux-662" source="X3lnQFaPOgWNIHZg0Lux-663" target="X3lnQFaPOgWNIHZg0Lux-666">
          <mxGeometry width="50" height="50" relative="1" as="geometry">
            <mxPoint x="-36.12040133779264" y="65.625" as="sourcePoint" />
            <mxPoint x="-6.0200668896321075" y="42.1875" as="targetPoint" />
          </mxGeometry>
        </mxCell>
        <mxCell id="X3lnQFaPOgWNIHZg0Lux-670" value="" style="endArrow=none;html=1;rounded=0;entryX=0.5;entryY=1;entryDx=0;entryDy=0;exitX=0.5;exitY=0;exitDx=0;exitDy=0;fillColor=#ffcc99;strokeColor=#36393d;" edge="1" parent="X3lnQFaPOgWNIHZg0Lux-662" source="X3lnQFaPOgWNIHZg0Lux-668" target="X3lnQFaPOgWNIHZg0Lux-663">
          <mxGeometry width="50" height="50" relative="1" as="geometry">
            <mxPoint x="6.0200668896321075" y="79.6875" as="sourcePoint" />
            <mxPoint x="36.12040133779264" y="56.25" as="targetPoint" />
          </mxGeometry>
        </mxCell>
        <mxCell id="X3lnQFaPOgWNIHZg0Lux-671" value="" style="endArrow=none;html=1;rounded=0;entryX=0.5;entryY=1;entryDx=0;entryDy=0;exitX=0.5;exitY=0;exitDx=0;exitDy=0;fillColor=#ffcc99;strokeColor=#36393d;" edge="1" parent="X3lnQFaPOgWNIHZg0Lux-662" source="X3lnQFaPOgWNIHZg0Lux-667" target="X3lnQFaPOgWNIHZg0Lux-663">
          <mxGeometry width="50" height="50" relative="1" as="geometry">
            <mxPoint x="6.0200668896321075" y="79.6875" as="sourcePoint" />
            <mxPoint x="36.12040133779264" y="56.25" as="targetPoint" />
          </mxGeometry>
        </mxCell>
        <mxCell id="X3lnQFaPOgWNIHZg0Lux-672" value="" style="endArrow=none;html=1;rounded=0;entryX=0.5;entryY=1;entryDx=0;entryDy=0;fillColor=#ffcc99;strokeColor=#36393d;" edge="1" parent="X3lnQFaPOgWNIHZg0Lux-662" target="X3lnQFaPOgWNIHZg0Lux-665">
          <mxGeometry width="50" height="50" relative="1" as="geometry">
            <mxPoint x="38.41897233201581" y="23.75" as="sourcePoint" />
            <mxPoint x="-6.0200668896321075" y="60.9375" as="targetPoint" />
          </mxGeometry>
        </mxCell>
        <mxCell id="X3lnQFaPOgWNIHZg0Lux-673" value="" style="endArrow=none;html=1;rounded=0;entryX=0.5;entryY=1;entryDx=0;entryDy=0;fillColor=#ffcc99;strokeColor=#36393d;" edge="1" parent="X3lnQFaPOgWNIHZg0Lux-662" target="X3lnQFaPOgWNIHZg0Lux-664">
          <mxGeometry width="50" height="50" relative="1" as="geometry">
            <mxPoint x="69.23076923076923" y="23.4375" as="sourcePoint" />
            <mxPoint x="108.36120401337791" y="56.25" as="targetPoint" />
            <Array as="points">
              <mxPoint x="68.300395256917" y="23.75" />
            </Array>
          </mxGeometry>
        </mxCell>
        <mxCell id="X3lnQFaPOgWNIHZg0Lux-674" value="" style="endArrow=none;html=1;rounded=0;entryX=0.5;entryY=1;entryDx=0;entryDy=0;exitX=0.5;exitY=0;exitDx=0;exitDy=0;fillColor=#ffcc99;strokeColor=#36393d;" edge="1" parent="X3lnQFaPOgWNIHZg0Lux-662" source="X3lnQFaPOgWNIHZg0Lux-666" target="X3lnQFaPOgWNIHZg0Lux-665">
          <mxGeometry width="50" height="50" relative="1" as="geometry">
            <mxPoint x="30.100334448160535" y="75" as="sourcePoint" />
            <mxPoint x="60.20066889632107" y="51.5625" as="targetPoint" />
          </mxGeometry>
        </mxCell>
        <mxCell id="X3lnQFaPOgWNIHZg0Lux-675" value="" style="endArrow=none;html=1;rounded=0;entryX=0.5;entryY=1;entryDx=0;entryDy=0;exitX=0.5;exitY=0;exitDx=0;exitDy=0;fillColor=#ffcc99;strokeColor=#36393d;" edge="1" parent="X3lnQFaPOgWNIHZg0Lux-662" source="X3lnQFaPOgWNIHZg0Lux-666" target="X3lnQFaPOgWNIHZg0Lux-664">
          <mxGeometry width="50" height="50" relative="1" as="geometry">
            <mxPoint x="42.14046822742475" y="84.375" as="sourcePoint" />
            <mxPoint x="72.24080267558529" y="60.9375" as="targetPoint" />
          </mxGeometry>
        </mxCell>
        <mxCell id="X3lnQFaPOgWNIHZg0Lux-676" value="" style="endArrow=none;html=1;rounded=0;entryX=0.5;entryY=1;entryDx=0;entryDy=0;exitX=0.5;exitY=0;exitDx=0;exitDy=0;fillColor=#ffcc99;strokeColor=#36393d;" edge="1" parent="X3lnQFaPOgWNIHZg0Lux-662" source="X3lnQFaPOgWNIHZg0Lux-668" target="X3lnQFaPOgWNIHZg0Lux-664">
          <mxGeometry width="50" height="50" relative="1" as="geometry">
            <mxPoint x="36.12040133779264" y="70.3125" as="sourcePoint" />
            <mxPoint x="66.22073578595318" y="46.875" as="targetPoint" />
          </mxGeometry>
        </mxCell>
        <mxCell id="X3lnQFaPOgWNIHZg0Lux-677" value="其他" style="text;html=1;strokeColor=none;fillColor=none;align=center;verticalAlign=middle;whiteSpace=wrap;rounded=0;" vertex="1" parent="X3lnQFaPOgWNIHZg0Lux-660">
          <mxGeometry x="24.189723320158095" y="45.75" width="39.130434782608695" height="6.25" as="geometry" />
        </mxCell>
        <mxCell id="X3lnQFaPOgWNIHZg0Lux-679" value="" style="group;labelBorderColor=default;" vertex="1" connectable="0" parent="1">
          <mxGeometry x="510" y="584" width="90" height="58" as="geometry" />
        </mxCell>
        <mxCell id="X3lnQFaPOgWNIHZg0Lux-420" value="" style="rounded=1;whiteSpace=wrap;html=1;dashed=1;strokeColor=#97D077;" vertex="1" parent="X3lnQFaPOgWNIHZg0Lux-679">
          <mxGeometry width="90" height="58" as="geometry" />
        </mxCell>
        <mxCell id="X3lnQFaPOgWNIHZg0Lux-421" value="" style="group" vertex="1" connectable="0" parent="X3lnQFaPOgWNIHZg0Lux-679">
          <mxGeometry x="6.758893280632378" y="2.5" width="78.26086956521739" height="37.5" as="geometry" />
        </mxCell>
        <mxCell id="X3lnQFaPOgWNIHZg0Lux-422" value="" style="ellipse;whiteSpace=wrap;html=1;aspect=fixed;fillColor=#FFE599;strokeColor=#000000;" vertex="1" parent="X3lnQFaPOgWNIHZg0Lux-421">
          <mxGeometry width="14.0625" height="14.0625" as="geometry" />
        </mxCell>
        <mxCell id="X3lnQFaPOgWNIHZg0Lux-423" value="" style="ellipse;whiteSpace=wrap;html=1;aspect=fixed;fillColor=#FFE599;strokeColor=#000000;" vertex="1" parent="X3lnQFaPOgWNIHZg0Lux-421">
          <mxGeometry x="60.20066889632107" width="14.0625" height="14.0625" as="geometry" />
        </mxCell>
        <mxCell id="X3lnQFaPOgWNIHZg0Lux-424" value="" style="ellipse;whiteSpace=wrap;html=1;aspect=fixed;fillColor=#FFE599;strokeColor=#000000;" vertex="1" parent="X3lnQFaPOgWNIHZg0Lux-421">
          <mxGeometry x="30.100334448160535" width="14.0625" height="14.0625" as="geometry" />
        </mxCell>
        <mxCell id="X3lnQFaPOgWNIHZg0Lux-425" value="" style="ellipse;whiteSpace=wrap;html=1;aspect=fixed;fillColor=#FFE599;strokeColor=#000000;" vertex="1" parent="X3lnQFaPOgWNIHZg0Lux-421">
          <mxGeometry y="23.4375" width="14.0625" height="14.0625" as="geometry" />
        </mxCell>
        <mxCell id="X3lnQFaPOgWNIHZg0Lux-426" value="" style="ellipse;whiteSpace=wrap;html=1;aspect=fixed;fillColor=#FFE599;strokeColor=#000000;" vertex="1" parent="X3lnQFaPOgWNIHZg0Lux-421">
          <mxGeometry x="60.20066889632107" y="23.4375" width="14.0625" height="14.0625" as="geometry" />
        </mxCell>
        <mxCell id="X3lnQFaPOgWNIHZg0Lux-427" value="" style="ellipse;whiteSpace=wrap;html=1;aspect=fixed;fillColor=#FFE599;strokeColor=#000000;" vertex="1" parent="X3lnQFaPOgWNIHZg0Lux-421">
          <mxGeometry x="30.100334448160535" y="23.4375" width="14.0625" height="14.0625" as="geometry" />
        </mxCell>
        <mxCell id="X3lnQFaPOgWNIHZg0Lux-428" value="" style="endArrow=none;html=1;rounded=0;entryX=0.5;entryY=0;entryDx=0;entryDy=0;exitX=0.5;exitY=1;exitDx=0;exitDy=0;fillColor=#d5e8d4;strokeColor=#000000;" edge="1" parent="X3lnQFaPOgWNIHZg0Lux-421" source="X3lnQFaPOgWNIHZg0Lux-422" target="X3lnQFaPOgWNIHZg0Lux-425">
          <mxGeometry width="50" height="50" relative="1" as="geometry">
            <mxPoint x="-36.12040133779264" y="65.625" as="sourcePoint" />
            <mxPoint x="-6.0200668896321075" y="42.1875" as="targetPoint" />
          </mxGeometry>
        </mxCell>
        <mxCell id="X3lnQFaPOgWNIHZg0Lux-429" value="" style="endArrow=none;html=1;rounded=0;entryX=0.5;entryY=1;entryDx=0;entryDy=0;exitX=0.5;exitY=0;exitDx=0;exitDy=0;fillColor=#d5e8d4;strokeColor=#000000;" edge="1" parent="X3lnQFaPOgWNIHZg0Lux-421" source="X3lnQFaPOgWNIHZg0Lux-427" target="X3lnQFaPOgWNIHZg0Lux-422">
          <mxGeometry width="50" height="50" relative="1" as="geometry">
            <mxPoint x="6.0200668896321075" y="79.6875" as="sourcePoint" />
            <mxPoint x="36.12040133779264" y="56.25" as="targetPoint" />
          </mxGeometry>
        </mxCell>
        <mxCell id="X3lnQFaPOgWNIHZg0Lux-430" value="" style="endArrow=none;html=1;rounded=0;entryX=0.5;entryY=1;entryDx=0;entryDy=0;exitX=0.5;exitY=0;exitDx=0;exitDy=0;fillColor=#d5e8d4;strokeColor=#000000;" edge="1" parent="X3lnQFaPOgWNIHZg0Lux-421" source="X3lnQFaPOgWNIHZg0Lux-426" target="X3lnQFaPOgWNIHZg0Lux-422">
          <mxGeometry width="50" height="50" relative="1" as="geometry">
            <mxPoint x="6.0200668896321075" y="79.6875" as="sourcePoint" />
            <mxPoint x="36.12040133779264" y="56.25" as="targetPoint" />
          </mxGeometry>
        </mxCell>
        <mxCell id="X3lnQFaPOgWNIHZg0Lux-431" value="" style="endArrow=none;html=1;rounded=0;entryX=0.5;entryY=1;entryDx=0;entryDy=0;fillColor=#d5e8d4;strokeColor=#000000;" edge="1" parent="X3lnQFaPOgWNIHZg0Lux-421" target="X3lnQFaPOgWNIHZg0Lux-424">
          <mxGeometry width="50" height="50" relative="1" as="geometry">
            <mxPoint x="38.41897233201581" y="23.75" as="sourcePoint" />
            <mxPoint x="-6.0200668896321075" y="60.9375" as="targetPoint" />
          </mxGeometry>
        </mxCell>
        <mxCell id="X3lnQFaPOgWNIHZg0Lux-432" value="" style="endArrow=none;html=1;rounded=0;entryX=0.5;entryY=1;entryDx=0;entryDy=0;fillColor=#d5e8d4;strokeColor=#000000;" edge="1" parent="X3lnQFaPOgWNIHZg0Lux-421" target="X3lnQFaPOgWNIHZg0Lux-423">
          <mxGeometry width="50" height="50" relative="1" as="geometry">
            <mxPoint x="69.23076923076923" y="23.4375" as="sourcePoint" />
            <mxPoint x="108.36120401337791" y="56.25" as="targetPoint" />
            <Array as="points">
              <mxPoint x="68.300395256917" y="23.75" />
            </Array>
          </mxGeometry>
        </mxCell>
        <mxCell id="X3lnQFaPOgWNIHZg0Lux-433" value="" style="endArrow=none;html=1;rounded=0;entryX=0.5;entryY=1;entryDx=0;entryDy=0;exitX=0.5;exitY=0;exitDx=0;exitDy=0;fillColor=#d5e8d4;strokeColor=#000000;" edge="1" parent="X3lnQFaPOgWNIHZg0Lux-421" source="X3lnQFaPOgWNIHZg0Lux-425" target="X3lnQFaPOgWNIHZg0Lux-424">
          <mxGeometry width="50" height="50" relative="1" as="geometry">
            <mxPoint x="30.100334448160535" y="75" as="sourcePoint" />
            <mxPoint x="60.20066889632107" y="51.5625" as="targetPoint" />
          </mxGeometry>
        </mxCell>
        <mxCell id="X3lnQFaPOgWNIHZg0Lux-434" value="" style="endArrow=none;html=1;rounded=0;entryX=0.5;entryY=1;entryDx=0;entryDy=0;exitX=0.5;exitY=0;exitDx=0;exitDy=0;fillColor=#d5e8d4;strokeColor=#000000;" edge="1" parent="X3lnQFaPOgWNIHZg0Lux-421" source="X3lnQFaPOgWNIHZg0Lux-425" target="X3lnQFaPOgWNIHZg0Lux-423">
          <mxGeometry width="50" height="50" relative="1" as="geometry">
            <mxPoint x="42.14046822742475" y="84.375" as="sourcePoint" />
            <mxPoint x="72.24080267558529" y="60.9375" as="targetPoint" />
          </mxGeometry>
        </mxCell>
        <mxCell id="X3lnQFaPOgWNIHZg0Lux-435" value="" style="endArrow=none;html=1;rounded=0;entryX=0.5;entryY=1;entryDx=0;entryDy=0;exitX=0.5;exitY=0;exitDx=0;exitDy=0;fillColor=#d5e8d4;strokeColor=#000000;" edge="1" parent="X3lnQFaPOgWNIHZg0Lux-421" source="X3lnQFaPOgWNIHZg0Lux-427" target="X3lnQFaPOgWNIHZg0Lux-423">
          <mxGeometry width="50" height="50" relative="1" as="geometry">
            <mxPoint x="36.12040133779264" y="70.3125" as="sourcePoint" />
            <mxPoint x="66.22073578595318" y="46.875" as="targetPoint" />
          </mxGeometry>
        </mxCell>
        <mxCell id="X3lnQFaPOgWNIHZg0Lux-436" value="A1" style="text;html=1;strokeColor=none;fillColor=none;align=center;verticalAlign=middle;whiteSpace=wrap;rounded=0;fontSize=8;" vertex="1" parent="X3lnQFaPOgWNIHZg0Lux-679">
          <mxGeometry x="24.189723320158123" y="45.75" width="39.130434782608695" height="6.25" as="geometry" />
        </mxCell>
        <mxCell id="X3lnQFaPOgWNIHZg0Lux-716" value="" style="group" vertex="1" connectable="0" parent="1">
          <mxGeometry x="607" y="584" width="90" height="58" as="geometry" />
        </mxCell>
        <mxCell id="X3lnQFaPOgWNIHZg0Lux-717" value="" style="rounded=1;whiteSpace=wrap;html=1;dashed=1;strokeColor=#97D077;" vertex="1" parent="X3lnQFaPOgWNIHZg0Lux-716">
          <mxGeometry width="90" height="58" as="geometry" />
        </mxCell>
        <mxCell id="X3lnQFaPOgWNIHZg0Lux-718" value="" style="group" vertex="1" connectable="0" parent="X3lnQFaPOgWNIHZg0Lux-716">
          <mxGeometry x="6.758893280632378" y="2.5" width="78.26086956521739" height="37.5" as="geometry" />
        </mxCell>
        <mxCell id="X3lnQFaPOgWNIHZg0Lux-719" value="" style="ellipse;whiteSpace=wrap;html=1;aspect=fixed;fillColor=#FFE599;strokeColor=#000000;" vertex="1" parent="X3lnQFaPOgWNIHZg0Lux-718">
          <mxGeometry width="14.0625" height="14.0625" as="geometry" />
        </mxCell>
        <mxCell id="X3lnQFaPOgWNIHZg0Lux-720" value="" style="ellipse;whiteSpace=wrap;html=1;aspect=fixed;fillColor=#FFE599;strokeColor=#000000;" vertex="1" parent="X3lnQFaPOgWNIHZg0Lux-718">
          <mxGeometry x="60.20066889632107" width="14.0625" height="14.0625" as="geometry" />
        </mxCell>
        <mxCell id="X3lnQFaPOgWNIHZg0Lux-721" value="" style="ellipse;whiteSpace=wrap;html=1;aspect=fixed;fillColor=#FFE599;strokeColor=#000000;" vertex="1" parent="X3lnQFaPOgWNIHZg0Lux-718">
          <mxGeometry x="30.100334448160535" width="14.0625" height="14.0625" as="geometry" />
        </mxCell>
        <mxCell id="X3lnQFaPOgWNIHZg0Lux-722" value="" style="ellipse;whiteSpace=wrap;html=1;aspect=fixed;fillColor=#FFE599;strokeColor=#000000;" vertex="1" parent="X3lnQFaPOgWNIHZg0Lux-718">
          <mxGeometry y="23.4375" width="14.0625" height="14.0625" as="geometry" />
        </mxCell>
        <mxCell id="X3lnQFaPOgWNIHZg0Lux-723" value="" style="ellipse;whiteSpace=wrap;html=1;aspect=fixed;fillColor=#FFE599;strokeColor=#000000;" vertex="1" parent="X3lnQFaPOgWNIHZg0Lux-718">
          <mxGeometry x="60.20066889632107" y="23.4375" width="14.0625" height="14.0625" as="geometry" />
        </mxCell>
        <mxCell id="X3lnQFaPOgWNIHZg0Lux-724" value="" style="ellipse;whiteSpace=wrap;html=1;aspect=fixed;fillColor=#FFE599;strokeColor=#000000;" vertex="1" parent="X3lnQFaPOgWNIHZg0Lux-718">
          <mxGeometry x="30.100334448160535" y="23.4375" width="14.0625" height="14.0625" as="geometry" />
        </mxCell>
        <mxCell id="X3lnQFaPOgWNIHZg0Lux-725" value="" style="endArrow=none;html=1;rounded=0;entryX=0.5;entryY=0;entryDx=0;entryDy=0;exitX=0.5;exitY=1;exitDx=0;exitDy=0;fillColor=#d5e8d4;strokeColor=#000000;" edge="1" parent="X3lnQFaPOgWNIHZg0Lux-718" source="X3lnQFaPOgWNIHZg0Lux-719" target="X3lnQFaPOgWNIHZg0Lux-722">
          <mxGeometry width="50" height="50" relative="1" as="geometry">
            <mxPoint x="-36.12040133779264" y="65.625" as="sourcePoint" />
            <mxPoint x="-6.0200668896321075" y="42.1875" as="targetPoint" />
          </mxGeometry>
        </mxCell>
        <mxCell id="X3lnQFaPOgWNIHZg0Lux-726" value="" style="endArrow=none;html=1;rounded=0;entryX=0.5;entryY=1;entryDx=0;entryDy=0;exitX=0.5;exitY=0;exitDx=0;exitDy=0;fillColor=#d5e8d4;strokeColor=#000000;" edge="1" parent="X3lnQFaPOgWNIHZg0Lux-718" source="X3lnQFaPOgWNIHZg0Lux-724" target="X3lnQFaPOgWNIHZg0Lux-719">
          <mxGeometry width="50" height="50" relative="1" as="geometry">
            <mxPoint x="6.0200668896321075" y="79.6875" as="sourcePoint" />
            <mxPoint x="36.12040133779264" y="56.25" as="targetPoint" />
          </mxGeometry>
        </mxCell>
        <mxCell id="X3lnQFaPOgWNIHZg0Lux-727" value="" style="endArrow=none;html=1;rounded=0;entryX=0.5;entryY=1;entryDx=0;entryDy=0;exitX=0.5;exitY=0;exitDx=0;exitDy=0;fillColor=#d5e8d4;strokeColor=#000000;" edge="1" parent="X3lnQFaPOgWNIHZg0Lux-718" source="X3lnQFaPOgWNIHZg0Lux-723" target="X3lnQFaPOgWNIHZg0Lux-719">
          <mxGeometry width="50" height="50" relative="1" as="geometry">
            <mxPoint x="6.0200668896321075" y="79.6875" as="sourcePoint" />
            <mxPoint x="36.12040133779264" y="56.25" as="targetPoint" />
          </mxGeometry>
        </mxCell>
        <mxCell id="X3lnQFaPOgWNIHZg0Lux-728" value="" style="endArrow=none;html=1;rounded=0;entryX=0.5;entryY=1;entryDx=0;entryDy=0;fillColor=#d5e8d4;strokeColor=#000000;" edge="1" parent="X3lnQFaPOgWNIHZg0Lux-718" target="X3lnQFaPOgWNIHZg0Lux-721">
          <mxGeometry width="50" height="50" relative="1" as="geometry">
            <mxPoint x="38.41897233201581" y="23.75" as="sourcePoint" />
            <mxPoint x="-6.0200668896321075" y="60.9375" as="targetPoint" />
          </mxGeometry>
        </mxCell>
        <mxCell id="X3lnQFaPOgWNIHZg0Lux-729" value="" style="endArrow=none;html=1;rounded=0;entryX=0.5;entryY=1;entryDx=0;entryDy=0;fillColor=#d5e8d4;strokeColor=#000000;" edge="1" parent="X3lnQFaPOgWNIHZg0Lux-718" target="X3lnQFaPOgWNIHZg0Lux-720">
          <mxGeometry width="50" height="50" relative="1" as="geometry">
            <mxPoint x="69.23076923076923" y="23.4375" as="sourcePoint" />
            <mxPoint x="108.36120401337791" y="56.25" as="targetPoint" />
            <Array as="points">
              <mxPoint x="68.300395256917" y="23.75" />
            </Array>
          </mxGeometry>
        </mxCell>
        <mxCell id="X3lnQFaPOgWNIHZg0Lux-730" value="" style="endArrow=none;html=1;rounded=0;entryX=0.5;entryY=1;entryDx=0;entryDy=0;exitX=0.5;exitY=0;exitDx=0;exitDy=0;fillColor=#d5e8d4;strokeColor=#000000;" edge="1" parent="X3lnQFaPOgWNIHZg0Lux-718" source="X3lnQFaPOgWNIHZg0Lux-722" target="X3lnQFaPOgWNIHZg0Lux-721">
          <mxGeometry width="50" height="50" relative="1" as="geometry">
            <mxPoint x="30.100334448160535" y="75" as="sourcePoint" />
            <mxPoint x="60.20066889632107" y="51.5625" as="targetPoint" />
          </mxGeometry>
        </mxCell>
        <mxCell id="X3lnQFaPOgWNIHZg0Lux-731" value="" style="endArrow=none;html=1;rounded=0;entryX=0.5;entryY=1;entryDx=0;entryDy=0;exitX=0.5;exitY=0;exitDx=0;exitDy=0;fillColor=#d5e8d4;strokeColor=#000000;" edge="1" parent="X3lnQFaPOgWNIHZg0Lux-718" source="X3lnQFaPOgWNIHZg0Lux-722" target="X3lnQFaPOgWNIHZg0Lux-720">
          <mxGeometry width="50" height="50" relative="1" as="geometry">
            <mxPoint x="42.14046822742475" y="84.375" as="sourcePoint" />
            <mxPoint x="72.24080267558529" y="60.9375" as="targetPoint" />
          </mxGeometry>
        </mxCell>
        <mxCell id="X3lnQFaPOgWNIHZg0Lux-732" value="" style="endArrow=none;html=1;rounded=0;entryX=0.5;entryY=1;entryDx=0;entryDy=0;exitX=0.5;exitY=0;exitDx=0;exitDy=0;fillColor=#d5e8d4;strokeColor=#000000;" edge="1" parent="X3lnQFaPOgWNIHZg0Lux-718" source="X3lnQFaPOgWNIHZg0Lux-724" target="X3lnQFaPOgWNIHZg0Lux-720">
          <mxGeometry width="50" height="50" relative="1" as="geometry">
            <mxPoint x="36.12040133779264" y="70.3125" as="sourcePoint" />
            <mxPoint x="66.22073578595318" y="46.875" as="targetPoint" />
          </mxGeometry>
        </mxCell>
        <mxCell id="X3lnQFaPOgWNIHZg0Lux-733" value="A2" style="text;html=1;strokeColor=none;fillColor=none;align=center;verticalAlign=middle;whiteSpace=wrap;rounded=0;fontSize=8;" vertex="1" parent="X3lnQFaPOgWNIHZg0Lux-716">
          <mxGeometry x="24.189723320158123" y="45.75" width="39.130434782608695" height="6.25" as="geometry" />
        </mxCell>
        <mxCell id="X3lnQFaPOgWNIHZg0Lux-734" value="" style="group" vertex="1" connectable="0" parent="1">
          <mxGeometry x="701" y="584" width="90" height="58" as="geometry" />
        </mxCell>
        <mxCell id="X3lnQFaPOgWNIHZg0Lux-735" value="" style="rounded=1;whiteSpace=wrap;html=1;dashed=1;strokeColor=#97D077;" vertex="1" parent="X3lnQFaPOgWNIHZg0Lux-734">
          <mxGeometry width="90" height="58" as="geometry" />
        </mxCell>
        <mxCell id="X3lnQFaPOgWNIHZg0Lux-736" value="" style="group" vertex="1" connectable="0" parent="X3lnQFaPOgWNIHZg0Lux-734">
          <mxGeometry x="6.758893280632378" y="2.5" width="78.26086956521739" height="37.5" as="geometry" />
        </mxCell>
        <mxCell id="X3lnQFaPOgWNIHZg0Lux-737" value="" style="ellipse;whiteSpace=wrap;html=1;aspect=fixed;fillColor=#FFE599;strokeColor=#000000;" vertex="1" parent="X3lnQFaPOgWNIHZg0Lux-736">
          <mxGeometry width="14.0625" height="14.0625" as="geometry" />
        </mxCell>
        <mxCell id="X3lnQFaPOgWNIHZg0Lux-738" value="" style="ellipse;whiteSpace=wrap;html=1;aspect=fixed;fillColor=#FFE599;strokeColor=#000000;" vertex="1" parent="X3lnQFaPOgWNIHZg0Lux-736">
          <mxGeometry x="60.20066889632107" width="14.0625" height="14.0625" as="geometry" />
        </mxCell>
        <mxCell id="X3lnQFaPOgWNIHZg0Lux-739" value="" style="ellipse;whiteSpace=wrap;html=1;aspect=fixed;fillColor=#FFE599;strokeColor=#000000;" vertex="1" parent="X3lnQFaPOgWNIHZg0Lux-736">
          <mxGeometry x="30.100334448160535" width="14.0625" height="14.0625" as="geometry" />
        </mxCell>
        <mxCell id="X3lnQFaPOgWNIHZg0Lux-740" value="" style="ellipse;whiteSpace=wrap;html=1;aspect=fixed;fillColor=#FFE599;strokeColor=#000000;" vertex="1" parent="X3lnQFaPOgWNIHZg0Lux-736">
          <mxGeometry y="23.4375" width="14.0625" height="14.0625" as="geometry" />
        </mxCell>
        <mxCell id="X3lnQFaPOgWNIHZg0Lux-741" value="" style="ellipse;whiteSpace=wrap;html=1;aspect=fixed;fillColor=#FFE599;strokeColor=#000000;" vertex="1" parent="X3lnQFaPOgWNIHZg0Lux-736">
          <mxGeometry x="60.20066889632107" y="23.4375" width="14.0625" height="14.0625" as="geometry" />
        </mxCell>
        <mxCell id="X3lnQFaPOgWNIHZg0Lux-742" value="" style="ellipse;whiteSpace=wrap;html=1;aspect=fixed;fillColor=#FFE599;strokeColor=#000000;" vertex="1" parent="X3lnQFaPOgWNIHZg0Lux-736">
          <mxGeometry x="30.100334448160535" y="23.4375" width="14.0625" height="14.0625" as="geometry" />
        </mxCell>
        <mxCell id="X3lnQFaPOgWNIHZg0Lux-743" value="" style="endArrow=none;html=1;rounded=0;entryX=0.5;entryY=0;entryDx=0;entryDy=0;exitX=0.5;exitY=1;exitDx=0;exitDy=0;fillColor=#d5e8d4;strokeColor=#000000;" edge="1" parent="X3lnQFaPOgWNIHZg0Lux-736" source="X3lnQFaPOgWNIHZg0Lux-737" target="X3lnQFaPOgWNIHZg0Lux-740">
          <mxGeometry width="50" height="50" relative="1" as="geometry">
            <mxPoint x="-36.12040133779264" y="65.625" as="sourcePoint" />
            <mxPoint x="-6.0200668896321075" y="42.1875" as="targetPoint" />
          </mxGeometry>
        </mxCell>
        <mxCell id="X3lnQFaPOgWNIHZg0Lux-744" value="" style="endArrow=none;html=1;rounded=0;entryX=0.5;entryY=1;entryDx=0;entryDy=0;exitX=0.5;exitY=0;exitDx=0;exitDy=0;fillColor=#d5e8d4;strokeColor=#000000;" edge="1" parent="X3lnQFaPOgWNIHZg0Lux-736" source="X3lnQFaPOgWNIHZg0Lux-742" target="X3lnQFaPOgWNIHZg0Lux-737">
          <mxGeometry width="50" height="50" relative="1" as="geometry">
            <mxPoint x="6.0200668896321075" y="79.6875" as="sourcePoint" />
            <mxPoint x="36.12040133779264" y="56.25" as="targetPoint" />
          </mxGeometry>
        </mxCell>
        <mxCell id="X3lnQFaPOgWNIHZg0Lux-745" value="" style="endArrow=none;html=1;rounded=0;entryX=0.5;entryY=1;entryDx=0;entryDy=0;exitX=0.5;exitY=0;exitDx=0;exitDy=0;fillColor=#d5e8d4;strokeColor=#000000;" edge="1" parent="X3lnQFaPOgWNIHZg0Lux-736" source="X3lnQFaPOgWNIHZg0Lux-741" target="X3lnQFaPOgWNIHZg0Lux-737">
          <mxGeometry width="50" height="50" relative="1" as="geometry">
            <mxPoint x="6.0200668896321075" y="79.6875" as="sourcePoint" />
            <mxPoint x="36.12040133779264" y="56.25" as="targetPoint" />
          </mxGeometry>
        </mxCell>
        <mxCell id="X3lnQFaPOgWNIHZg0Lux-746" value="" style="endArrow=none;html=1;rounded=0;entryX=0.5;entryY=1;entryDx=0;entryDy=0;fillColor=#d5e8d4;strokeColor=#000000;" edge="1" parent="X3lnQFaPOgWNIHZg0Lux-736" target="X3lnQFaPOgWNIHZg0Lux-739">
          <mxGeometry width="50" height="50" relative="1" as="geometry">
            <mxPoint x="38.41897233201581" y="23.75" as="sourcePoint" />
            <mxPoint x="-6.0200668896321075" y="60.9375" as="targetPoint" />
          </mxGeometry>
        </mxCell>
        <mxCell id="X3lnQFaPOgWNIHZg0Lux-747" value="" style="endArrow=none;html=1;rounded=0;entryX=0.5;entryY=1;entryDx=0;entryDy=0;fillColor=#d5e8d4;strokeColor=#000000;" edge="1" parent="X3lnQFaPOgWNIHZg0Lux-736" target="X3lnQFaPOgWNIHZg0Lux-738">
          <mxGeometry width="50" height="50" relative="1" as="geometry">
            <mxPoint x="69.23076923076923" y="23.4375" as="sourcePoint" />
            <mxPoint x="108.36120401337791" y="56.25" as="targetPoint" />
            <Array as="points">
              <mxPoint x="68.300395256917" y="23.75" />
            </Array>
          </mxGeometry>
        </mxCell>
        <mxCell id="X3lnQFaPOgWNIHZg0Lux-748" value="" style="endArrow=none;html=1;rounded=0;entryX=0.5;entryY=1;entryDx=0;entryDy=0;exitX=0.5;exitY=0;exitDx=0;exitDy=0;fillColor=#d5e8d4;strokeColor=#000000;" edge="1" parent="X3lnQFaPOgWNIHZg0Lux-736" source="X3lnQFaPOgWNIHZg0Lux-740" target="X3lnQFaPOgWNIHZg0Lux-739">
          <mxGeometry width="50" height="50" relative="1" as="geometry">
            <mxPoint x="30.100334448160535" y="75" as="sourcePoint" />
            <mxPoint x="60.20066889632107" y="51.5625" as="targetPoint" />
          </mxGeometry>
        </mxCell>
        <mxCell id="X3lnQFaPOgWNIHZg0Lux-749" value="" style="endArrow=none;html=1;rounded=0;entryX=0.5;entryY=1;entryDx=0;entryDy=0;exitX=0.5;exitY=0;exitDx=0;exitDy=0;fillColor=#d5e8d4;strokeColor=#000000;" edge="1" parent="X3lnQFaPOgWNIHZg0Lux-736" source="X3lnQFaPOgWNIHZg0Lux-740" target="X3lnQFaPOgWNIHZg0Lux-738">
          <mxGeometry width="50" height="50" relative="1" as="geometry">
            <mxPoint x="42.14046822742475" y="84.375" as="sourcePoint" />
            <mxPoint x="72.24080267558529" y="60.9375" as="targetPoint" />
          </mxGeometry>
        </mxCell>
        <mxCell id="X3lnQFaPOgWNIHZg0Lux-750" value="" style="endArrow=none;html=1;rounded=0;entryX=0.5;entryY=1;entryDx=0;entryDy=0;exitX=0.5;exitY=0;exitDx=0;exitDy=0;fillColor=#d5e8d4;strokeColor=#000000;" edge="1" parent="X3lnQFaPOgWNIHZg0Lux-736" source="X3lnQFaPOgWNIHZg0Lux-742" target="X3lnQFaPOgWNIHZg0Lux-738">
          <mxGeometry width="50" height="50" relative="1" as="geometry">
            <mxPoint x="36.12040133779264" y="70.3125" as="sourcePoint" />
            <mxPoint x="66.22073578595318" y="46.875" as="targetPoint" />
          </mxGeometry>
        </mxCell>
        <mxCell id="X3lnQFaPOgWNIHZg0Lux-751" value="A3" style="text;html=1;strokeColor=none;fillColor=none;align=center;verticalAlign=middle;whiteSpace=wrap;rounded=0;fontSize=8;" vertex="1" parent="X3lnQFaPOgWNIHZg0Lux-734">
          <mxGeometry x="24.189723320158123" y="45.75" width="39.130434782608695" height="6.25" as="geometry" />
        </mxCell>
        <mxCell id="X3lnQFaPOgWNIHZg0Lux-752" value="Mask Attention" style="rounded=1;whiteSpace=wrap;html=1;fillColor=#CCCCCC;strokeColor=#23445d;" vertex="1" parent="1">
          <mxGeometry x="820" y="532" width="290" height="30" as="geometry" />
        </mxCell>
        <mxCell id="X3lnQFaPOgWNIHZg0Lux-753" value="" style="endArrow=classic;html=1;rounded=0;exitX=0.5;exitY=0;exitDx=0;exitDy=0;" edge="1" parent="1" source="X3lnQFaPOgWNIHZg0Lux-757">
          <mxGeometry width="50" height="50" relative="1" as="geometry">
            <mxPoint x="860" y="584" as="sourcePoint" />
            <mxPoint x="865" y="562" as="targetPoint" />
          </mxGeometry>
        </mxCell>
        <mxCell id="X3lnQFaPOgWNIHZg0Lux-754" value="" style="endArrow=classic;html=1;rounded=0;exitX=0.5;exitY=0;exitDx=0;exitDy=0;" edge="1" parent="1">
          <mxGeometry width="50" height="50" relative="1" as="geometry">
            <mxPoint x="1055" y="584" as="sourcePoint" />
            <mxPoint x="1055" y="562" as="targetPoint" />
          </mxGeometry>
        </mxCell>
        <mxCell id="X3lnQFaPOgWNIHZg0Lux-755" value="" style="endArrow=classic;html=1;rounded=0;exitX=0.5;exitY=0;exitDx=0;exitDy=0;" edge="1" parent="1">
          <mxGeometry width="50" height="50" relative="1" as="geometry">
            <mxPoint x="960" y="584" as="sourcePoint" />
            <mxPoint x="960" y="562" as="targetPoint" />
          </mxGeometry>
        </mxCell>
        <mxCell id="X3lnQFaPOgWNIHZg0Lux-756" value="" style="group;labelBorderColor=default;" vertex="1" connectable="0" parent="1">
          <mxGeometry x="820" y="584" width="90" height="58" as="geometry" />
        </mxCell>
        <mxCell id="X3lnQFaPOgWNIHZg0Lux-757" value="" style="rounded=1;whiteSpace=wrap;html=1;dashed=1;strokeColor=#97D077;" vertex="1" parent="X3lnQFaPOgWNIHZg0Lux-756">
          <mxGeometry width="90" height="58" as="geometry" />
        </mxCell>
        <mxCell id="X3lnQFaPOgWNIHZg0Lux-758" value="" style="group" vertex="1" connectable="0" parent="X3lnQFaPOgWNIHZg0Lux-756">
          <mxGeometry x="6.758893280632378" y="2.5" width="78.26086956521739" height="37.5" as="geometry" />
        </mxCell>
        <mxCell id="X3lnQFaPOgWNIHZg0Lux-759" value="" style="ellipse;whiteSpace=wrap;html=1;aspect=fixed;fillColor=#CCCCCC;strokeColor=#000000;" vertex="1" parent="X3lnQFaPOgWNIHZg0Lux-758">
          <mxGeometry width="14.0625" height="14.0625" as="geometry" />
        </mxCell>
        <mxCell id="X3lnQFaPOgWNIHZg0Lux-760" value="" style="ellipse;whiteSpace=wrap;html=1;aspect=fixed;fillColor=#CCCCCC;strokeColor=#000000;" vertex="1" parent="X3lnQFaPOgWNIHZg0Lux-758">
          <mxGeometry x="60.20066889632107" width="14.0625" height="14.0625" as="geometry" />
        </mxCell>
        <mxCell id="X3lnQFaPOgWNIHZg0Lux-761" value="" style="ellipse;whiteSpace=wrap;html=1;aspect=fixed;fillColor=#CCCCCC;strokeColor=#000000;" vertex="1" parent="X3lnQFaPOgWNIHZg0Lux-758">
          <mxGeometry x="30.100334448160535" width="14.0625" height="14.0625" as="geometry" />
        </mxCell>
        <mxCell id="X3lnQFaPOgWNIHZg0Lux-762" value="" style="ellipse;whiteSpace=wrap;html=1;aspect=fixed;fillColor=#CCCCCC;strokeColor=#000000;" vertex="1" parent="X3lnQFaPOgWNIHZg0Lux-758">
          <mxGeometry y="23.4375" width="14.0625" height="14.0625" as="geometry" />
        </mxCell>
        <mxCell id="X3lnQFaPOgWNIHZg0Lux-763" value="" style="ellipse;whiteSpace=wrap;html=1;aspect=fixed;fillColor=#CCCCCC;strokeColor=#000000;" vertex="1" parent="X3lnQFaPOgWNIHZg0Lux-758">
          <mxGeometry x="60.20066889632107" y="23.4375" width="14.0625" height="14.0625" as="geometry" />
        </mxCell>
        <mxCell id="X3lnQFaPOgWNIHZg0Lux-764" value="" style="ellipse;whiteSpace=wrap;html=1;aspect=fixed;fillColor=#CCCCCC;strokeColor=#000000;" vertex="1" parent="X3lnQFaPOgWNIHZg0Lux-758">
          <mxGeometry x="30.100334448160535" y="23.4375" width="14.0625" height="14.0625" as="geometry" />
        </mxCell>
        <mxCell id="X3lnQFaPOgWNIHZg0Lux-765" value="" style="endArrow=none;html=1;rounded=0;entryX=0.5;entryY=0;entryDx=0;entryDy=0;exitX=0.5;exitY=1;exitDx=0;exitDy=0;fillColor=#d5e8d4;strokeColor=#000000;" edge="1" parent="X3lnQFaPOgWNIHZg0Lux-758" source="X3lnQFaPOgWNIHZg0Lux-759" target="X3lnQFaPOgWNIHZg0Lux-762">
          <mxGeometry width="50" height="50" relative="1" as="geometry">
            <mxPoint x="-36.12040133779264" y="65.625" as="sourcePoint" />
            <mxPoint x="-6.0200668896321075" y="42.1875" as="targetPoint" />
          </mxGeometry>
        </mxCell>
        <mxCell id="X3lnQFaPOgWNIHZg0Lux-766" value="" style="endArrow=none;html=1;rounded=0;entryX=0.5;entryY=1;entryDx=0;entryDy=0;exitX=0.5;exitY=0;exitDx=0;exitDy=0;fillColor=#d5e8d4;strokeColor=#000000;" edge="1" parent="X3lnQFaPOgWNIHZg0Lux-758" source="X3lnQFaPOgWNIHZg0Lux-764" target="X3lnQFaPOgWNIHZg0Lux-759">
          <mxGeometry width="50" height="50" relative="1" as="geometry">
            <mxPoint x="6.0200668896321075" y="79.6875" as="sourcePoint" />
            <mxPoint x="36.12040133779264" y="56.25" as="targetPoint" />
          </mxGeometry>
        </mxCell>
        <mxCell id="X3lnQFaPOgWNIHZg0Lux-767" value="" style="endArrow=none;html=1;rounded=0;entryX=0.5;entryY=1;entryDx=0;entryDy=0;exitX=0.5;exitY=0;exitDx=0;exitDy=0;fillColor=#d5e8d4;strokeColor=#000000;" edge="1" parent="X3lnQFaPOgWNIHZg0Lux-758" source="X3lnQFaPOgWNIHZg0Lux-763" target="X3lnQFaPOgWNIHZg0Lux-759">
          <mxGeometry width="50" height="50" relative="1" as="geometry">
            <mxPoint x="6.0200668896321075" y="79.6875" as="sourcePoint" />
            <mxPoint x="36.12040133779264" y="56.25" as="targetPoint" />
          </mxGeometry>
        </mxCell>
        <mxCell id="X3lnQFaPOgWNIHZg0Lux-768" value="" style="endArrow=none;html=1;rounded=0;entryX=0.5;entryY=1;entryDx=0;entryDy=0;fillColor=#d5e8d4;strokeColor=#000000;" edge="1" parent="X3lnQFaPOgWNIHZg0Lux-758" target="X3lnQFaPOgWNIHZg0Lux-761">
          <mxGeometry width="50" height="50" relative="1" as="geometry">
            <mxPoint x="38.41897233201581" y="23.75" as="sourcePoint" />
            <mxPoint x="-6.0200668896321075" y="60.9375" as="targetPoint" />
          </mxGeometry>
        </mxCell>
        <mxCell id="X3lnQFaPOgWNIHZg0Lux-769" value="" style="endArrow=none;html=1;rounded=0;entryX=0.5;entryY=1;entryDx=0;entryDy=0;fillColor=#d5e8d4;strokeColor=#000000;" edge="1" parent="X3lnQFaPOgWNIHZg0Lux-758" target="X3lnQFaPOgWNIHZg0Lux-760">
          <mxGeometry width="50" height="50" relative="1" as="geometry">
            <mxPoint x="69.23076923076923" y="23.4375" as="sourcePoint" />
            <mxPoint x="108.36120401337791" y="56.25" as="targetPoint" />
            <Array as="points">
              <mxPoint x="68.300395256917" y="23.75" />
            </Array>
          </mxGeometry>
        </mxCell>
        <mxCell id="X3lnQFaPOgWNIHZg0Lux-770" value="" style="endArrow=none;html=1;rounded=0;entryX=0.5;entryY=1;entryDx=0;entryDy=0;exitX=0.5;exitY=0;exitDx=0;exitDy=0;fillColor=#d5e8d4;strokeColor=#000000;" edge="1" parent="X3lnQFaPOgWNIHZg0Lux-758" source="X3lnQFaPOgWNIHZg0Lux-762" target="X3lnQFaPOgWNIHZg0Lux-761">
          <mxGeometry width="50" height="50" relative="1" as="geometry">
            <mxPoint x="30.100334448160535" y="75" as="sourcePoint" />
            <mxPoint x="60.20066889632107" y="51.5625" as="targetPoint" />
          </mxGeometry>
        </mxCell>
        <mxCell id="X3lnQFaPOgWNIHZg0Lux-771" value="" style="endArrow=none;html=1;rounded=0;entryX=0.5;entryY=1;entryDx=0;entryDy=0;exitX=0.5;exitY=0;exitDx=0;exitDy=0;fillColor=#d5e8d4;strokeColor=#000000;" edge="1" parent="X3lnQFaPOgWNIHZg0Lux-758" source="X3lnQFaPOgWNIHZg0Lux-762" target="X3lnQFaPOgWNIHZg0Lux-760">
          <mxGeometry width="50" height="50" relative="1" as="geometry">
            <mxPoint x="42.14046822742475" y="84.375" as="sourcePoint" />
            <mxPoint x="72.24080267558529" y="60.9375" as="targetPoint" />
          </mxGeometry>
        </mxCell>
        <mxCell id="X3lnQFaPOgWNIHZg0Lux-772" value="" style="endArrow=none;html=1;rounded=0;entryX=0.5;entryY=1;entryDx=0;entryDy=0;exitX=0.5;exitY=0;exitDx=0;exitDy=0;fillColor=#d5e8d4;strokeColor=#000000;" edge="1" parent="X3lnQFaPOgWNIHZg0Lux-758" source="X3lnQFaPOgWNIHZg0Lux-764" target="X3lnQFaPOgWNIHZg0Lux-760">
          <mxGeometry width="50" height="50" relative="1" as="geometry">
            <mxPoint x="36.12040133779264" y="70.3125" as="sourcePoint" />
            <mxPoint x="66.22073578595318" y="46.875" as="targetPoint" />
          </mxGeometry>
        </mxCell>
        <mxCell id="X3lnQFaPOgWNIHZg0Lux-773" value="U1" style="text;html=1;strokeColor=none;fillColor=none;align=center;verticalAlign=middle;whiteSpace=wrap;rounded=0;fontSize=8;" vertex="1" parent="X3lnQFaPOgWNIHZg0Lux-756">
          <mxGeometry x="24.189723320158123" y="45.75" width="39.130434782608695" height="6.25" as="geometry" />
        </mxCell>
        <mxCell id="X3lnQFaPOgWNIHZg0Lux-774" value="" style="group" vertex="1" connectable="0" parent="1">
          <mxGeometry x="917" y="584" width="90" height="58" as="geometry" />
        </mxCell>
        <mxCell id="X3lnQFaPOgWNIHZg0Lux-775" value="" style="rounded=1;whiteSpace=wrap;html=1;dashed=1;strokeColor=#97D077;" vertex="1" parent="X3lnQFaPOgWNIHZg0Lux-774">
          <mxGeometry width="90" height="58" as="geometry" />
        </mxCell>
        <mxCell id="X3lnQFaPOgWNIHZg0Lux-776" value="" style="group" vertex="1" connectable="0" parent="X3lnQFaPOgWNIHZg0Lux-774">
          <mxGeometry x="6.758893280632378" y="2.5" width="78.26086956521739" height="37.5" as="geometry" />
        </mxCell>
        <mxCell id="X3lnQFaPOgWNIHZg0Lux-777" value="" style="ellipse;whiteSpace=wrap;html=1;aspect=fixed;fillColor=#CCCCCC;strokeColor=#000000;" vertex="1" parent="X3lnQFaPOgWNIHZg0Lux-776">
          <mxGeometry width="14.0625" height="14.0625" as="geometry" />
        </mxCell>
        <mxCell id="X3lnQFaPOgWNIHZg0Lux-778" value="" style="ellipse;whiteSpace=wrap;html=1;aspect=fixed;fillColor=#CCCCCC;strokeColor=#000000;" vertex="1" parent="X3lnQFaPOgWNIHZg0Lux-776">
          <mxGeometry x="60.20066889632107" width="14.0625" height="14.0625" as="geometry" />
        </mxCell>
        <mxCell id="X3lnQFaPOgWNIHZg0Lux-779" value="" style="ellipse;whiteSpace=wrap;html=1;aspect=fixed;fillColor=#CCCCCC;strokeColor=#000000;" vertex="1" parent="X3lnQFaPOgWNIHZg0Lux-776">
          <mxGeometry x="30.100334448160535" width="14.0625" height="14.0625" as="geometry" />
        </mxCell>
        <mxCell id="X3lnQFaPOgWNIHZg0Lux-780" value="" style="ellipse;whiteSpace=wrap;html=1;aspect=fixed;fillColor=#CCCCCC;strokeColor=#000000;" vertex="1" parent="X3lnQFaPOgWNIHZg0Lux-776">
          <mxGeometry y="23.4375" width="14.0625" height="14.0625" as="geometry" />
        </mxCell>
        <mxCell id="X3lnQFaPOgWNIHZg0Lux-781" value="" style="ellipse;whiteSpace=wrap;html=1;aspect=fixed;fillColor=#CCCCCC;strokeColor=#000000;" vertex="1" parent="X3lnQFaPOgWNIHZg0Lux-776">
          <mxGeometry x="60.20066889632107" y="23.4375" width="14.0625" height="14.0625" as="geometry" />
        </mxCell>
        <mxCell id="X3lnQFaPOgWNIHZg0Lux-782" value="" style="ellipse;whiteSpace=wrap;html=1;aspect=fixed;fillColor=#CCCCCC;strokeColor=#000000;" vertex="1" parent="X3lnQFaPOgWNIHZg0Lux-776">
          <mxGeometry x="30.100334448160535" y="23.4375" width="14.0625" height="14.0625" as="geometry" />
        </mxCell>
        <mxCell id="X3lnQFaPOgWNIHZg0Lux-783" value="" style="endArrow=none;html=1;rounded=0;entryX=0.5;entryY=0;entryDx=0;entryDy=0;exitX=0.5;exitY=1;exitDx=0;exitDy=0;fillColor=#d5e8d4;strokeColor=#000000;" edge="1" parent="X3lnQFaPOgWNIHZg0Lux-776" source="X3lnQFaPOgWNIHZg0Lux-777" target="X3lnQFaPOgWNIHZg0Lux-780">
          <mxGeometry width="50" height="50" relative="1" as="geometry">
            <mxPoint x="-36.12040133779264" y="65.625" as="sourcePoint" />
            <mxPoint x="-6.0200668896321075" y="42.1875" as="targetPoint" />
          </mxGeometry>
        </mxCell>
        <mxCell id="X3lnQFaPOgWNIHZg0Lux-784" value="" style="endArrow=none;html=1;rounded=0;entryX=0.5;entryY=1;entryDx=0;entryDy=0;exitX=0.5;exitY=0;exitDx=0;exitDy=0;fillColor=#d5e8d4;strokeColor=#000000;" edge="1" parent="X3lnQFaPOgWNIHZg0Lux-776" source="X3lnQFaPOgWNIHZg0Lux-782" target="X3lnQFaPOgWNIHZg0Lux-777">
          <mxGeometry width="50" height="50" relative="1" as="geometry">
            <mxPoint x="6.0200668896321075" y="79.6875" as="sourcePoint" />
            <mxPoint x="36.12040133779264" y="56.25" as="targetPoint" />
          </mxGeometry>
        </mxCell>
        <mxCell id="X3lnQFaPOgWNIHZg0Lux-785" value="" style="endArrow=none;html=1;rounded=0;entryX=0.5;entryY=1;entryDx=0;entryDy=0;exitX=0.5;exitY=0;exitDx=0;exitDy=0;fillColor=#d5e8d4;strokeColor=#000000;" edge="1" parent="X3lnQFaPOgWNIHZg0Lux-776" source="X3lnQFaPOgWNIHZg0Lux-781" target="X3lnQFaPOgWNIHZg0Lux-777">
          <mxGeometry width="50" height="50" relative="1" as="geometry">
            <mxPoint x="6.0200668896321075" y="79.6875" as="sourcePoint" />
            <mxPoint x="36.12040133779264" y="56.25" as="targetPoint" />
          </mxGeometry>
        </mxCell>
        <mxCell id="X3lnQFaPOgWNIHZg0Lux-786" value="" style="endArrow=none;html=1;rounded=0;entryX=0.5;entryY=1;entryDx=0;entryDy=0;fillColor=#d5e8d4;strokeColor=#000000;" edge="1" parent="X3lnQFaPOgWNIHZg0Lux-776" target="X3lnQFaPOgWNIHZg0Lux-779">
          <mxGeometry width="50" height="50" relative="1" as="geometry">
            <mxPoint x="38.41897233201581" y="23.75" as="sourcePoint" />
            <mxPoint x="-6.0200668896321075" y="60.9375" as="targetPoint" />
          </mxGeometry>
        </mxCell>
        <mxCell id="X3lnQFaPOgWNIHZg0Lux-787" value="" style="endArrow=none;html=1;rounded=0;entryX=0.5;entryY=1;entryDx=0;entryDy=0;fillColor=#d5e8d4;strokeColor=#000000;" edge="1" parent="X3lnQFaPOgWNIHZg0Lux-776" target="X3lnQFaPOgWNIHZg0Lux-778">
          <mxGeometry width="50" height="50" relative="1" as="geometry">
            <mxPoint x="69.23076923076923" y="23.4375" as="sourcePoint" />
            <mxPoint x="108.36120401337791" y="56.25" as="targetPoint" />
            <Array as="points">
              <mxPoint x="68.300395256917" y="23.75" />
            </Array>
          </mxGeometry>
        </mxCell>
        <mxCell id="X3lnQFaPOgWNIHZg0Lux-788" value="" style="endArrow=none;html=1;rounded=0;entryX=0.5;entryY=1;entryDx=0;entryDy=0;exitX=0.5;exitY=0;exitDx=0;exitDy=0;fillColor=#d5e8d4;strokeColor=#000000;" edge="1" parent="X3lnQFaPOgWNIHZg0Lux-776" source="X3lnQFaPOgWNIHZg0Lux-780" target="X3lnQFaPOgWNIHZg0Lux-779">
          <mxGeometry width="50" height="50" relative="1" as="geometry">
            <mxPoint x="30.100334448160535" y="75" as="sourcePoint" />
            <mxPoint x="60.20066889632107" y="51.5625" as="targetPoint" />
          </mxGeometry>
        </mxCell>
        <mxCell id="X3lnQFaPOgWNIHZg0Lux-789" value="" style="endArrow=none;html=1;rounded=0;entryX=0.5;entryY=1;entryDx=0;entryDy=0;exitX=0.5;exitY=0;exitDx=0;exitDy=0;fillColor=#d5e8d4;strokeColor=#000000;" edge="1" parent="X3lnQFaPOgWNIHZg0Lux-776" source="X3lnQFaPOgWNIHZg0Lux-780" target="X3lnQFaPOgWNIHZg0Lux-778">
          <mxGeometry width="50" height="50" relative="1" as="geometry">
            <mxPoint x="42.14046822742475" y="84.375" as="sourcePoint" />
            <mxPoint x="72.24080267558529" y="60.9375" as="targetPoint" />
          </mxGeometry>
        </mxCell>
        <mxCell id="X3lnQFaPOgWNIHZg0Lux-790" value="" style="endArrow=none;html=1;rounded=0;entryX=0.5;entryY=1;entryDx=0;entryDy=0;exitX=0.5;exitY=0;exitDx=0;exitDy=0;fillColor=#d5e8d4;strokeColor=#000000;" edge="1" parent="X3lnQFaPOgWNIHZg0Lux-776" source="X3lnQFaPOgWNIHZg0Lux-782" target="X3lnQFaPOgWNIHZg0Lux-778">
          <mxGeometry width="50" height="50" relative="1" as="geometry">
            <mxPoint x="36.12040133779264" y="70.3125" as="sourcePoint" />
            <mxPoint x="66.22073578595318" y="46.875" as="targetPoint" />
          </mxGeometry>
        </mxCell>
        <mxCell id="X3lnQFaPOgWNIHZg0Lux-791" value="U2" style="text;html=1;strokeColor=none;fillColor=none;align=center;verticalAlign=middle;whiteSpace=wrap;rounded=0;fontSize=8;" vertex="1" parent="X3lnQFaPOgWNIHZg0Lux-774">
          <mxGeometry x="24.189723320158123" y="45.75" width="39.130434782608695" height="6.25" as="geometry" />
        </mxCell>
        <mxCell id="X3lnQFaPOgWNIHZg0Lux-792" value="" style="group" vertex="1" connectable="0" parent="1">
          <mxGeometry x="1011" y="584" width="90" height="58" as="geometry" />
        </mxCell>
        <mxCell id="X3lnQFaPOgWNIHZg0Lux-793" value="" style="rounded=1;whiteSpace=wrap;html=1;dashed=1;strokeColor=#97D077;" vertex="1" parent="X3lnQFaPOgWNIHZg0Lux-792">
          <mxGeometry width="90" height="58" as="geometry" />
        </mxCell>
        <mxCell id="X3lnQFaPOgWNIHZg0Lux-794" value="" style="group" vertex="1" connectable="0" parent="X3lnQFaPOgWNIHZg0Lux-792">
          <mxGeometry x="6.758893280632378" y="2.5" width="78.26086956521739" height="37.5" as="geometry" />
        </mxCell>
        <mxCell id="X3lnQFaPOgWNIHZg0Lux-795" value="" style="ellipse;whiteSpace=wrap;html=1;aspect=fixed;fillColor=#CCCCCC;strokeColor=#000000;" vertex="1" parent="X3lnQFaPOgWNIHZg0Lux-794">
          <mxGeometry width="14.0625" height="14.0625" as="geometry" />
        </mxCell>
        <mxCell id="X3lnQFaPOgWNIHZg0Lux-796" value="" style="ellipse;whiteSpace=wrap;html=1;aspect=fixed;fillColor=#CCCCCC;strokeColor=#000000;" vertex="1" parent="X3lnQFaPOgWNIHZg0Lux-794">
          <mxGeometry x="60.20066889632107" width="14.0625" height="14.0625" as="geometry" />
        </mxCell>
        <mxCell id="X3lnQFaPOgWNIHZg0Lux-797" value="" style="ellipse;whiteSpace=wrap;html=1;aspect=fixed;fillColor=#CCCCCC;strokeColor=#000000;" vertex="1" parent="X3lnQFaPOgWNIHZg0Lux-794">
          <mxGeometry x="30.100334448160535" width="14.0625" height="14.0625" as="geometry" />
        </mxCell>
        <mxCell id="X3lnQFaPOgWNIHZg0Lux-798" value="" style="ellipse;whiteSpace=wrap;html=1;aspect=fixed;fillColor=#CCCCCC;strokeColor=#000000;" vertex="1" parent="X3lnQFaPOgWNIHZg0Lux-794">
          <mxGeometry y="23.4375" width="14.0625" height="14.0625" as="geometry" />
        </mxCell>
        <mxCell id="X3lnQFaPOgWNIHZg0Lux-799" value="" style="ellipse;whiteSpace=wrap;html=1;aspect=fixed;fillColor=#CCCCCC;strokeColor=#000000;" vertex="1" parent="X3lnQFaPOgWNIHZg0Lux-794">
          <mxGeometry x="60.20066889632107" y="23.4375" width="14.0625" height="14.0625" as="geometry" />
        </mxCell>
        <mxCell id="X3lnQFaPOgWNIHZg0Lux-800" value="" style="ellipse;whiteSpace=wrap;html=1;aspect=fixed;fillColor=#CCCCCC;strokeColor=#000000;" vertex="1" parent="X3lnQFaPOgWNIHZg0Lux-794">
          <mxGeometry x="30.100334448160535" y="23.4375" width="14.0625" height="14.0625" as="geometry" />
        </mxCell>
        <mxCell id="X3lnQFaPOgWNIHZg0Lux-801" value="" style="endArrow=none;html=1;rounded=0;entryX=0.5;entryY=0;entryDx=0;entryDy=0;exitX=0.5;exitY=1;exitDx=0;exitDy=0;fillColor=#d5e8d4;strokeColor=#000000;" edge="1" parent="X3lnQFaPOgWNIHZg0Lux-794" source="X3lnQFaPOgWNIHZg0Lux-795" target="X3lnQFaPOgWNIHZg0Lux-798">
          <mxGeometry width="50" height="50" relative="1" as="geometry">
            <mxPoint x="-36.12040133779264" y="65.625" as="sourcePoint" />
            <mxPoint x="-6.0200668896321075" y="42.1875" as="targetPoint" />
          </mxGeometry>
        </mxCell>
        <mxCell id="X3lnQFaPOgWNIHZg0Lux-802" value="" style="endArrow=none;html=1;rounded=0;entryX=0.5;entryY=1;entryDx=0;entryDy=0;exitX=0.5;exitY=0;exitDx=0;exitDy=0;fillColor=#d5e8d4;strokeColor=#000000;" edge="1" parent="X3lnQFaPOgWNIHZg0Lux-794" source="X3lnQFaPOgWNIHZg0Lux-800" target="X3lnQFaPOgWNIHZg0Lux-795">
          <mxGeometry width="50" height="50" relative="1" as="geometry">
            <mxPoint x="6.0200668896321075" y="79.6875" as="sourcePoint" />
            <mxPoint x="36.12040133779264" y="56.25" as="targetPoint" />
          </mxGeometry>
        </mxCell>
        <mxCell id="X3lnQFaPOgWNIHZg0Lux-803" value="" style="endArrow=none;html=1;rounded=0;entryX=0.5;entryY=1;entryDx=0;entryDy=0;exitX=0.5;exitY=0;exitDx=0;exitDy=0;fillColor=#d5e8d4;strokeColor=#000000;" edge="1" parent="X3lnQFaPOgWNIHZg0Lux-794" source="X3lnQFaPOgWNIHZg0Lux-799" target="X3lnQFaPOgWNIHZg0Lux-795">
          <mxGeometry width="50" height="50" relative="1" as="geometry">
            <mxPoint x="6.0200668896321075" y="79.6875" as="sourcePoint" />
            <mxPoint x="36.12040133779264" y="56.25" as="targetPoint" />
          </mxGeometry>
        </mxCell>
        <mxCell id="X3lnQFaPOgWNIHZg0Lux-804" value="" style="endArrow=none;html=1;rounded=0;entryX=0.5;entryY=1;entryDx=0;entryDy=0;fillColor=#d5e8d4;strokeColor=#000000;" edge="1" parent="X3lnQFaPOgWNIHZg0Lux-794" target="X3lnQFaPOgWNIHZg0Lux-797">
          <mxGeometry width="50" height="50" relative="1" as="geometry">
            <mxPoint x="38.41897233201581" y="23.75" as="sourcePoint" />
            <mxPoint x="-6.0200668896321075" y="60.9375" as="targetPoint" />
          </mxGeometry>
        </mxCell>
        <mxCell id="X3lnQFaPOgWNIHZg0Lux-805" value="" style="endArrow=none;html=1;rounded=0;entryX=0.5;entryY=1;entryDx=0;entryDy=0;fillColor=#d5e8d4;strokeColor=#000000;" edge="1" parent="X3lnQFaPOgWNIHZg0Lux-794" target="X3lnQFaPOgWNIHZg0Lux-796">
          <mxGeometry width="50" height="50" relative="1" as="geometry">
            <mxPoint x="69.23076923076923" y="23.4375" as="sourcePoint" />
            <mxPoint x="108.36120401337791" y="56.25" as="targetPoint" />
            <Array as="points">
              <mxPoint x="68.300395256917" y="23.75" />
            </Array>
          </mxGeometry>
        </mxCell>
        <mxCell id="X3lnQFaPOgWNIHZg0Lux-806" value="" style="endArrow=none;html=1;rounded=0;entryX=0.5;entryY=1;entryDx=0;entryDy=0;exitX=0.5;exitY=0;exitDx=0;exitDy=0;fillColor=#d5e8d4;strokeColor=#000000;" edge="1" parent="X3lnQFaPOgWNIHZg0Lux-794" source="X3lnQFaPOgWNIHZg0Lux-798" target="X3lnQFaPOgWNIHZg0Lux-797">
          <mxGeometry width="50" height="50" relative="1" as="geometry">
            <mxPoint x="30.100334448160535" y="75" as="sourcePoint" />
            <mxPoint x="60.20066889632107" y="51.5625" as="targetPoint" />
          </mxGeometry>
        </mxCell>
        <mxCell id="X3lnQFaPOgWNIHZg0Lux-807" value="" style="endArrow=none;html=1;rounded=0;entryX=0.5;entryY=1;entryDx=0;entryDy=0;exitX=0.5;exitY=0;exitDx=0;exitDy=0;fillColor=#d5e8d4;strokeColor=#000000;" edge="1" parent="X3lnQFaPOgWNIHZg0Lux-794" source="X3lnQFaPOgWNIHZg0Lux-798" target="X3lnQFaPOgWNIHZg0Lux-796">
          <mxGeometry width="50" height="50" relative="1" as="geometry">
            <mxPoint x="42.14046822742475" y="84.375" as="sourcePoint" />
            <mxPoint x="72.24080267558529" y="60.9375" as="targetPoint" />
          </mxGeometry>
        </mxCell>
        <mxCell id="X3lnQFaPOgWNIHZg0Lux-808" value="" style="endArrow=none;html=1;rounded=0;entryX=0.5;entryY=1;entryDx=0;entryDy=0;exitX=0.5;exitY=0;exitDx=0;exitDy=0;fillColor=#d5e8d4;strokeColor=#000000;" edge="1" parent="X3lnQFaPOgWNIHZg0Lux-794" source="X3lnQFaPOgWNIHZg0Lux-800" target="X3lnQFaPOgWNIHZg0Lux-796">
          <mxGeometry width="50" height="50" relative="1" as="geometry">
            <mxPoint x="36.12040133779264" y="70.3125" as="sourcePoint" />
            <mxPoint x="66.22073578595318" y="46.875" as="targetPoint" />
          </mxGeometry>
        </mxCell>
        <mxCell id="X3lnQFaPOgWNIHZg0Lux-809" value="U3" style="text;html=1;strokeColor=none;fillColor=none;align=center;verticalAlign=middle;whiteSpace=wrap;rounded=0;fontSize=8;" vertex="1" parent="X3lnQFaPOgWNIHZg0Lux-792">
          <mxGeometry x="24.189723320158123" y="45.75" width="39.130434782608695" height="6.25" as="geometry" />
        </mxCell>
        <mxCell id="X3lnQFaPOgWNIHZg0Lux-810" value="&lt;font style=&quot;font-size: 14px;&quot; color=&quot;#707070&quot;&gt;成交标签&lt;/font&gt;" style="text;html=1;strokeColor=none;fillColor=none;align=center;verticalAlign=middle;whiteSpace=wrap;rounded=0;dashed=1;opacity=1;" vertex="1" parent="1">
          <mxGeometry x="480" y="552" width="20" height="60" as="geometry" />
        </mxCell>
        <mxCell id="X3lnQFaPOgWNIHZg0Lux-811" value="&lt;font style=&quot;font-size: 14px;&quot; color=&quot;#707070&quot;&gt;留存标签&lt;/font&gt;" style="text;html=1;strokeColor=none;fillColor=none;align=center;verticalAlign=middle;whiteSpace=wrap;rounded=0;dashed=1;opacity=1;" vertex="1" parent="1">
          <mxGeometry x="1120" y="549" width="20" height="60" as="geometry" />
        </mxCell>
        <mxCell id="X3lnQFaPOgWNIHZg0Lux-813" value="&lt;font size=&quot;1&quot; color=&quot;#000000&quot;&gt;&lt;b style=&quot;font-size: 16px;&quot;&gt;Wide：人群策略&lt;/b&gt;&lt;/font&gt;" style="text;html=1;strokeColor=none;fillColor=none;align=center;verticalAlign=middle;whiteSpace=wrap;rounded=0;dashed=1;fontColor=#707070;opacity=1;" vertex="1" parent="1">
          <mxGeometry x="760" y="482" width="130" height="30" as="geometry" />
        </mxCell>
        <mxCell id="X3lnQFaPOgWNIHZg0Lux-814" value="Target" style="rounded=1;whiteSpace=wrap;html=1;fillColor=#99CCFF;strokeColor=#23445d;" vertex="1" parent="1">
          <mxGeometry x="1367" y="642" width="50" height="26" as="geometry" />
        </mxCell>
        <mxCell id="X3lnQFaPOgWNIHZg0Lux-815" value="Item1" style="rounded=1;whiteSpace=wrap;html=1;fillColor=#ffe6cc;strokeColor=#d79b00;" vertex="1" parent="1">
          <mxGeometry x="1430" y="642" width="50" height="26" as="geometry" />
        </mxCell>
        <mxCell id="X3lnQFaPOgWNIHZg0Lux-816" value="Item2" style="rounded=1;whiteSpace=wrap;html=1;fillColor=#ffe6cc;strokeColor=#d79b00;" vertex="1" parent="1">
          <mxGeometry x="1490" y="642" width="50" height="26" as="geometry" />
        </mxCell>
        <mxCell id="X3lnQFaPOgWNIHZg0Lux-817" value="Item3" style="rounded=1;whiteSpace=wrap;html=1;fillColor=#ffe6cc;strokeColor=#d79b00;" vertex="1" parent="1">
          <mxGeometry x="1550" y="642" width="50" height="26" as="geometry" />
        </mxCell>
        <mxCell id="X3lnQFaPOgWNIHZg0Lux-819" value="用户点击序列" style="text;html=1;strokeColor=none;fillColor=none;align=center;verticalAlign=middle;whiteSpace=wrap;rounded=0;fontSize=8;" vertex="1" parent="1">
          <mxGeometry x="1465" y="677.75" width="100" height="6.25" as="geometry" />
        </mxCell>
        <mxCell id="X3lnQFaPOgWNIHZg0Lux-820" value="Concat" style="rounded=1;whiteSpace=wrap;html=1;labelBorderColor=none;strokeColor=#000000;fontSize=14;fontColor=#000000;fillColor=none;" vertex="1" parent="1">
          <mxGeometry x="1380" y="579" width="65" height="20" as="geometry" />
        </mxCell>
        <mxCell id="X3lnQFaPOgWNIHZg0Lux-821" value="Concat" style="rounded=1;whiteSpace=wrap;html=1;labelBorderColor=none;strokeColor=#000000;fontSize=14;fontColor=#000000;fillColor=none;" vertex="1" parent="1">
          <mxGeometry x="1460" y="579" width="65" height="20" as="geometry" />
        </mxCell>
        <mxCell id="X3lnQFaPOgWNIHZg0Lux-822" value="Concat" style="rounded=1;whiteSpace=wrap;html=1;labelBorderColor=none;strokeColor=#000000;fontSize=14;fontColor=#000000;fillColor=none;" vertex="1" parent="1">
          <mxGeometry x="1540" y="579" width="65" height="20" as="geometry" />
        </mxCell>
        <mxCell id="X3lnQFaPOgWNIHZg0Lux-823" value="1-Layer" style="rounded=1;whiteSpace=wrap;html=1;labelBorderColor=none;strokeColor=#000000;fontSize=14;fontColor=#000000;fillColor=none;" vertex="1" parent="1">
          <mxGeometry x="1380" y="549" width="65" height="20" as="geometry" />
        </mxCell>
        <mxCell id="X3lnQFaPOgWNIHZg0Lux-824" value="1-Layer" style="rounded=1;whiteSpace=wrap;html=1;labelBorderColor=none;strokeColor=#000000;fontSize=14;fontColor=#000000;fillColor=none;" vertex="1" parent="1">
          <mxGeometry x="1460" y="549" width="65" height="20" as="geometry" />
        </mxCell>
        <mxCell id="X3lnQFaPOgWNIHZg0Lux-825" value="1-Layer" style="rounded=1;whiteSpace=wrap;html=1;labelBorderColor=none;strokeColor=#000000;fontSize=14;fontColor=#000000;fillColor=none;" vertex="1" parent="1">
          <mxGeometry x="1540" y="549" width="65" height="20" as="geometry" />
        </mxCell>
        <mxCell id="X3lnQFaPOgWNIHZg0Lux-826" value="Softmax" style="rounded=1;whiteSpace=wrap;html=1;labelBorderColor=none;strokeColor=#000000;fontSize=14;fontColor=#000000;fillColor=none;" vertex="1" parent="1">
          <mxGeometry x="1380" y="519" width="235" height="20" as="geometry" />
        </mxCell>
        <mxCell id="X3lnQFaPOgWNIHZg0Lux-828" value="" style="endArrow=classic;html=1;rounded=0;strokeColor=#000000;fontSize=14;fontColor=#000000;entryX=0.5;entryY=1;entryDx=0;entryDy=0;exitX=0.5;exitY=0;exitDx=0;exitDy=0;edgeStyle=orthogonalEdgeStyle;" edge="1" parent="1" source="X3lnQFaPOgWNIHZg0Lux-814" target="X3lnQFaPOgWNIHZg0Lux-820">
          <mxGeometry width="50" height="50" relative="1" as="geometry">
            <mxPoint x="1310" y="662" as="sourcePoint" />
            <mxPoint x="1360" y="612" as="targetPoint" />
          </mxGeometry>
        </mxCell>
        <mxCell id="X3lnQFaPOgWNIHZg0Lux-830" value="" style="endArrow=classic;html=1;rounded=0;strokeColor=#000000;fontSize=14;fontColor=#000000;entryX=0.5;entryY=1;entryDx=0;entryDy=0;edgeStyle=orthogonalEdgeStyle;exitX=0.5;exitY=0;exitDx=0;exitDy=0;" edge="1" parent="1" source="X3lnQFaPOgWNIHZg0Lux-814" target="X3lnQFaPOgWNIHZg0Lux-821">
          <mxGeometry width="50" height="50" relative="1" as="geometry">
            <mxPoint x="1400" y="622" as="sourcePoint" />
            <mxPoint x="1422.5" y="609" as="targetPoint" />
          </mxGeometry>
        </mxCell>
        <mxCell id="X3lnQFaPOgWNIHZg0Lux-831" value="" style="endArrow=classic;html=1;rounded=0;strokeColor=#000000;fontSize=14;fontColor=#000000;entryX=0.5;entryY=1;entryDx=0;entryDy=0;edgeStyle=orthogonalEdgeStyle;exitX=0.5;exitY=0;exitDx=0;exitDy=0;" edge="1" parent="1" source="X3lnQFaPOgWNIHZg0Lux-814" target="X3lnQFaPOgWNIHZg0Lux-822">
          <mxGeometry width="50" height="50" relative="1" as="geometry">
            <mxPoint x="1700" y="622" as="sourcePoint" />
            <mxPoint x="1502.5" y="609" as="targetPoint" />
          </mxGeometry>
        </mxCell>
        <mxCell id="X3lnQFaPOgWNIHZg0Lux-832" value="" style="endArrow=classic;html=1;rounded=0;strokeColor=#000000;fontSize=14;fontColor=#000000;entryX=0.846;entryY=1.067;entryDx=0;entryDy=0;exitX=0.127;exitY=-0.013;exitDx=0;exitDy=0;entryPerimeter=0;exitPerimeter=0;" edge="1" parent="1" source="X3lnQFaPOgWNIHZg0Lux-815" target="X3lnQFaPOgWNIHZg0Lux-820">
          <mxGeometry width="50" height="50" relative="1" as="geometry">
            <mxPoint x="1402" y="652" as="sourcePoint" />
            <mxPoint x="1422.5" y="609" as="targetPoint" />
          </mxGeometry>
        </mxCell>
        <mxCell id="X3lnQFaPOgWNIHZg0Lux-833" value="" style="endArrow=classic;html=1;rounded=0;strokeColor=#000000;fontSize=14;fontColor=#000000;entryX=0.75;entryY=1;entryDx=0;entryDy=0;exitX=0.393;exitY=-0.064;exitDx=0;exitDy=0;exitPerimeter=0;" edge="1" parent="1" source="X3lnQFaPOgWNIHZg0Lux-816" target="X3lnQFaPOgWNIHZg0Lux-821">
          <mxGeometry width="50" height="50" relative="1" as="geometry">
            <mxPoint x="1465" y="652" as="sourcePoint" />
            <mxPoint x="1433.0300000000002" y="609" as="targetPoint" />
          </mxGeometry>
        </mxCell>
        <mxCell id="X3lnQFaPOgWNIHZg0Lux-834" value="" style="endArrow=classic;html=1;rounded=0;strokeColor=#000000;fontSize=14;fontColor=#000000;entryX=0.75;entryY=1;entryDx=0;entryDy=0;exitX=0.75;exitY=0;exitDx=0;exitDy=0;" edge="1" parent="1" source="X3lnQFaPOgWNIHZg0Lux-817" target="X3lnQFaPOgWNIHZg0Lux-822">
          <mxGeometry width="50" height="50" relative="1" as="geometry">
            <mxPoint x="1519.65" y="650.3359999999999" as="sourcePoint" />
            <mxPoint x="1518.75" y="609" as="targetPoint" />
          </mxGeometry>
        </mxCell>
        <mxCell id="X3lnQFaPOgWNIHZg0Lux-838" value="" style="group" vertex="1" connectable="0" parent="1">
          <mxGeometry x="1400" y="478" width="20" height="18" as="geometry" />
        </mxCell>
        <mxCell id="X3lnQFaPOgWNIHZg0Lux-835" value="" style="ellipse;whiteSpace=wrap;html=1;aspect=fixed;labelBorderColor=none;strokeColor=#000000;fontSize=14;fontColor=#000000;fillColor=none;" vertex="1" parent="X3lnQFaPOgWNIHZg0Lux-838">
          <mxGeometry width="18" height="18" as="geometry" />
        </mxCell>
        <mxCell id="X3lnQFaPOgWNIHZg0Lux-836" value="" style="endArrow=none;html=1;rounded=0;strokeColor=#000000;fontSize=14;fontColor=#000000;entryX=1;entryY=0;entryDx=0;entryDy=0;exitX=0;exitY=1;exitDx=0;exitDy=0;" edge="1" parent="X3lnQFaPOgWNIHZg0Lux-838" source="X3lnQFaPOgWNIHZg0Lux-835" target="X3lnQFaPOgWNIHZg0Lux-835">
          <mxGeometry width="50" height="50" relative="1" as="geometry">
            <mxPoint x="35" y="19.8" as="sourcePoint" />
            <mxPoint x="47.5" y="8.55" as="targetPoint" />
          </mxGeometry>
        </mxCell>
        <mxCell id="X3lnQFaPOgWNIHZg0Lux-837" value="" style="endArrow=none;html=1;rounded=0;strokeColor=#000000;fontSize=14;fontColor=#000000;entryX=0;entryY=0;entryDx=0;entryDy=0;exitX=1;exitY=1;exitDx=0;exitDy=0;" edge="1" parent="X3lnQFaPOgWNIHZg0Lux-838" source="X3lnQFaPOgWNIHZg0Lux-835" target="X3lnQFaPOgWNIHZg0Lux-835">
          <mxGeometry width="50" height="50" relative="1" as="geometry">
            <mxPoint x="5.428932188134581" y="17.613961030678905" as="sourcePoint" />
            <mxPoint x="19.57106781186542" y="4.886038969321098" as="targetPoint" />
          </mxGeometry>
        </mxCell>
        <mxCell id="X3lnQFaPOgWNIHZg0Lux-839" value="" style="group" vertex="1" connectable="0" parent="1">
          <mxGeometry x="1480" y="478" width="20" height="18" as="geometry" />
        </mxCell>
        <mxCell id="X3lnQFaPOgWNIHZg0Lux-840" value="" style="ellipse;whiteSpace=wrap;html=1;aspect=fixed;labelBorderColor=none;strokeColor=#000000;fontSize=14;fontColor=#000000;fillColor=none;" vertex="1" parent="X3lnQFaPOgWNIHZg0Lux-839">
          <mxGeometry width="18" height="18" as="geometry" />
        </mxCell>
        <mxCell id="X3lnQFaPOgWNIHZg0Lux-841" value="" style="endArrow=none;html=1;rounded=0;strokeColor=#000000;fontSize=14;fontColor=#000000;entryX=1;entryY=0;entryDx=0;entryDy=0;exitX=0;exitY=1;exitDx=0;exitDy=0;" edge="1" parent="X3lnQFaPOgWNIHZg0Lux-839" source="X3lnQFaPOgWNIHZg0Lux-840" target="X3lnQFaPOgWNIHZg0Lux-840">
          <mxGeometry width="50" height="50" relative="1" as="geometry">
            <mxPoint x="35" y="19.8" as="sourcePoint" />
            <mxPoint x="47.5" y="8.55" as="targetPoint" />
          </mxGeometry>
        </mxCell>
        <mxCell id="X3lnQFaPOgWNIHZg0Lux-842" value="" style="endArrow=none;html=1;rounded=0;strokeColor=#000000;fontSize=14;fontColor=#000000;entryX=0;entryY=0;entryDx=0;entryDy=0;exitX=1;exitY=1;exitDx=0;exitDy=0;" edge="1" parent="X3lnQFaPOgWNIHZg0Lux-839" source="X3lnQFaPOgWNIHZg0Lux-840" target="X3lnQFaPOgWNIHZg0Lux-840">
          <mxGeometry width="50" height="50" relative="1" as="geometry">
            <mxPoint x="5.428932188134581" y="17.613961030678905" as="sourcePoint" />
            <mxPoint x="19.57106781186542" y="4.886038969321098" as="targetPoint" />
          </mxGeometry>
        </mxCell>
        <mxCell id="X3lnQFaPOgWNIHZg0Lux-843" value="" style="group" vertex="1" connectable="0" parent="1">
          <mxGeometry x="1560" y="478" width="20" height="18" as="geometry" />
        </mxCell>
        <mxCell id="X3lnQFaPOgWNIHZg0Lux-844" value="" style="ellipse;whiteSpace=wrap;html=1;aspect=fixed;labelBorderColor=none;strokeColor=#000000;fontSize=14;fontColor=#000000;fillColor=none;" vertex="1" parent="X3lnQFaPOgWNIHZg0Lux-843">
          <mxGeometry width="18" height="18" as="geometry" />
        </mxCell>
        <mxCell id="X3lnQFaPOgWNIHZg0Lux-845" value="" style="endArrow=none;html=1;rounded=0;strokeColor=#000000;fontSize=14;fontColor=#000000;entryX=1;entryY=0;entryDx=0;entryDy=0;exitX=0;exitY=1;exitDx=0;exitDy=0;" edge="1" parent="X3lnQFaPOgWNIHZg0Lux-843" source="X3lnQFaPOgWNIHZg0Lux-844" target="X3lnQFaPOgWNIHZg0Lux-844">
          <mxGeometry width="50" height="50" relative="1" as="geometry">
            <mxPoint x="35" y="19.8" as="sourcePoint" />
            <mxPoint x="47.5" y="8.55" as="targetPoint" />
          </mxGeometry>
        </mxCell>
        <mxCell id="X3lnQFaPOgWNIHZg0Lux-846" value="" style="endArrow=none;html=1;rounded=0;strokeColor=#000000;fontSize=14;fontColor=#000000;entryX=0;entryY=0;entryDx=0;entryDy=0;exitX=1;exitY=1;exitDx=0;exitDy=0;" edge="1" parent="X3lnQFaPOgWNIHZg0Lux-843" source="X3lnQFaPOgWNIHZg0Lux-844" target="X3lnQFaPOgWNIHZg0Lux-844">
          <mxGeometry width="50" height="50" relative="1" as="geometry">
            <mxPoint x="5.428932188134581" y="17.613961030678905" as="sourcePoint" />
            <mxPoint x="19.57106781186542" y="4.886038969321098" as="targetPoint" />
          </mxGeometry>
        </mxCell>
        <mxCell id="X3lnQFaPOgWNIHZg0Lux-847" value="" style="group" vertex="1" connectable="0" parent="1">
          <mxGeometry x="1480" y="446" width="20" height="18" as="geometry" />
        </mxCell>
        <mxCell id="X3lnQFaPOgWNIHZg0Lux-848" value="" style="ellipse;whiteSpace=wrap;html=1;aspect=fixed;labelBorderColor=none;strokeColor=#000000;fontSize=14;fontColor=#000000;fillColor=none;" vertex="1" parent="X3lnQFaPOgWNIHZg0Lux-847">
          <mxGeometry width="18" height="18" as="geometry" />
        </mxCell>
        <mxCell id="X3lnQFaPOgWNIHZg0Lux-849" value="" style="endArrow=none;html=1;rounded=0;strokeColor=#000000;fontSize=14;fontColor=#000000;entryX=1;entryY=0;entryDx=0;entryDy=0;exitX=0;exitY=1;exitDx=0;exitDy=0;" edge="1" parent="X3lnQFaPOgWNIHZg0Lux-847" source="X3lnQFaPOgWNIHZg0Lux-848" target="X3lnQFaPOgWNIHZg0Lux-848">
          <mxGeometry width="50" height="50" relative="1" as="geometry">
            <mxPoint x="35" y="19.8" as="sourcePoint" />
            <mxPoint x="47.5" y="8.55" as="targetPoint" />
          </mxGeometry>
        </mxCell>
        <mxCell id="X3lnQFaPOgWNIHZg0Lux-850" value="" style="endArrow=none;html=1;rounded=0;strokeColor=#000000;fontSize=14;fontColor=#000000;entryX=0;entryY=0;entryDx=0;entryDy=0;exitX=1;exitY=1;exitDx=0;exitDy=0;" edge="1" parent="X3lnQFaPOgWNIHZg0Lux-847" source="X3lnQFaPOgWNIHZg0Lux-848" target="X3lnQFaPOgWNIHZg0Lux-848">
          <mxGeometry width="50" height="50" relative="1" as="geometry">
            <mxPoint x="5.428932188134581" y="17.613961030678905" as="sourcePoint" />
            <mxPoint x="19.57106781186542" y="4.886038969321098" as="targetPoint" />
          </mxGeometry>
        </mxCell>
        <mxCell id="X3lnQFaPOgWNIHZg0Lux-851" value="" style="endArrow=classic;html=1;rounded=0;strokeColor=#000000;fontSize=14;fontColor=#000000;entryX=0.846;entryY=1.067;entryDx=0;entryDy=0;entryPerimeter=0;exitX=0.129;exitY=0.033;exitDx=0;exitDy=0;exitPerimeter=0;" edge="1" parent="1" source="X3lnQFaPOgWNIHZg0Lux-826">
          <mxGeometry width="50" height="50" relative="1" as="geometry">
            <mxPoint x="1411" y="512" as="sourcePoint" />
            <mxPoint x="1409.9900000000002" y="496.34000000000003" as="targetPoint" />
          </mxGeometry>
        </mxCell>
        <mxCell id="X3lnQFaPOgWNIHZg0Lux-852" value="" style="endArrow=classic;html=1;rounded=0;strokeColor=#000000;fontSize=14;fontColor=#000000;entryX=0.846;entryY=1.067;entryDx=0;entryDy=0;entryPerimeter=0;exitX=0.129;exitY=0.033;exitDx=0;exitDy=0;exitPerimeter=0;" edge="1" parent="1">
          <mxGeometry width="50" height="50" relative="1" as="geometry">
            <mxPoint x="1490.315" y="519.66" as="sourcePoint" />
            <mxPoint x="1489.9900000000002" y="496.34000000000003" as="targetPoint" />
          </mxGeometry>
        </mxCell>
        <mxCell id="X3lnQFaPOgWNIHZg0Lux-853" value="" style="endArrow=classic;html=1;rounded=0;strokeColor=#000000;fontSize=14;fontColor=#000000;entryX=0.846;entryY=1.067;entryDx=0;entryDy=0;entryPerimeter=0;exitX=0.129;exitY=0.033;exitDx=0;exitDy=0;exitPerimeter=0;" edge="1" parent="1">
          <mxGeometry width="50" height="50" relative="1" as="geometry">
            <mxPoint x="1570.315" y="519.66" as="sourcePoint" />
            <mxPoint x="1569.9900000000002" y="496.34000000000003" as="targetPoint" />
          </mxGeometry>
        </mxCell>
        <mxCell id="X3lnQFaPOgWNIHZg0Lux-854" value="" style="endArrow=classic;html=1;rounded=0;strokeColor=#000000;fontSize=14;fontColor=#000000;entryX=0.846;entryY=1.067;entryDx=0;entryDy=0;entryPerimeter=0;" edge="1" parent="1">
          <mxGeometry width="50" height="50" relative="1" as="geometry">
            <mxPoint x="1490" y="479" as="sourcePoint" />
            <mxPoint x="1489.9900000000002" y="463.34000000000003" as="targetPoint" />
          </mxGeometry>
        </mxCell>
        <mxCell id="X3lnQFaPOgWNIHZg0Lux-856" value="" style="endArrow=classic;html=1;rounded=0;strokeColor=#000000;fontSize=14;fontColor=#000000;exitX=0.5;exitY=0;exitDx=0;exitDy=0;entryX=1;entryY=0.5;entryDx=0;entryDy=0;edgeStyle=orthogonalEdgeStyle;" edge="1" parent="1" source="X3lnQFaPOgWNIHZg0Lux-815" target="X3lnQFaPOgWNIHZg0Lux-835">
          <mxGeometry width="50" height="50" relative="1" as="geometry">
            <mxPoint x="1420" y="492" as="sourcePoint" />
            <mxPoint x="1470" y="442" as="targetPoint" />
          </mxGeometry>
        </mxCell>
        <mxCell id="X3lnQFaPOgWNIHZg0Lux-857" value="" style="endArrow=classic;html=1;rounded=0;strokeColor=#000000;fontSize=14;fontColor=#000000;exitX=0.75;exitY=0;exitDx=0;exitDy=0;entryX=1;entryY=0.5;entryDx=0;entryDy=0;edgeStyle=orthogonalEdgeStyle;" edge="1" parent="1" source="X3lnQFaPOgWNIHZg0Lux-816" target="X3lnQFaPOgWNIHZg0Lux-840">
          <mxGeometry width="50" height="50" relative="1" as="geometry">
            <mxPoint x="1528.75" y="509" as="sourcePoint" />
            <mxPoint x="1508" y="477" as="targetPoint" />
          </mxGeometry>
        </mxCell>
        <mxCell id="X3lnQFaPOgWNIHZg0Lux-858" value="" style="endArrow=classic;html=1;rounded=0;strokeColor=#000000;fontSize=14;fontColor=#000000;exitX=1;exitY=0.5;exitDx=0;exitDy=0;entryX=1;entryY=0.5;entryDx=0;entryDy=0;edgeStyle=orthogonalEdgeStyle;" edge="1" parent="1" source="X3lnQFaPOgWNIHZg0Lux-817" target="X3lnQFaPOgWNIHZg0Lux-844">
          <mxGeometry width="50" height="50" relative="1" as="geometry">
            <mxPoint x="1522.3049999999998" y="529.66" as="sourcePoint" />
            <mxPoint x="1508" y="497" as="targetPoint" />
          </mxGeometry>
        </mxCell>
        <mxCell id="X3lnQFaPOgWNIHZg0Lux-860" value="" style="endArrow=classic;html=1;rounded=0;strokeColor=#000000;fontSize=14;fontColor=#000000;exitX=0.5;exitY=0;exitDx=0;exitDy=0;entryX=0;entryY=0.5;entryDx=0;entryDy=0;edgeStyle=orthogonalEdgeStyle;" edge="1" parent="1" source="X3lnQFaPOgWNIHZg0Lux-835" target="X3lnQFaPOgWNIHZg0Lux-848">
          <mxGeometry width="50" height="50" relative="1" as="geometry">
            <mxPoint x="1390" y="462" as="sourcePoint" />
            <mxPoint x="1440" y="412" as="targetPoint" />
          </mxGeometry>
        </mxCell>
        <mxCell id="X3lnQFaPOgWNIHZg0Lux-861" value="" style="endArrow=classic;html=1;rounded=0;strokeColor=#000000;fontSize=14;fontColor=#000000;exitX=0.5;exitY=0;exitDx=0;exitDy=0;entryX=1;entryY=0.5;entryDx=0;entryDy=0;edgeStyle=orthogonalEdgeStyle;" edge="1" parent="1" source="X3lnQFaPOgWNIHZg0Lux-844" target="X3lnQFaPOgWNIHZg0Lux-848">
          <mxGeometry width="50" height="50" relative="1" as="geometry">
            <mxPoint x="1530" y="462" as="sourcePoint" />
            <mxPoint x="1580" y="412" as="targetPoint" />
          </mxGeometry>
        </mxCell>
        <mxCell id="X3lnQFaPOgWNIHZg0Lux-863" value="&lt;font size=&quot;1&quot; color=&quot;#000000&quot;&gt;&lt;b style=&quot;font-size: 16px;&quot;&gt;Target Attention&lt;/b&gt;&lt;/font&gt;" style="text;html=1;strokeColor=none;fillColor=none;align=center;verticalAlign=middle;whiteSpace=wrap;rounded=0;dashed=1;fontColor=#707070;opacity=1;" vertex="1" parent="1">
          <mxGeometry x="1310" y="422" width="130" height="30" as="geometry" />
        </mxCell>
        <mxCell id="X3lnQFaPOgWNIHZg0Lux-864" value="&lt;font style=&quot;font-size: 19px;&quot; color=&quot;#707070&quot;&gt;点击&lt;/font&gt;" style="text;html=1;strokeColor=none;fillColor=none;align=center;verticalAlign=middle;whiteSpace=wrap;rounded=0;dashed=1;opacity=1;" vertex="1" parent="1">
          <mxGeometry x="1250" y="496" width="20" height="60" as="geometry" />
        </mxCell>
        <mxCell id="X3lnQFaPOgWNIHZg0Lux-865" value="" style="rounded=1;whiteSpace=wrap;html=1;strokeColor=#d6b656;fontSize=16;fillColor=#fff2cc;" vertex="1" parent="1">
          <mxGeometry x="1680" y="412" width="370" height="200" as="geometry" />
        </mxCell>
        <mxCell id="X3lnQFaPOgWNIHZg0Lux-866" value="" style="rounded=1;whiteSpace=wrap;html=1;labelBorderColor=default;strokeColor=#67AB9F;fontSize=14;fontColor=#000000;fillColor=none;" vertex="1" parent="1">
          <mxGeometry x="1814" y="632" width="196" height="60" as="geometry" />
        </mxCell>
        <mxCell id="X3lnQFaPOgWNIHZg0Lux-867" value="Target" style="rounded=1;whiteSpace=wrap;html=1;fillColor=#99CCFF;strokeColor=#23445d;" vertex="1" parent="1">
          <mxGeometry x="1757" y="642" width="50" height="26" as="geometry" />
        </mxCell>
        <mxCell id="X3lnQFaPOgWNIHZg0Lux-868" value="Item1" style="rounded=1;whiteSpace=wrap;html=1;fillColor=#ffe6cc;strokeColor=#d79b00;" vertex="1" parent="1">
          <mxGeometry x="1820" y="642" width="50" height="26" as="geometry" />
        </mxCell>
        <mxCell id="X3lnQFaPOgWNIHZg0Lux-869" value="Item2" style="rounded=1;whiteSpace=wrap;html=1;fillColor=#ffe6cc;strokeColor=#d79b00;" vertex="1" parent="1">
          <mxGeometry x="1880" y="642" width="50" height="26" as="geometry" />
        </mxCell>
        <mxCell id="X3lnQFaPOgWNIHZg0Lux-870" value="Item3" style="rounded=1;whiteSpace=wrap;html=1;fillColor=#ffe6cc;strokeColor=#d79b00;" vertex="1" parent="1">
          <mxGeometry x="1940" y="642" width="50" height="26" as="geometry" />
        </mxCell>
        <mxCell id="X3lnQFaPOgWNIHZg0Lux-871" value="用户点击序列" style="text;html=1;strokeColor=none;fillColor=none;align=center;verticalAlign=middle;whiteSpace=wrap;rounded=0;fontSize=8;" vertex="1" parent="1">
          <mxGeometry x="1855" y="677.75" width="100" height="6.25" as="geometry" />
        </mxCell>
        <mxCell id="X3lnQFaPOgWNIHZg0Lux-872" value="Concat" style="rounded=1;whiteSpace=wrap;html=1;labelBorderColor=none;strokeColor=#000000;fontSize=14;fontColor=#000000;fillColor=none;" vertex="1" parent="1">
          <mxGeometry x="1770" y="579" width="65" height="20" as="geometry" />
        </mxCell>
        <mxCell id="X3lnQFaPOgWNIHZg0Lux-873" value="Concat" style="rounded=1;whiteSpace=wrap;html=1;labelBorderColor=none;strokeColor=#000000;fontSize=14;fontColor=#000000;fillColor=none;" vertex="1" parent="1">
          <mxGeometry x="1850" y="579" width="65" height="20" as="geometry" />
        </mxCell>
        <mxCell id="X3lnQFaPOgWNIHZg0Lux-874" value="Concat" style="rounded=1;whiteSpace=wrap;html=1;labelBorderColor=none;strokeColor=#000000;fontSize=14;fontColor=#000000;fillColor=none;" vertex="1" parent="1">
          <mxGeometry x="1930" y="579" width="65" height="20" as="geometry" />
        </mxCell>
        <mxCell id="X3lnQFaPOgWNIHZg0Lux-875" value="1-Layer" style="rounded=1;whiteSpace=wrap;html=1;labelBorderColor=none;strokeColor=#000000;fontSize=14;fontColor=#000000;fillColor=none;" vertex="1" parent="1">
          <mxGeometry x="1770" y="549" width="65" height="20" as="geometry" />
        </mxCell>
        <mxCell id="X3lnQFaPOgWNIHZg0Lux-876" value="1-Layer" style="rounded=1;whiteSpace=wrap;html=1;labelBorderColor=none;strokeColor=#000000;fontSize=14;fontColor=#000000;fillColor=none;" vertex="1" parent="1">
          <mxGeometry x="1850" y="549" width="65" height="20" as="geometry" />
        </mxCell>
        <mxCell id="X3lnQFaPOgWNIHZg0Lux-877" value="1-Layer" style="rounded=1;whiteSpace=wrap;html=1;labelBorderColor=none;strokeColor=#000000;fontSize=14;fontColor=#000000;fillColor=none;" vertex="1" parent="1">
          <mxGeometry x="1930" y="549" width="65" height="20" as="geometry" />
        </mxCell>
        <mxCell id="X3lnQFaPOgWNIHZg0Lux-878" value="Softmax" style="rounded=1;whiteSpace=wrap;html=1;labelBorderColor=none;strokeColor=#000000;fontSize=14;fontColor=#000000;fillColor=none;" vertex="1" parent="1">
          <mxGeometry x="1770" y="519" width="235" height="20" as="geometry" />
        </mxCell>
        <mxCell id="X3lnQFaPOgWNIHZg0Lux-879" value="" style="endArrow=classic;html=1;rounded=0;strokeColor=#000000;fontSize=14;fontColor=#000000;entryX=0.5;entryY=1;entryDx=0;entryDy=0;exitX=0.5;exitY=0;exitDx=0;exitDy=0;edgeStyle=orthogonalEdgeStyle;" edge="1" parent="1" source="X3lnQFaPOgWNIHZg0Lux-867" target="X3lnQFaPOgWNIHZg0Lux-872">
          <mxGeometry width="50" height="50" relative="1" as="geometry">
            <mxPoint x="1700" y="662" as="sourcePoint" />
            <mxPoint x="1750" y="612" as="targetPoint" />
          </mxGeometry>
        </mxCell>
        <mxCell id="X3lnQFaPOgWNIHZg0Lux-880" value="" style="endArrow=classic;html=1;rounded=0;strokeColor=#000000;fontSize=14;fontColor=#000000;entryX=0.5;entryY=1;entryDx=0;entryDy=0;edgeStyle=orthogonalEdgeStyle;exitX=0.5;exitY=0;exitDx=0;exitDy=0;" edge="1" parent="1" source="X3lnQFaPOgWNIHZg0Lux-867" target="X3lnQFaPOgWNIHZg0Lux-873">
          <mxGeometry width="50" height="50" relative="1" as="geometry">
            <mxPoint x="1790" y="622" as="sourcePoint" />
            <mxPoint x="1812.5" y="609" as="targetPoint" />
          </mxGeometry>
        </mxCell>
        <mxCell id="X3lnQFaPOgWNIHZg0Lux-881" value="" style="endArrow=classic;html=1;rounded=0;strokeColor=#000000;fontSize=14;fontColor=#000000;entryX=0.5;entryY=1;entryDx=0;entryDy=0;edgeStyle=orthogonalEdgeStyle;exitX=0.5;exitY=0;exitDx=0;exitDy=0;" edge="1" parent="1" source="X3lnQFaPOgWNIHZg0Lux-867" target="X3lnQFaPOgWNIHZg0Lux-874">
          <mxGeometry width="50" height="50" relative="1" as="geometry">
            <mxPoint x="2090" y="622" as="sourcePoint" />
            <mxPoint x="1892.5" y="609" as="targetPoint" />
          </mxGeometry>
        </mxCell>
        <mxCell id="X3lnQFaPOgWNIHZg0Lux-882" value="" style="endArrow=classic;html=1;rounded=0;strokeColor=#000000;fontSize=14;fontColor=#000000;entryX=0.846;entryY=1.067;entryDx=0;entryDy=0;exitX=0.127;exitY=-0.013;exitDx=0;exitDy=0;entryPerimeter=0;exitPerimeter=0;" edge="1" parent="1" source="X3lnQFaPOgWNIHZg0Lux-868" target="X3lnQFaPOgWNIHZg0Lux-872">
          <mxGeometry width="50" height="50" relative="1" as="geometry">
            <mxPoint x="1792" y="652" as="sourcePoint" />
            <mxPoint x="1812.5" y="609" as="targetPoint" />
          </mxGeometry>
        </mxCell>
        <mxCell id="X3lnQFaPOgWNIHZg0Lux-883" value="" style="endArrow=classic;html=1;rounded=0;strokeColor=#000000;fontSize=14;fontColor=#000000;entryX=0.75;entryY=1;entryDx=0;entryDy=0;exitX=0.393;exitY=-0.064;exitDx=0;exitDy=0;exitPerimeter=0;" edge="1" parent="1" source="X3lnQFaPOgWNIHZg0Lux-869" target="X3lnQFaPOgWNIHZg0Lux-873">
          <mxGeometry width="50" height="50" relative="1" as="geometry">
            <mxPoint x="1855" y="652" as="sourcePoint" />
            <mxPoint x="1823.0300000000002" y="609" as="targetPoint" />
          </mxGeometry>
        </mxCell>
        <mxCell id="X3lnQFaPOgWNIHZg0Lux-884" value="" style="endArrow=classic;html=1;rounded=0;strokeColor=#000000;fontSize=14;fontColor=#000000;entryX=0.75;entryY=1;entryDx=0;entryDy=0;exitX=0.75;exitY=0;exitDx=0;exitDy=0;" edge="1" parent="1" source="X3lnQFaPOgWNIHZg0Lux-870" target="X3lnQFaPOgWNIHZg0Lux-874">
          <mxGeometry width="50" height="50" relative="1" as="geometry">
            <mxPoint x="1909.65" y="650.3359999999999" as="sourcePoint" />
            <mxPoint x="1908.75" y="609" as="targetPoint" />
          </mxGeometry>
        </mxCell>
        <mxCell id="X3lnQFaPOgWNIHZg0Lux-885" value="" style="group" vertex="1" connectable="0" parent="1">
          <mxGeometry x="1790" y="478" width="20" height="18" as="geometry" />
        </mxCell>
        <mxCell id="X3lnQFaPOgWNIHZg0Lux-886" value="" style="ellipse;whiteSpace=wrap;html=1;aspect=fixed;labelBorderColor=none;strokeColor=#000000;fontSize=14;fontColor=#000000;fillColor=none;" vertex="1" parent="X3lnQFaPOgWNIHZg0Lux-885">
          <mxGeometry width="18" height="18" as="geometry" />
        </mxCell>
        <mxCell id="X3lnQFaPOgWNIHZg0Lux-887" value="" style="endArrow=none;html=1;rounded=0;strokeColor=#000000;fontSize=14;fontColor=#000000;entryX=1;entryY=0;entryDx=0;entryDy=0;exitX=0;exitY=1;exitDx=0;exitDy=0;" edge="1" parent="X3lnQFaPOgWNIHZg0Lux-885" source="X3lnQFaPOgWNIHZg0Lux-886" target="X3lnQFaPOgWNIHZg0Lux-886">
          <mxGeometry width="50" height="50" relative="1" as="geometry">
            <mxPoint x="35" y="19.8" as="sourcePoint" />
            <mxPoint x="47.5" y="8.55" as="targetPoint" />
          </mxGeometry>
        </mxCell>
        <mxCell id="X3lnQFaPOgWNIHZg0Lux-888" value="" style="endArrow=none;html=1;rounded=0;strokeColor=#000000;fontSize=14;fontColor=#000000;entryX=0;entryY=0;entryDx=0;entryDy=0;exitX=1;exitY=1;exitDx=0;exitDy=0;" edge="1" parent="X3lnQFaPOgWNIHZg0Lux-885" source="X3lnQFaPOgWNIHZg0Lux-886" target="X3lnQFaPOgWNIHZg0Lux-886">
          <mxGeometry width="50" height="50" relative="1" as="geometry">
            <mxPoint x="5.428932188134581" y="17.613961030678905" as="sourcePoint" />
            <mxPoint x="19.57106781186542" y="4.886038969321098" as="targetPoint" />
          </mxGeometry>
        </mxCell>
        <mxCell id="X3lnQFaPOgWNIHZg0Lux-889" value="" style="group" vertex="1" connectable="0" parent="1">
          <mxGeometry x="1870" y="478" width="20" height="18" as="geometry" />
        </mxCell>
        <mxCell id="X3lnQFaPOgWNIHZg0Lux-890" value="" style="ellipse;whiteSpace=wrap;html=1;aspect=fixed;labelBorderColor=none;strokeColor=#000000;fontSize=14;fontColor=#000000;fillColor=none;" vertex="1" parent="X3lnQFaPOgWNIHZg0Lux-889">
          <mxGeometry width="18" height="18" as="geometry" />
        </mxCell>
        <mxCell id="X3lnQFaPOgWNIHZg0Lux-891" value="" style="endArrow=none;html=1;rounded=0;strokeColor=#000000;fontSize=14;fontColor=#000000;entryX=1;entryY=0;entryDx=0;entryDy=0;exitX=0;exitY=1;exitDx=0;exitDy=0;" edge="1" parent="X3lnQFaPOgWNIHZg0Lux-889" source="X3lnQFaPOgWNIHZg0Lux-890" target="X3lnQFaPOgWNIHZg0Lux-890">
          <mxGeometry width="50" height="50" relative="1" as="geometry">
            <mxPoint x="35" y="19.8" as="sourcePoint" />
            <mxPoint x="47.5" y="8.55" as="targetPoint" />
          </mxGeometry>
        </mxCell>
        <mxCell id="X3lnQFaPOgWNIHZg0Lux-892" value="" style="endArrow=none;html=1;rounded=0;strokeColor=#000000;fontSize=14;fontColor=#000000;entryX=0;entryY=0;entryDx=0;entryDy=0;exitX=1;exitY=1;exitDx=0;exitDy=0;" edge="1" parent="X3lnQFaPOgWNIHZg0Lux-889" source="X3lnQFaPOgWNIHZg0Lux-890" target="X3lnQFaPOgWNIHZg0Lux-890">
          <mxGeometry width="50" height="50" relative="1" as="geometry">
            <mxPoint x="5.428932188134581" y="17.613961030678905" as="sourcePoint" />
            <mxPoint x="19.57106781186542" y="4.886038969321098" as="targetPoint" />
          </mxGeometry>
        </mxCell>
        <mxCell id="X3lnQFaPOgWNIHZg0Lux-893" value="" style="group" vertex="1" connectable="0" parent="1">
          <mxGeometry x="1950" y="478" width="20" height="18" as="geometry" />
        </mxCell>
        <mxCell id="X3lnQFaPOgWNIHZg0Lux-894" value="" style="ellipse;whiteSpace=wrap;html=1;aspect=fixed;labelBorderColor=none;strokeColor=#000000;fontSize=14;fontColor=#000000;fillColor=none;" vertex="1" parent="X3lnQFaPOgWNIHZg0Lux-893">
          <mxGeometry width="18" height="18" as="geometry" />
        </mxCell>
        <mxCell id="X3lnQFaPOgWNIHZg0Lux-895" value="" style="endArrow=none;html=1;rounded=0;strokeColor=#000000;fontSize=14;fontColor=#000000;entryX=1;entryY=0;entryDx=0;entryDy=0;exitX=0;exitY=1;exitDx=0;exitDy=0;" edge="1" parent="X3lnQFaPOgWNIHZg0Lux-893" source="X3lnQFaPOgWNIHZg0Lux-894" target="X3lnQFaPOgWNIHZg0Lux-894">
          <mxGeometry width="50" height="50" relative="1" as="geometry">
            <mxPoint x="35" y="19.8" as="sourcePoint" />
            <mxPoint x="47.5" y="8.55" as="targetPoint" />
          </mxGeometry>
        </mxCell>
        <mxCell id="X3lnQFaPOgWNIHZg0Lux-896" value="" style="endArrow=none;html=1;rounded=0;strokeColor=#000000;fontSize=14;fontColor=#000000;entryX=0;entryY=0;entryDx=0;entryDy=0;exitX=1;exitY=1;exitDx=0;exitDy=0;" edge="1" parent="X3lnQFaPOgWNIHZg0Lux-893" source="X3lnQFaPOgWNIHZg0Lux-894" target="X3lnQFaPOgWNIHZg0Lux-894">
          <mxGeometry width="50" height="50" relative="1" as="geometry">
            <mxPoint x="5.428932188134581" y="17.613961030678905" as="sourcePoint" />
            <mxPoint x="19.57106781186542" y="4.886038969321098" as="targetPoint" />
          </mxGeometry>
        </mxCell>
        <mxCell id="X3lnQFaPOgWNIHZg0Lux-897" value="" style="group" vertex="1" connectable="0" parent="1">
          <mxGeometry x="1870" y="446" width="20" height="18" as="geometry" />
        </mxCell>
        <mxCell id="X3lnQFaPOgWNIHZg0Lux-898" value="" style="ellipse;whiteSpace=wrap;html=1;aspect=fixed;labelBorderColor=none;strokeColor=#000000;fontSize=14;fontColor=#000000;fillColor=none;" vertex="1" parent="X3lnQFaPOgWNIHZg0Lux-897">
          <mxGeometry width="18" height="18" as="geometry" />
        </mxCell>
        <mxCell id="X3lnQFaPOgWNIHZg0Lux-899" value="" style="endArrow=none;html=1;rounded=0;strokeColor=#000000;fontSize=14;fontColor=#000000;entryX=1;entryY=0;entryDx=0;entryDy=0;exitX=0;exitY=1;exitDx=0;exitDy=0;" edge="1" parent="X3lnQFaPOgWNIHZg0Lux-897" source="X3lnQFaPOgWNIHZg0Lux-898" target="X3lnQFaPOgWNIHZg0Lux-898">
          <mxGeometry width="50" height="50" relative="1" as="geometry">
            <mxPoint x="35" y="19.8" as="sourcePoint" />
            <mxPoint x="47.5" y="8.55" as="targetPoint" />
          </mxGeometry>
        </mxCell>
        <mxCell id="X3lnQFaPOgWNIHZg0Lux-900" value="" style="endArrow=none;html=1;rounded=0;strokeColor=#000000;fontSize=14;fontColor=#000000;entryX=0;entryY=0;entryDx=0;entryDy=0;exitX=1;exitY=1;exitDx=0;exitDy=0;" edge="1" parent="X3lnQFaPOgWNIHZg0Lux-897" source="X3lnQFaPOgWNIHZg0Lux-898" target="X3lnQFaPOgWNIHZg0Lux-898">
          <mxGeometry width="50" height="50" relative="1" as="geometry">
            <mxPoint x="5.428932188134581" y="17.613961030678905" as="sourcePoint" />
            <mxPoint x="19.57106781186542" y="4.886038969321098" as="targetPoint" />
          </mxGeometry>
        </mxCell>
        <mxCell id="X3lnQFaPOgWNIHZg0Lux-901" value="" style="endArrow=classic;html=1;rounded=0;strokeColor=#000000;fontSize=14;fontColor=#000000;entryX=0.846;entryY=1.067;entryDx=0;entryDy=0;entryPerimeter=0;exitX=0.129;exitY=0.033;exitDx=0;exitDy=0;exitPerimeter=0;" edge="1" parent="1" source="X3lnQFaPOgWNIHZg0Lux-878">
          <mxGeometry width="50" height="50" relative="1" as="geometry">
            <mxPoint x="1801" y="512" as="sourcePoint" />
            <mxPoint x="1799.9900000000002" y="496.34000000000015" as="targetPoint" />
          </mxGeometry>
        </mxCell>
        <mxCell id="X3lnQFaPOgWNIHZg0Lux-902" value="" style="endArrow=classic;html=1;rounded=0;strokeColor=#000000;fontSize=14;fontColor=#000000;entryX=0.846;entryY=1.067;entryDx=0;entryDy=0;entryPerimeter=0;exitX=0.129;exitY=0.033;exitDx=0;exitDy=0;exitPerimeter=0;" edge="1" parent="1">
          <mxGeometry width="50" height="50" relative="1" as="geometry">
            <mxPoint x="1880.315" y="519.6599999999999" as="sourcePoint" />
            <mxPoint x="1879.9900000000002" y="496.34000000000015" as="targetPoint" />
          </mxGeometry>
        </mxCell>
        <mxCell id="X3lnQFaPOgWNIHZg0Lux-903" value="" style="endArrow=classic;html=1;rounded=0;strokeColor=#000000;fontSize=14;fontColor=#000000;entryX=0.846;entryY=1.067;entryDx=0;entryDy=0;entryPerimeter=0;exitX=0.129;exitY=0.033;exitDx=0;exitDy=0;exitPerimeter=0;" edge="1" parent="1">
          <mxGeometry width="50" height="50" relative="1" as="geometry">
            <mxPoint x="1960.315" y="519.6599999999999" as="sourcePoint" />
            <mxPoint x="1959.9900000000002" y="496.34000000000015" as="targetPoint" />
          </mxGeometry>
        </mxCell>
        <mxCell id="X3lnQFaPOgWNIHZg0Lux-904" value="" style="endArrow=classic;html=1;rounded=0;strokeColor=#000000;fontSize=14;fontColor=#000000;entryX=0.846;entryY=1.067;entryDx=0;entryDy=0;entryPerimeter=0;" edge="1" parent="1">
          <mxGeometry width="50" height="50" relative="1" as="geometry">
            <mxPoint x="1880" y="479" as="sourcePoint" />
            <mxPoint x="1879.9900000000002" y="463.34000000000015" as="targetPoint" />
          </mxGeometry>
        </mxCell>
        <mxCell id="X3lnQFaPOgWNIHZg0Lux-905" value="" style="endArrow=classic;html=1;rounded=0;strokeColor=#000000;fontSize=14;fontColor=#000000;exitX=0.5;exitY=0;exitDx=0;exitDy=0;entryX=1;entryY=0.5;entryDx=0;entryDy=0;edgeStyle=orthogonalEdgeStyle;" edge="1" parent="1" source="X3lnQFaPOgWNIHZg0Lux-868" target="X3lnQFaPOgWNIHZg0Lux-886">
          <mxGeometry width="50" height="50" relative="1" as="geometry">
            <mxPoint x="1810" y="492" as="sourcePoint" />
            <mxPoint x="1860" y="442" as="targetPoint" />
          </mxGeometry>
        </mxCell>
        <mxCell id="X3lnQFaPOgWNIHZg0Lux-906" value="" style="endArrow=classic;html=1;rounded=0;strokeColor=#000000;fontSize=14;fontColor=#000000;exitX=0.75;exitY=0;exitDx=0;exitDy=0;entryX=1;entryY=0.5;entryDx=0;entryDy=0;edgeStyle=orthogonalEdgeStyle;" edge="1" parent="1" source="X3lnQFaPOgWNIHZg0Lux-869" target="X3lnQFaPOgWNIHZg0Lux-890">
          <mxGeometry width="50" height="50" relative="1" as="geometry">
            <mxPoint x="1918.75" y="509" as="sourcePoint" />
            <mxPoint x="1898" y="477" as="targetPoint" />
          </mxGeometry>
        </mxCell>
        <mxCell id="X3lnQFaPOgWNIHZg0Lux-907" value="" style="endArrow=classic;html=1;rounded=0;strokeColor=#000000;fontSize=14;fontColor=#000000;exitX=1;exitY=0.5;exitDx=0;exitDy=0;entryX=1;entryY=0.5;entryDx=0;entryDy=0;edgeStyle=orthogonalEdgeStyle;" edge="1" parent="1" source="X3lnQFaPOgWNIHZg0Lux-870" target="X3lnQFaPOgWNIHZg0Lux-894">
          <mxGeometry width="50" height="50" relative="1" as="geometry">
            <mxPoint x="1912.3049999999998" y="529.66" as="sourcePoint" />
            <mxPoint x="1898" y="497" as="targetPoint" />
          </mxGeometry>
        </mxCell>
        <mxCell id="X3lnQFaPOgWNIHZg0Lux-908" value="" style="endArrow=classic;html=1;rounded=0;strokeColor=#000000;fontSize=14;fontColor=#000000;exitX=0.5;exitY=0;exitDx=0;exitDy=0;entryX=0;entryY=0.5;entryDx=0;entryDy=0;edgeStyle=orthogonalEdgeStyle;" edge="1" parent="1" source="X3lnQFaPOgWNIHZg0Lux-886" target="X3lnQFaPOgWNIHZg0Lux-898">
          <mxGeometry width="50" height="50" relative="1" as="geometry">
            <mxPoint x="1780" y="462" as="sourcePoint" />
            <mxPoint x="1830" y="412" as="targetPoint" />
          </mxGeometry>
        </mxCell>
        <mxCell id="X3lnQFaPOgWNIHZg0Lux-909" value="" style="endArrow=classic;html=1;rounded=0;strokeColor=#000000;fontSize=14;fontColor=#000000;exitX=0.5;exitY=0;exitDx=0;exitDy=0;entryX=1;entryY=0.5;entryDx=0;entryDy=0;edgeStyle=orthogonalEdgeStyle;" edge="1" parent="1" source="X3lnQFaPOgWNIHZg0Lux-894" target="X3lnQFaPOgWNIHZg0Lux-898">
          <mxGeometry width="50" height="50" relative="1" as="geometry">
            <mxPoint x="1920" y="462" as="sourcePoint" />
            <mxPoint x="1970" y="412" as="targetPoint" />
          </mxGeometry>
        </mxCell>
        <mxCell id="X3lnQFaPOgWNIHZg0Lux-910" value="&lt;font size=&quot;1&quot; color=&quot;#000000&quot;&gt;&lt;b style=&quot;font-size: 16px;&quot;&gt;Target Attention&lt;/b&gt;&lt;/font&gt;" style="text;html=1;strokeColor=none;fillColor=none;align=center;verticalAlign=middle;whiteSpace=wrap;rounded=0;dashed=1;fontColor=#707070;opacity=1;" vertex="1" parent="1">
          <mxGeometry x="1700" y="422" width="130" height="30" as="geometry" />
        </mxCell>
        <mxCell id="X3lnQFaPOgWNIHZg0Lux-911" value="&lt;font style=&quot;font-size: 19px;&quot; color=&quot;#707070&quot;&gt;成交&lt;/font&gt;" style="text;html=1;strokeColor=none;fillColor=none;align=center;verticalAlign=middle;whiteSpace=wrap;rounded=0;dashed=1;opacity=1;" vertex="1" parent="1">
          <mxGeometry x="2070" y="496" width="20" height="60" as="geometry" />
        </mxCell>
        <mxCell id="X3lnQFaPOgWNIHZg0Lux-913" value="&lt;font size=&quot;1&quot; color=&quot;#000000&quot;&gt;&lt;b style=&quot;font-size: 19px;&quot;&gt;Sequence: 序列个性化&lt;/b&gt;&lt;/font&gt;" style="text;html=1;strokeColor=none;fillColor=none;align=center;verticalAlign=middle;whiteSpace=wrap;rounded=0;dashed=1;fontColor=#707070;opacity=1;" vertex="1" parent="1">
          <mxGeometry x="1530" y="342" width="210" height="30" as="geometry" />
        </mxCell>
        <mxCell id="X3lnQFaPOgWNIHZg0Lux-914" value="" style="endArrow=none;html=1;rounded=0;strokeColor=#000000;fontSize=19;fontColor=#000000;exitX=0.5;exitY=0;exitDx=0;exitDy=0;entryX=0.5;entryY=1;entryDx=0;entryDy=0;" edge="1" parent="1" source="X3lnQFaPOgWNIHZg0Lux-6" target="X3lnQFaPOgWNIHZg0Lux-417">
          <mxGeometry width="50" height="50" relative="1" as="geometry">
            <mxPoint x="160" y="800" as="sourcePoint" />
            <mxPoint x="210" y="750" as="targetPoint" />
          </mxGeometry>
        </mxCell>
        <mxCell id="X3lnQFaPOgWNIHZg0Lux-915" value="" style="endArrow=none;html=1;rounded=0;strokeColor=#000000;fontSize=19;fontColor=#000000;" edge="1" parent="1">
          <mxGeometry width="50" height="50" relative="1" as="geometry">
            <mxPoint x="870" y="806" as="sourcePoint" />
            <mxPoint x="830" y="676" as="targetPoint" />
          </mxGeometry>
        </mxCell>
        <mxCell id="X3lnQFaPOgWNIHZg0Lux-916" value="" style="endArrow=none;html=1;rounded=0;strokeColor=#000000;fontSize=19;fontColor=#000000;entryX=0.5;entryY=1;entryDx=0;entryDy=0;exitX=0.5;exitY=0;exitDx=0;exitDy=0;" edge="1" parent="1" source="X3lnQFaPOgWNIHZg0Lux-6" target="X3lnQFaPOgWNIHZg0Lux-912">
          <mxGeometry width="50" height="50" relative="1" as="geometry">
            <mxPoint x="880" y="820" as="sourcePoint" />
            <mxPoint x="840" y="690" as="targetPoint" />
          </mxGeometry>
        </mxCell>
        <mxCell id="X3lnQFaPOgWNIHZg0Lux-917" value="&lt;font style=&quot;font-size: 17px;&quot;&gt;&lt;b&gt;E1&lt;/b&gt;&lt;/font&gt;" style="rounded=1;whiteSpace=wrap;html=1;fillColor=#cce5ff;strokeColor=#36393d;" vertex="1" parent="1">
          <mxGeometry x="280" y="170" width="190" height="30" as="geometry" />
        </mxCell>
        <mxCell id="X3lnQFaPOgWNIHZg0Lux-918" value="&lt;font style=&quot;font-size: 17px;&quot;&gt;&lt;b&gt;E2&lt;/b&gt;&lt;/font&gt;" style="rounded=1;whiteSpace=wrap;html=1;fillColor=#FFD966;strokeColor=#36393d;" vertex="1" parent="1">
          <mxGeometry x="500" y="170" width="190" height="30" as="geometry" />
        </mxCell>
        <mxCell id="X3lnQFaPOgWNIHZg0Lux-919" value="&lt;font style=&quot;font-size: 17px;&quot;&gt;&lt;b&gt;E3&lt;/b&gt;&lt;/font&gt;" style="rounded=1;whiteSpace=wrap;html=1;fillColor=#CCCCCC;strokeColor=#36393d;" vertex="1" parent="1">
          <mxGeometry x="720" y="170" width="190" height="30" as="geometry" />
        </mxCell>
        <mxCell id="X3lnQFaPOgWNIHZg0Lux-920" value="&lt;font style=&quot;font-size: 17px;&quot;&gt;&lt;b&gt;E4&lt;/b&gt;&lt;/font&gt;" style="rounded=1;whiteSpace=wrap;html=1;fillColor=#CCFFFF;strokeColor=#36393d;" vertex="1" parent="1">
          <mxGeometry x="940" y="170" width="190" height="30" as="geometry" />
        </mxCell>
        <mxCell id="X3lnQFaPOgWNIHZg0Lux-921" value="&lt;font style=&quot;font-size: 17px;&quot;&gt;&lt;b&gt;E5&lt;/b&gt;&lt;/font&gt;" style="rounded=1;whiteSpace=wrap;html=1;fillColor=#fff2cc;strokeColor=#d6b656;" vertex="1" parent="1">
          <mxGeometry x="1160" y="170" width="190" height="30" as="geometry" />
        </mxCell>
        <mxCell id="X3lnQFaPOgWNIHZg0Lux-923" value="" style="endArrow=classic;html=1;rounded=0;strokeColor=#000000;fontSize=17;fontColor=#000000;entryX=0.5;entryY=1;entryDx=0;entryDy=0;exitX=0.5;exitY=0;exitDx=0;exitDy=0;edgeStyle=orthogonalEdgeStyle;" edge="1" parent="1" source="X3lnQFaPOgWNIHZg0Lux-316" target="X3lnQFaPOgWNIHZg0Lux-917">
          <mxGeometry width="50" height="50" relative="1" as="geometry">
            <mxPoint x="100" y="240" as="sourcePoint" />
            <mxPoint x="150" y="190" as="targetPoint" />
          </mxGeometry>
        </mxCell>
        <mxCell id="X3lnQFaPOgWNIHZg0Lux-924" value="" style="endArrow=classic;html=1;rounded=0;strokeColor=#000000;fontSize=17;fontColor=#000000;entryX=0.5;entryY=1;entryDx=0;entryDy=0;exitX=0.5;exitY=0;exitDx=0;exitDy=0;edgeStyle=orthogonalEdgeStyle;" edge="1" parent="1" source="X3lnQFaPOgWNIHZg0Lux-418" target="X3lnQFaPOgWNIHZg0Lux-918">
          <mxGeometry width="50" height="50" relative="1" as="geometry">
            <mxPoint x="135" y="332" as="sourcePoint" />
            <mxPoint x="385" y="210" as="targetPoint" />
          </mxGeometry>
        </mxCell>
        <mxCell id="X3lnQFaPOgWNIHZg0Lux-925" value="" style="endArrow=classic;html=1;rounded=0;strokeColor=#000000;fontSize=17;fontColor=#000000;entryX=0.5;entryY=1;entryDx=0;entryDy=0;exitX=0.5;exitY=0;exitDx=0;exitDy=0;edgeStyle=orthogonalEdgeStyle;" edge="1" parent="1" source="X3lnQFaPOgWNIHZg0Lux-752" target="X3lnQFaPOgWNIHZg0Lux-919">
          <mxGeometry width="50" height="50" relative="1" as="geometry">
            <mxPoint x="665" y="542" as="sourcePoint" />
            <mxPoint x="605" y="210" as="targetPoint" />
          </mxGeometry>
        </mxCell>
        <mxCell id="X3lnQFaPOgWNIHZg0Lux-926" value="" style="endArrow=classic;html=1;rounded=0;strokeColor=#000000;fontSize=17;fontColor=#000000;entryX=0.5;entryY=1;entryDx=0;entryDy=0;exitX=0.5;exitY=0;exitDx=0;exitDy=0;edgeStyle=orthogonalEdgeStyle;" edge="1" parent="1" source="X3lnQFaPOgWNIHZg0Lux-862" target="X3lnQFaPOgWNIHZg0Lux-920">
          <mxGeometry width="50" height="50" relative="1" as="geometry">
            <mxPoint x="975" y="542" as="sourcePoint" />
            <mxPoint x="825" y="210" as="targetPoint" />
          </mxGeometry>
        </mxCell>
        <mxCell id="X3lnQFaPOgWNIHZg0Lux-927" value="" style="endArrow=classic;html=1;rounded=0;strokeColor=#000000;fontSize=17;fontColor=#000000;entryX=0.5;entryY=1;entryDx=0;entryDy=0;exitX=0.5;exitY=0;exitDx=0;exitDy=0;edgeStyle=orthogonalEdgeStyle;" edge="1" parent="1" source="X3lnQFaPOgWNIHZg0Lux-865" target="X3lnQFaPOgWNIHZg0Lux-921">
          <mxGeometry width="50" height="50" relative="1" as="geometry">
            <mxPoint x="1485" y="422" as="sourcePoint" />
            <mxPoint x="1045" y="210" as="targetPoint" />
            <Array as="points">
              <mxPoint x="1865" y="300" />
              <mxPoint x="1255" y="300" />
            </Array>
          </mxGeometry>
        </mxCell>
      </root>
    </mxGraphModel>
  </diagram>
</mxfile>
